<svg xmlns="http://www.w3.org/2000/svg" width="800px" height="800px" viewBox="0 0 95.939 95.939" fill="currentColor">
    <path d="M62.819 47.97l32.533-32.534c.781-.781.781-2.047 0-2.828L83.333.586A1.99 1.99 0 0081.919 0c-.53 0-1.039.211-1.414.586L47.97 33.121 15.435.586c-.75-.75-2.078-.75-2.828 0L.587 12.608c-.781.781-.781 2.047 0 2.828L33.121 47.97.587 80.504c-.781.781-.781 2.047 0 2.828l12.02 12.021c.375.375.884.586 1.414.586.53 0 1.039-.211 1.414-.586L47.97 62.818l32.535 32.535c.375.375.884.586 1.414.586.529 0 1.039-.211 1.414-.586l12.02-12.021c.781-.781.781-2.048 0-2.828L62.819 47.97z"/>
</svg>
