<svg xmlns="http://www.w3.org/2000/svg" fill="currentColor" width="150" height="150" viewBox="0 0 307.06 297.36">
    <path d="M300.72,66.9h-6.36v-18.2c0-2.02-1.42-3.63-3.17-3.63h-25.89V10.93c0-6.04-4.27-10.93-9.55-10.93H51.32c-5.28,0-9.55,4.89-9.55,10.93v34.14H15.89c-1.76,0-3.18,1.62-3.18,3.64v18.2h-6.35c-3.52,0-6.36,3.26-6.36,7.29v38.23c0,4.02,2.85,7.29,6.36,7.29h6.35v18.2c0,2.01,1.42,3.64,3.18,3.64h25.87v32.01h-.24c-5.28,0-9.54,4.89-9.54,10.92v42.48c0,3.61,1.55,6.79,3.92,8.78-2.36,1.99-3.92,5.18-3.92,8.79v17.07c0,6.03,4.27,10.92,9.54,10.92h4.79v17.57c0,4.02,4.32,7.27,9.66,7.27h32.2c5.33,0,9.65-3.26,9.65-7.27v-17.59h111.41v17.57c0,4.02,4.32,7.27,9.68,7.27h32.2c5.35,0,9.65-3.26,9.65-7.27v-17.57h4.79c5.28,0,9.56-4.9,9.56-10.92v-17.07c0-3.61-1.56-6.79-3.92-8.79,2.36-1.98,3.92-5.16,3.92-8.78v-42.48c0-6.04-4.29-10.92-9.56-10.92h-.23v-32h25.86c1.76,0,3.18-1.63,3.18-3.64v-18.2h6.35c3.53,0,6.37-3.26,6.37-7.29v-38.23c.01-4.02-2.83-7.28-6.35-7.28ZM41.77,134.27h-22.7v-14.57h6.35c3.52,0,6.37-3.26,6.37-7.28v-38.24c0-4.02-2.85-7.28-6.37-7.28h-6.35v-14.56h22.69v81.93h0ZM55.82,263.37c-4.84,0-8.75-4.48-8.75-10.01s3.93-10,8.75-10,8.75,4.47,8.75,10c0,5.55-3.92,10.01-8.75,10.01ZM79.15,263.37c-4.84,0-8.75-4.48-8.75-10.01s3.92-10,8.75-10,8.75,4.47,8.75,10c0,5.55-3.91,10.01-8.75,10.01ZM89.36,222.12h-42.43v-29.74h42.43v29.74ZM203.92,236.98h-100.78v-13.23h100.78v13.23h0ZM203.92,216.11h-100.78v-16.58h100.78v16.58h0ZM203.92,191.89h-100.78v-16.56h100.78v16.56h0ZM203.92,167.68h-100.78v-16.56h100.78v16.56h0ZM60.86,99.43V21.85h185.35v77.58H60.86ZM227.93,263.37c-4.86,0-8.75-4.48-8.75-10.01s3.91-10,8.75-10,8.74,4.47,8.74,10-3.9,10.01-8.74,10.01ZM251.25,263.37c-4.83,0-8.74-4.48-8.74-10.01s3.92-10,8.74-10,8.76,4.47,8.76,10c0,5.55-3.93,10.01-8.76,10.01ZM260.14,222.12h-42.43v-29.74h42.43v29.74ZM287.99,66.9h-6.37c-3.52,0-6.35,3.26-6.35,7.29v38.23c0,4.02,2.83,7.29,6.35,7.29h6.37v14.56h-22.71V52.34h22.71v14.56Z"></path>
</svg>