<svg xmlns="http://www.w3.org/2000/svg" fill="currentColor" width="150" height="150" viewBox="0 0 463.96 463">
    <g id="uuid-7a7dc313-6e93-48a3-9f4a-8dcb0168578c" data-name="OBJECTS">
        <g>
            <polygon points="68.68 451.21 61.81 451.21 61.81 463 438.19 463 438.19 451.21 431.3 451.21 68.68 451.21"></polygon>
            <path d="M168.51,386.64c0-3.07-2.2-5.55-4.92-5.55s-4.92,2.49-4.92,5.55,2.2,5.55,4.92,5.55c2.72,0,4.92-2.48,4.92-5.55Z"></path>
            <rect x="222.68" y="129.17" width="53.62" height="65.13"></rect>
            <polygon points="421.83 104.91 337.53 104.91 382.84 148.39 333.78 148.35 322.66 137.13 323.5 224.82 176.55 224.82 176.55 136.95 165.26 148.35 116.2 148.39 161.51 104.91 85.97 104.91 78.17 104.91 36.04 271.12 463.96 271.12 421.83 104.91"></polygon>
            <polygon points="161.1 143.59 249.52 56.95 337.94 143.59 371.37 143.62 249.54 26.68 249.52 26.7 249.5 26.68 127.67 143.62 161.1 143.59"></polygon>
            <rect x="223.49" y="305.68" width="57.99" height="85.59"></rect>
            <rect x="332.74" y="305.68" width="57.99" height="85.59"></rect>
            <path d="M61.81,445.39h49.92v-134.07c0-5.01,3.61-9.08,8.04-9.08h44.32c4.44,0,8.04,4.07,8.04,9.08v134.07h266.05v-168.45H61.81v168.45ZM327.64,299.93h68.19v112.45h-68.19v-112.45ZM218.39,299.93h68.19v112.45h-68.19v-112.45Z"></path>
        </g>
    </g>
</svg>