<svg xmlns="http://www.w3.org/2000/svg" fill="currentColor" width="150" height="150" viewBox="0 0 659.3 749.78">
    <path d="M450.17,89.2c-.55,0-9.02,2.35-22.3,6.55-13.22-38.52-36.75-74.05-78.35-74.05h-3.6c-8.9-12.5-23.02-20.8-39.1-21.7h-.12c-97.03,0-143.4,121.12-157.93,182.63-37.3,11.4-64.45,19.87-67.47,21.05-21.1,6.64-21.68,7.24-24.13,27.17C54.82,245.27,0,670.2,0,670.2l423.64,79.58,28.96-661.23c-.63,0-1.88.65-2.43.65ZM238,154.85c-20.5,6.65-40.4,12.65-59.03,18.05,16.2-55.77,55.4-146.67,124.7-146.67l.03-.28h.02c4.72,0,9.1,1.56,12.62,4.21-43.72,26.2-73.67,71.52-78.29,124.09l-.05.6ZM342.27,118.45v3.85c-23.55,7.25-49.45,15.13-74.8,23,6.6-40.17,30.92-73.6,64.5-92.47l.65-.33c6.2,17.63,9.77,37.95,9.77,59.13,0,2.27-.05,4.55-.12,6.82ZM367.59,114.53v-7.88c.03-1.22.05-2.67.05-4.12,0-18.93-2.96-37.15-8.44-54.25,21.63,2.35,35.58,27.1,44.57,54.82-10.9,3.55-22.98,7.23-36.18,11.43Z"></path>
    <path d="M359.12,48.27v-.1l-.35-1.24c.15.45.29.9.43,1.35-.03,0-.05-.01-.08-.01Z"></path>
    <path d="M316.4,30.2s-.04-.03-.06-.04c0-.01.01-.01.01-.01l.05.05Z"></path>
    <path d="M433.87,749.15l225.43-48.78s-81.35-550.25-82-553.9c-.45-3.32-3.2-5.88-6.58-6h0c-3.03,0-60.27-4.25-60.27-4.25,0,0-39.83-39.8-44.95-44.08-1.07-.98-2.33-1.75-3.7-2.28l-.08-.02-28.55,659.3h.7Z"></path>
</svg>