<svg xmlns="http://www.w3.org/2000/svg" width="800px" height="800px" viewBox="0 0 20 14" fill="currentColor">
    <path d="M7.988,9.585 L7.988,3.974 C9.98,4.911 11.523,5.817 13.348,6.793 C11.843,7.628 9.98,8.564 7.988,9.585 M19.09,1.182 C18.747,0.730 18.161,0.378 17.538,0.261 C15.705,-0.086 4.27,-0.087 2.439,0.261 C1.939,0.355 1.493,0.581 1.111,0.933 C-0.5,2.429 0.004,10.451 0.393,11.75 C0.556,12.313 0.767,12.719 1.033,12.985 C1.376,13.337 1.845,13.579 2.384,13.688 C3.893,14 11.668,14.175 17.506,13.735 C18.044,13.641 18.52,13.391 18.895,13.024 C20.385,11.534 20.284,3.061 19.09,1.182" />
</svg>
