<?xml version="1.0" encoding="UTF-8"?>
<svg xmlns="http://www.w3.org/2000/svg" width="503.32" height="503.32" viewBox="0 0 503.32 503.32">
  <g id="uuid-8448cca4-3708-49e9-b690-d6eb39191ca9" data-name="Layer 1">
    <g>
      <rect x="183.19" y="356.76" width="73.28" height="36.64" fill="#fff"/>
      <rect x="0" y="356.76" width="85.49" height="36.64" fill="#fff"/>
      <rect x="140.45" y="405.61" width="73.28" height="36.64" fill="#fff"/>
      <rect x="140.45" y="307.91" width="73.28" height="36.64" fill="#fff"/>
      <rect x="54.96" y="307.91" width="73.28" height="36.64" fill="#fff"/>
      <rect x="97.7" y="259.06" width="73.28" height="36.64" fill="#fff"/>
      <rect x="225.94" y="405.61" width="73.28" height="36.64" fill="#fff"/>
      <rect x="0" y="405.61" width="42.74" height="36.64" fill="#fff"/>
      <rect x="0" y="259.06" width="85.49" height="36.64" fill="#fff"/>
      <rect x="225.94" y="307.91" width="73.28" height="36.64" fill="#fff"/>
      <rect x="268.68" y="356.76" width="85.49" height="36.64" fill="#fff"/>
      <path d="M268.68,503.32h79.38c3.37,0,6.11-2.73,6.11-6.11v-42.74h-85.49v48.85Z" fill="#fff"/>
      <rect x="311.43" y="405.61" width="42.74" height="36.64" fill="#fff"/>
      <rect x="311.43" y="307.91" width="42.74" height="36.64" fill="#fff"/>
      <path d="M140.45,204.11c0-3.38-2.74-6.11-6.11-6.11H54.96v48.85h85.49v-42.74h0Z" fill="#fff"/>
      <path d="M42.74,198H6.11c-3.37,0-6.11,2.73-6.11,6.11v42.74h42.74v-48.85Z" fill="#fff"/>
      <path d="M0,497.21c0,3.38,2.74,6.11,6.11,6.11h79.38v-48.85H0v42.74Z" fill="#fff"/>
      <rect x="183.19" y="454.46" width="73.28" height="48.85" fill="#fff"/>
      <rect x="97.7" y="356.76" width="73.28" height="36.64" fill="#fff"/>
      <rect x="0" y="307.91" width="42.74" height="36.64" fill="#fff"/>
      <rect x="183.19" y="259.06" width="73.28" height="36.64" fill="#fff"/>
      <rect x="54.96" y="405.61" width="73.28" height="36.64" fill="#fff"/>
      <rect x="97.7" y="454.46" width="73.28" height="48.85" fill="#fff"/>
    </g>
  </g>
  <g id="uuid-408a6280-4168-476d-b0f6-cf2cfa17b300" data-name="Layer 2">
    <g>
      <path d="M416.96,189.72c1.6,3.47.09,7.59-3.39,9.19l-31.87,14.71c-3.47,1.6-7.59.09-9.19-3.38l-9.56-20.71c-1.6-3.47-.09-7.59,3.39-9.19l31.87-14.71c3.47-1.6,7.59-.08,9.19,3.39l.93,2.02,39.91-18.44c.67-.3,1.34-.61,2.01-.98,1.04-6.6,1.59-13.38,1.59-20.28C451.85,58.76,393.02,0,320.51,0c-72.57,0-131.33,58.76-131.33,131.33s58.77,131.33,131.33,131.33c57.36,0,106.17-36.83,124-88.14l-28.5,13.15.94,2.04ZM320.49,185.19c-29.76,0-53.88-24.12-53.88-53.88s24.12-53.89,53.88-53.89,53.88,24.12,53.88,53.89-24.12,53.88-53.88,53.88Z" fill="#fff"/>
      <path d="M320.49,107.63c-13.08,0-23.68,10.61-23.68,23.68s10.6,23.68,23.68,23.68,23.68-10.59,23.68-23.68c0-13.08-10.6-23.68-23.68-23.68Z" fill="#fff"/>
      <path d="M503.32,21.56h-44.98v54.98h13.24v39.65c0,14.9-8.25,28.53-21.32,35.43-1.22,7.88-3.11,15.58-5.74,22.91l11.42-5.26c20.71-9.53,33.96-30.3,33.96-53.08v-39.65h13.42V21.56Z" fill="#fff"/>
    </g>
  </g>
  <g id="uuid-5d7b43d2-bf0b-4f93-86d2-c59688664059" data-name="Layer 3">
    <g>
      <path d="M475.7,422.92l-25.73,9.23-1.28,10.71c-.07.58,0,1.17.2,1.72l8.93,24.89,14.22-5.1c1.97-.71,4.13.32,4.83,2.28s-.31,4.13-2.28,4.83l-14.22,5.1,2.55,7.11,14.22-5.1c1.97-.71,4.13.32,4.83,2.28s-.31,4.13-2.28,4.83l-14.22,5.1c3.52,9.8,14.36,14.92,24.16,11.4s14.92-14.36,11.4-24.16l-16.59-46.23c-.2-.55-.52-1.05-.95-1.45l-7.79-7.45Z" fill="#fff"/>
      <path d="M421.51,287.19h0c-5.76.26-11.39,2.28-16,5.74-24.12,18.08-33.49,49.28-23.32,77.65l13.77,38.39c1.81,5.04,6.78,8.09,12.09,7.42l18.57-2.35c6.06-.77,12.05-2.15,17.86-4.07l5.13,14.29,21.34-7.65-5.13-14.29c5.7-2.21,11.21-4.95,16.37-8.21l15.83-9.99c4.53-2.86,6.43-8.37,4.62-13.41l-13.77-38.39c-10.18-28.37-37.25-46.5-67.36-45.12ZM495.53,373.24c.6,1.68-.03,3.52-1.54,4.47l-15.83,9.99c-4.7,2.97-9.7,5.49-14.88,7.52l-3.82-10.64c-.34-.94-1.04-1.71-1.94-2.14l-9.66-4.56c-.94-.44-1.98-.47-2.89-.14s-1.7,1-2.14,1.94l-4.56,9.66c-.43.91-.48,1.95-.14,2.89l3.82,10.64c-5.29,1.73-10.75,2.96-16.27,3.66l-18.57,2.35c-1.77.22-3.43-.8-4.03-2.48l-13.77-38.39c-9.05-25.23-.72-52.98,20.73-69.05,3.41-2.56,7.56-4.04,11.82-4.24,26.78-1.23,50.85,14.89,59.9,40.12l13.77,38.39h0Z" fill="#fff"/>
      <path d="M413.64,304.89c-17.81,13.34-24.88,36.22-17.99,58.29.62,1.99,2.74,3.1,4.73,2.48.05-.02.1-.03.15-.05,1.89-.68,2.93-2.74,2.33-4.68-5.92-18.97.09-38.59,15.31-49.99,1.67-1.25,2.01-3.62.76-5.29-1.25-1.67-3.61-2.02-5.29-.76Z" fill="#fff"/>
    </g>
  </g>
</svg>