<?xml version="1.0" encoding="UTF-8"?>
<svg xmlns="http://www.w3.org/2000/svg" width="804.38" height="799.35" viewBox="0 0 804.38 799.35">
  <g id="uuid-d77f6b5d-4372-4842-948c-dc547b5f3be4" data-name="shape">
    <path d="M536.71,242.03H34.34c-18.9,0-34.34,15.44-34.34,34.34v433.93c0,18.9,15.44,34.34,34.34,34.34h502.37c18.9,0,34.34-15.44,34.34-34.34v-433.93c0-18.9-15.44-34.34-34.34-34.34ZM450.98,264.84c12.44,0,22.81,10.37,22.81,22.81s-10.37,22.81-22.81,22.81-22.81-10.37-22.81-22.81,10.37-22.81,22.81-22.81ZM388.3,264.84c12.44,0,22.81,10.37,22.81,22.81s-10.37,22.81-22.81,22.81-22.81-10.37-22.81-22.81,10.14-22.81,22.81-22.81ZM553.21,714.21H17.84v-380.93h535.37v380.93ZM513.89,310.47c-12.44,0-22.81-10.37-22.81-22.81s10.37-22.81,22.81-22.81,22.81,10.37,22.81,22.81-10.37,22.81-22.81,22.81ZM65.68,351.63h438.12v65.63H65.68v-65.63ZM65.68,434.25h101.42v270.45h-101.42v-270.45Z" fill="#fff"/>
  </g>
  <g id="uuid-f0ea09be-8654-43c2-a865-abbad175b1d7" data-name="Layer 2">
    <path d="M788.53,393.8h-190.21c-8.75,0-15.86,7.12-15.86,15.86v373.83c0,8.75,7.11,15.86,15.86,15.86h190.21c8.75,0,15.85-7.11,15.85-15.86v-373.83c0-8.75-7.11-15.86-15.85-15.86ZM677.87,765.22c0-8.59,6.95-15.56,15.55-15.56s15.55,6.97,15.55,15.56-6.94,15.56-15.55,15.56-15.55-6.96-15.55-15.56ZM594.52,738.55v-295.44h197.83v295.44h-197.83Z" fill="#fff"/>
    <path d="M645.23,552.88c-24.41,0-44.26,19.85-44.26,44.26s19.85,44.26,44.26,44.26,44.26-19.85,44.26-44.26-19.85-44.26-44.26-44.26ZM676.32,595.76c.76,0,1.38.62,1.38,1.38,0,17.91-14.57,32.48-32.48,32.48-.76,0-1.38-.62-1.38-1.38s.62-1.38,1.38-1.38c16.38,0,29.71-13.33,29.71-29.71,0-.76.62-1.38,1.38-1.38ZM670.84,595.76c.76,0,1.38.62,1.38,1.38,0,14.88-12.11,26.99-26.99,26.99-.76,0-1.38-.62-1.38-1.38s.62-1.38,1.38-1.38c13.36,0,24.22-10.87,24.22-24.22,0-.76.62-1.38,1.38-1.38ZM665.25,595.76c.76,0,1.38.62,1.38,1.38,0,11.8-9.6,21.4-21.4,21.4-.76,0-1.38-.62-1.38-1.38s.62-1.38,1.38-1.38c10.28,0,18.64-8.36,18.64-18.64,0-.76.62-1.38,1.38-1.38ZM608.66,598.53c-.76,0-1.38-.62-1.38-1.38,0-20.93,17.03-37.95,37.95-37.95.76,0,1.38.62,1.38,1.38s-.62,1.38-1.38,1.38c-19.4,0-35.19,15.78-35.19,35.19,0,.76-.62,1.38-1.38,1.38ZM614.13,598.53c-.76,0-1.38-.62-1.38-1.38,0-17.91,14.57-32.48,32.48-32.48.76,0,1.38.62,1.38,1.38s-.62,1.38-1.38,1.38c-16.38,0-29.71,13.33-29.71,29.71,0,.76-.62,1.38-1.38,1.38ZM619.62,598.53c-.76,0-1.38-.62-1.38-1.38,0-14.88,12.11-26.99,26.99-26.99.76,0,1.38.62,1.38,1.38s-.62,1.38-1.38,1.38c-13.36,0-24.22,10.87-24.22,24.22,0,.76-.62,1.38-1.38,1.38ZM625.21,598.53c-.76,0-1.38-.62-1.38-1.38,0-11.8,9.6-21.4,21.4-21.4.76,0,1.38.62,1.38,1.38s-.62,1.38-1.38,1.38c-10.28,0-18.64,8.36-18.64,18.64,0,.76-.62,1.38-1.38,1.38ZM631.45,597.14c0-7.6,6.18-13.78,13.78-13.78s13.78,6.18,13.78,13.78-6.18,13.78-13.78,13.78-13.78-6.18-13.78-13.78ZM645.23,635.09c-.76,0-1.38-.62-1.38-1.38s.62-1.38,1.38-1.38c19.4,0,35.19-15.78,35.19-35.19,0-.76.62-1.38,1.38-1.38s1.38.62,1.38,1.38c0,20.93-17.03,37.95-37.95,37.95Z" fill="#fff"/>
    <path d="M645.23,593.7c-1.9,0-3.44,1.54-3.44,3.44s1.54,3.44,3.44,3.44,3.44-1.54,3.44-3.44-1.54-3.44-3.44-3.44Z" fill="#fff"/>
    <rect x="618.24" y="650.3" width="53.98" height="16" fill="#fff"/>
    <path d="M740.32,552.88c-24.41,0-44.26,19.85-44.26,44.26s19.85,44.26,44.26,44.26,44.26-19.85,44.26-44.26-19.85-44.26-44.26-44.26ZM771.41,595.76c.76,0,1.38.62,1.38,1.38,0,17.91-14.57,32.48-32.48,32.48-.76,0-1.38-.62-1.38-1.38s.62-1.38,1.38-1.38c16.38,0,29.71-13.33,29.71-29.71,0-.76.62-1.38,1.38-1.38ZM765.93,595.76c.76,0,1.38.62,1.38,1.38,0,14.88-12.11,26.99-26.99,26.99-.76,0-1.38-.62-1.38-1.38s.62-1.38,1.38-1.38c13.36,0,24.22-10.87,24.22-24.22,0-.76.62-1.38,1.38-1.38ZM760.34,595.76c.76,0,1.38.62,1.38,1.38,0,11.8-9.6,21.4-21.4,21.4-.76,0-1.38-.62-1.38-1.38s.62-1.38,1.38-1.38c10.28,0,18.64-8.36,18.64-18.64,0-.76.62-1.38,1.38-1.38ZM703.75,598.53c-.76,0-1.38-.62-1.38-1.38,0-20.93,17.03-37.95,37.95-37.95.76,0,1.38.62,1.38,1.38s-.62,1.38-1.38,1.38c-19.4,0-35.19,15.78-35.19,35.19,0,.76-.62,1.38-1.38,1.38ZM709.22,598.53c-.76,0-1.38-.62-1.38-1.38,0-17.91,14.57-32.48,32.48-32.48.76,0,1.38.62,1.38,1.38s-.62,1.38-1.38,1.38c-16.38,0-29.71,13.33-29.71,29.71,0,.76-.62,1.38-1.38,1.38ZM714.71,598.53c-.76,0-1.38-.62-1.38-1.38,0-14.88,12.11-26.99,26.99-26.99.76,0,1.38.62,1.38,1.38s-.62,1.38-1.38,1.38c-13.36,0-24.22,10.87-24.22,24.22,0,.76-.62,1.38-1.38,1.38ZM720.3,598.53c-.76,0-1.38-.62-1.38-1.38,0-11.8,9.6-21.4,21.4-21.4.76,0,1.38.62,1.38,1.38s-.62,1.38-1.38,1.38c-10.28,0-18.64,8.36-18.64,18.64,0,.76-.62,1.38-1.38,1.38ZM726.54,597.14c0-7.6,6.18-13.78,13.78-13.78s13.78,6.18,13.78,13.78-6.18,13.78-13.78,13.78-13.78-6.18-13.78-13.78ZM740.32,635.09c-.76,0-1.38-.62-1.38-1.38s.62-1.38,1.38-1.38c19.4,0,35.19-15.78,35.19-35.19,0-.76.62-1.38,1.38-1.38s1.38.62,1.38,1.38c0,20.93-17.03,37.95-37.95,37.95Z" fill="#fff"/>
    <path d="M740.32,593.7c-1.9,0-3.44,1.54-3.44,3.44s1.54,3.44,3.44,3.44,3.44-1.54,3.44-3.44-1.54-3.44-3.44-3.44Z" fill="#fff"/>
    <rect x="713.33" y="650.3" width="53.98" height="16" fill="#fff"/>
    <path d="M645.23,681.84c-24.41,0-44.26,19.85-44.26,44.26s19.85,44.26,44.26,44.26,44.26-19.85,44.26-44.26-19.85-44.26-44.26-44.26ZM676.32,724.72c.76,0,1.38.62,1.38,1.38,0,17.91-14.57,32.48-32.48,32.48-.76,0-1.38-.62-1.38-1.38s.62-1.38,1.38-1.38c16.38,0,29.71-13.33,29.71-29.71,0-.76.62-1.38,1.38-1.38ZM670.84,724.72c.76,0,1.38.62,1.38,1.38,0,14.88-12.11,26.99-26.99,26.99-.76,0-1.38-.62-1.38-1.38s.62-1.38,1.38-1.38c13.36,0,24.22-10.87,24.22-24.22,0-.76.62-1.38,1.38-1.38ZM665.25,724.72c.76,0,1.38.62,1.38,1.38,0,11.8-9.6,21.4-21.4,21.4-.76,0-1.38-.62-1.38-1.38s.62-1.38,1.38-1.38c10.28,0,18.64-8.36,18.64-18.64,0-.76.62-1.38,1.38-1.38ZM608.66,727.49c-.76,0-1.38-.62-1.38-1.38,0-20.93,17.03-37.95,37.95-37.95.76,0,1.38.62,1.38,1.38s-.62,1.38-1.38,1.38c-19.4,0-35.19,15.78-35.19,35.19,0,.76-.62,1.38-1.38,1.38ZM614.13,727.49c-.76,0-1.38-.62-1.38-1.38,0-17.91,14.57-32.48,32.48-32.48.76,0,1.38.62,1.38,1.38s-.62,1.38-1.38,1.38c-16.38,0-29.71,13.33-29.71,29.71,0,.76-.62,1.38-1.38,1.38ZM619.62,727.49c-.76,0-1.38-.62-1.38-1.38,0-14.88,12.11-26.99,26.99-26.99.76,0,1.38.62,1.38,1.38s-.62,1.38-1.38,1.38c-13.36,0-24.22,10.87-24.22,24.22,0,.76-.62,1.38-1.38,1.38ZM625.21,727.49c-.76,0-1.38-.62-1.38-1.38,0-11.8,9.6-21.4,21.4-21.4.76,0,1.38.62,1.38,1.38s-.62,1.38-1.38,1.38c-10.28,0-18.64,8.36-18.64,18.64,0,.76-.62,1.38-1.38,1.38ZM631.45,726.1c0-7.6,6.18-13.78,13.78-13.78s13.78,6.18,13.78,13.78-6.18,13.78-13.78,13.78-13.78-6.18-13.78-13.78ZM645.23,764.05c-.76,0-1.38-.62-1.38-1.38s.62-1.38,1.38-1.38c19.4,0,35.19-15.78,35.19-35.19,0-.76.62-1.38,1.38-1.38s1.38.62,1.38,1.38c0,20.93-17.03,37.95-37.95,37.95Z" fill="#fff"/>
    <path d="M645.23,722.67c-1.9,0-3.44,1.54-3.44,3.44s1.54,3.44,3.44,3.44,3.44-1.54,3.44-3.44-1.54-3.44-3.44-3.44Z" fill="#fff"/>
    <path d="M740.32,681.84c-24.41,0-44.26,19.85-44.26,44.26s19.85,44.26,44.26,44.26,44.26-19.85,44.26-44.26-19.85-44.26-44.26-44.26ZM771.41,724.72c.76,0,1.38.62,1.38,1.38,0,17.91-14.57,32.48-32.48,32.48-.76,0-1.38-.62-1.38-1.38s.62-1.38,1.38-1.38c16.38,0,29.71-13.33,29.71-29.71,0-.76.62-1.38,1.38-1.38ZM765.93,724.72c.76,0,1.38.62,1.38,1.38,0,14.88-12.11,26.99-26.99,26.99-.76,0-1.38-.62-1.38-1.38s.62-1.38,1.38-1.38c13.36,0,24.22-10.87,24.22-24.22,0-.76.62-1.38,1.38-1.38ZM760.34,724.72c.76,0,1.38.62,1.38,1.38,0,11.8-9.6,21.4-21.4,21.4-.76,0-1.38-.62-1.38-1.38s.62-1.38,1.38-1.38c10.28,0,18.64-8.36,18.64-18.64,0-.76.62-1.38,1.38-1.38ZM703.75,727.49c-.76,0-1.38-.62-1.38-1.38,0-20.93,17.03-37.95,37.95-37.95.76,0,1.38.62,1.38,1.38s-.62,1.38-1.38,1.38c-19.4,0-35.19,15.78-35.19,35.19,0,.76-.62,1.38-1.38,1.38ZM709.22,727.49c-.76,0-1.38-.62-1.38-1.38,0-17.91,14.57-32.48,32.48-32.48.76,0,1.38.62,1.38,1.38s-.62,1.38-1.38,1.38c-16.38,0-29.71,13.33-29.71,29.71,0,.76-.62,1.38-1.38,1.38ZM714.71,727.49c-.76,0-1.38-.62-1.38-1.38,0-14.88,12.11-26.99,26.99-26.99.76,0,1.38.62,1.38,1.38s-.62,1.38-1.38,1.38c-13.36,0-24.22,10.87-24.22,24.22,0,.76-.62,1.38-1.38,1.38ZM720.3,727.49c-.76,0-1.38-.62-1.38-1.38,0-11.8,9.6-21.4,21.4-21.4.76,0,1.38.62,1.38,1.38s-.62,1.38-1.38,1.38c-10.28,0-18.64,8.36-18.64,18.64,0,.76-.62,1.38-1.38,1.38ZM726.54,726.1c0-7.6,6.18-13.78,13.78-13.78s13.78,6.18,13.78,13.78-6.18,13.78-13.78,13.78-13.78-6.18-13.78-13.78ZM740.32,764.05c-.76,0-1.38-.62-1.38-1.38s.62-1.38,1.38-1.38c19.4,0,35.19-15.78,35.19-35.19,0-.76.62-1.38,1.38-1.38s1.38.62,1.38,1.38c0,20.93-17.03,37.95-37.95,37.95Z" fill="#fff"/>
    <path d="M740.32,722.67c-1.9,0-3.44,1.54-3.44,3.44s1.54,3.44,3.44,3.44,3.44-1.54,3.44-3.44-1.54-3.44-3.44-3.44Z" fill="#fff"/>
    <rect x="600.97" y="475.48" width="184.71" height="61.1" fill="#fff"/>
    <rect x="602.35" y="447.99" width="24.6" height="4.93" fill="#fff"/>
    <rect x="602.35" y="456.3" width="24.6" height="4.93" fill="#fff"/>
    <rect x="602.35" y="464.6" width="24.6" height="4.93" fill="#fff"/>
    <polygon points="778.27 456.3 748.79 456.3 755.87 470.81 771.13 470.81 778.27 456.3" fill="#fff"/>
    <polygon points="770.13 447.99 770.13 458.76 775.13 458.76 775.13 453.38 784.58 453.38 784.58 447.99 770.13 447.99" fill="#fff"/>
    <rect x="756.9" y="469.53" width="3.67" height="3.73" fill="#fff"/>
    <rect x="766.02" y="469.53" width="3.67" height="3.73" fill="#fff"/>
  </g>
  <g id="uuid-c2b72b85-bc76-4801-bec0-d86d12c54d5c" data-name="Layer 3">
    <path d="M230.2,435.78c-26.21,0-47.54,21.33-47.54,47.54s21.33,47.54,47.54,47.54,47.54-21.33,47.54-47.54-21.33-47.54-47.54-47.54ZM263.6,481.84c.82,0,1.49.67,1.49,1.49,0,19.24-15.65,34.88-34.88,34.88-.82,0-1.49-.67-1.49-1.49s.67-1.49,1.49-1.49c17.6,0,31.91-14.32,31.91-31.91,0-.82.66-1.49,1.49-1.49ZM257.7,481.84c.82,0,1.49.67,1.49,1.49,0,15.99-13,28.99-28.99,28.99-.82,0-1.49-.67-1.49-1.49s.67-1.49,1.49-1.49c14.35,0,26.02-11.67,26.02-26.02,0-.82.67-1.49,1.49-1.49ZM251.7,481.84c.82,0,1.49.67,1.49,1.49,0,12.67-10.31,22.99-22.99,22.99-.82,0-1.49-.67-1.49-1.49s.67-1.49,1.49-1.49c11.04,0,20.02-8.98,20.02-20.02,0-.82.67-1.49,1.49-1.49ZM190.92,484.81c-.82,0-1.49-.67-1.49-1.49,0-22.48,18.29-40.76,40.76-40.76.82,0,1.49.67,1.49,1.49s-.67,1.49-1.49,1.49c-20.84,0-37.79,16.95-37.79,37.79,0,.82-.66,1.49-1.49,1.49ZM196.8,484.81c-.82,0-1.49-.67-1.49-1.49,0-19.24,15.65-34.88,34.88-34.88.82,0,1.49.67,1.49,1.49s-.67,1.49-1.49,1.49c-17.6,0-31.91,14.32-31.91,31.91,0,.82-.66,1.49-1.49,1.49ZM202.7,484.81c-.82,0-1.49-.67-1.49-1.49,0-15.99,13-28.99,28.99-28.99.82,0,1.49.67,1.49,1.49s-.67,1.49-1.49,1.49c-14.35,0-26.02,11.67-26.02,26.02,0,.82-.67,1.49-1.49,1.49ZM208.7,484.81c-.82,0-1.49-.67-1.49-1.49,0-12.67,10.31-22.99,22.99-22.99.82,0,1.49.67,1.49,1.49s-.67,1.49-1.49,1.49c-11.04,0-20.02,8.98-20.02,20.02,0,.82-.67,1.49-1.49,1.49ZM215.4,483.32c0-8.16,6.64-14.8,14.8-14.8s14.8,6.64,14.8,14.8-6.64,14.8-14.8,14.8-14.8-6.64-14.8-14.8ZM230.2,524.09c-.82,0-1.49-.67-1.49-1.49s.67-1.49,1.49-1.49c20.84,0,37.79-16.95,37.79-37.79,0-.82.67-1.49,1.49-1.49s1.49.67,1.49,1.49c0,22.48-18.29,40.76-40.76,40.76Z" fill="#fff"/>
    <path d="M230.2,479.63c-2.04,0-3.69,1.66-3.69,3.69s1.66,3.69,3.69,3.69,3.69-1.66,3.69-3.69-1.66-3.69-3.69-3.69Z" fill="#fff"/>
    <path d="M340.84,435.78c-26.21,0-47.54,21.33-47.54,47.54s21.33,47.54,47.54,47.54,47.54-21.33,47.54-47.54-21.33-47.54-47.54-47.54ZM374.24,481.84c.82,0,1.49.67,1.49,1.49,0,19.24-15.65,34.88-34.88,34.88-.82,0-1.49-.67-1.49-1.49s.67-1.49,1.49-1.49c17.6,0,31.91-14.32,31.91-31.91,0-.82.66-1.49,1.49-1.49ZM368.35,481.84c.82,0,1.49.67,1.49,1.49,0,15.99-13,28.99-28.99,28.99-.82,0-1.49-.67-1.49-1.49s.67-1.49,1.49-1.49c14.35,0,26.02-11.67,26.02-26.02,0-.82.67-1.49,1.49-1.49ZM362.35,481.84c.82,0,1.49.67,1.49,1.49,0,12.67-10.31,22.99-22.99,22.99-.82,0-1.49-.67-1.49-1.49s.67-1.49,1.49-1.49c11.04,0,20.02-8.98,20.02-20.02,0-.82.67-1.49,1.49-1.49ZM301.57,484.81c-.82,0-1.49-.67-1.49-1.49,0-22.48,18.29-40.76,40.76-40.76.82,0,1.49.67,1.49,1.49s-.67,1.49-1.49,1.49c-20.84,0-37.79,16.95-37.79,37.79,0,.82-.66,1.49-1.49,1.49ZM307.45,484.81c-.82,0-1.49-.67-1.49-1.49,0-19.24,15.65-34.88,34.88-34.88.82,0,1.49.67,1.49,1.49s-.67,1.49-1.49,1.49c-17.6,0-31.91,14.32-31.91,31.91,0,.82-.66,1.49-1.49,1.49ZM313.34,484.81c-.82,0-1.49-.67-1.49-1.49,0-15.99,13-28.99,28.99-28.99.82,0,1.49.67,1.49,1.49s-.67,1.49-1.49,1.49c-14.35,0-26.02,11.67-26.02,26.02,0,.82-.67,1.49-1.49,1.49ZM319.34,484.81c-.82,0-1.49-.67-1.49-1.49,0-12.67,10.31-22.99,22.99-22.99.82,0,1.49.67,1.49,1.49s-.67,1.49-1.49,1.49c-11.04,0-20.02,8.98-20.02,20.02,0,.82-.67,1.49-1.49,1.49ZM326.04,483.32c0-8.16,6.64-14.8,14.8-14.8s14.8,6.64,14.8,14.8-6.64,14.8-14.8,14.8-14.8-6.64-14.8-14.8ZM340.84,524.09c-.82,0-1.49-.67-1.49-1.49s.67-1.49,1.49-1.49c20.84,0,37.79-16.95,37.79-37.79,0-.82.67-1.49,1.49-1.49s1.49.67,1.49,1.49c0,22.48-18.29,40.76-40.76,40.76Z" fill="#fff"/>
    <path d="M340.84,479.63c-2.04,0-3.69,1.66-3.69,3.69s1.66,3.69,3.69,3.69,3.69-1.66,3.69-3.69-1.66-3.69-3.69-3.69Z" fill="#fff"/>
    <path d="M451.49,434.3c-26.21,0-47.54,21.33-47.54,47.54s21.33,47.54,47.54,47.54,47.54-21.33,47.54-47.54-21.33-47.54-47.54-47.54ZM484.89,480.35c.82,0,1.49.67,1.49,1.49,0,19.24-15.65,34.88-34.88,34.88-.82,0-1.49-.67-1.49-1.49s.67-1.49,1.49-1.49c17.6,0,31.91-14.32,31.91-31.91,0-.82.66-1.49,1.49-1.49ZM478.99,480.35c.82,0,1.49.67,1.49,1.49,0,15.99-13,28.99-28.99,28.99-.82,0-1.49-.67-1.49-1.49s.67-1.49,1.49-1.49c14.35,0,26.02-11.67,26.02-26.02,0-.82.67-1.49,1.49-1.49ZM472.99,480.35c.82,0,1.49.67,1.49,1.49,0,12.67-10.31,22.99-22.99,22.99-.82,0-1.49-.67-1.49-1.49s.67-1.49,1.49-1.49c11.04,0,20.02-8.98,20.02-20.02,0-.82.67-1.49,1.49-1.49ZM412.21,483.32c-.82,0-1.49-.67-1.49-1.49,0-22.48,18.29-40.76,40.76-40.76.82,0,1.49.67,1.49,1.49s-.67,1.49-1.49,1.49c-20.84,0-37.79,16.95-37.79,37.79,0,.82-.66,1.49-1.49,1.49ZM418.09,483.32c-.82,0-1.49-.67-1.49-1.49,0-19.24,15.65-34.88,34.88-34.88.82,0,1.49.67,1.49,1.49s-.67,1.49-1.49,1.49c-17.6,0-31.91,14.32-31.91,31.91,0,.82-.66,1.49-1.49,1.49ZM423.99,483.32c-.82,0-1.49-.67-1.49-1.49,0-15.99,13-28.99,28.99-28.99.82,0,1.49.67,1.49,1.49s-.67,1.49-1.49,1.49c-14.35,0-26.02,11.67-26.02,26.02,0,.82-.67,1.49-1.49,1.49ZM429.99,483.32c-.82,0-1.49-.67-1.49-1.49,0-12.67,10.31-22.99,22.99-22.99.82,0,1.49.67,1.49,1.49s-.67,1.49-1.49,1.49c-11.04,0-20.02,8.98-20.02,20.02,0,.82-.67,1.49-1.49,1.49ZM436.69,481.84c0-8.16,6.64-14.8,14.8-14.8s14.8,6.64,14.8,14.8-6.64,14.8-14.8,14.8-14.8-6.64-14.8-14.8ZM451.49,522.6c-.82,0-1.49-.67-1.49-1.49s.67-1.49,1.49-1.49c20.84,0,37.79-16.95,37.79-37.79,0-.82.67-1.49,1.49-1.49s1.49.67,1.49,1.49c0,22.48-18.29,40.76-40.76,40.76Z" fill="#fff"/>
    <path d="M451.49,478.14c-2.04,0-3.69,1.66-3.69,3.69s1.66,3.69,3.69,3.69,3.69-1.66,3.69-3.69-1.66-3.69-3.69-3.69Z" fill="#fff"/>
    <path d="M230.2,570.04c-26.21,0-47.54,21.33-47.54,47.54s21.33,47.54,47.54,47.54,47.54-21.33,47.54-47.54-21.33-47.54-47.54-47.54ZM263.6,616.1c.82,0,1.49.67,1.49,1.49,0,19.24-15.65,34.88-34.88,34.88-.82,0-1.49-.67-1.49-1.49s.67-1.49,1.49-1.49c17.6,0,31.91-14.32,31.91-31.91,0-.82.66-1.49,1.49-1.49ZM257.7,616.1c.82,0,1.49.67,1.49,1.49,0,15.99-13,28.99-28.99,28.99-.82,0-1.49-.67-1.49-1.49s.67-1.49,1.49-1.49c14.35,0,26.02-11.67,26.02-26.02,0-.82.67-1.49,1.49-1.49ZM251.7,616.1c.82,0,1.49.67,1.49,1.49,0,12.67-10.31,22.99-22.99,22.99-.82,0-1.49-.67-1.49-1.49s.67-1.49,1.49-1.49c11.04,0,20.02-8.98,20.02-20.02,0-.82.67-1.49,1.49-1.49ZM190.92,619.07c-.82,0-1.49-.67-1.49-1.49,0-22.48,18.29-40.76,40.76-40.76.82,0,1.49.67,1.49,1.49s-.67,1.49-1.49,1.49c-20.84,0-37.79,16.95-37.79,37.79,0,.82-.66,1.49-1.49,1.49ZM196.8,619.07c-.82,0-1.49-.67-1.49-1.49,0-19.24,15.65-34.88,34.88-34.88.82,0,1.49.67,1.49,1.49s-.67,1.49-1.49,1.49c-17.6,0-31.91,14.32-31.91,31.91,0,.82-.66,1.49-1.49,1.49ZM202.7,619.07c-.82,0-1.49-.67-1.49-1.49,0-15.99,13-28.99,28.99-28.99.82,0,1.49.67,1.49,1.49s-.67,1.49-1.49,1.49c-14.35,0-26.02,11.67-26.02,26.02,0,.82-.67,1.49-1.49,1.49ZM208.7,619.07c-.82,0-1.49-.67-1.49-1.49,0-12.67,10.31-22.99,22.99-22.99.82,0,1.49.67,1.49,1.49s-.67,1.49-1.49,1.49c-11.04,0-20.02,8.98-20.02,20.02,0,.82-.67,1.49-1.49,1.49ZM215.4,617.58c0-8.16,6.64-14.8,14.8-14.8s14.8,6.64,14.8,14.8-6.64,14.8-14.8,14.8-14.8-6.64-14.8-14.8ZM230.2,658.35c-.82,0-1.49-.67-1.49-1.49s.67-1.49,1.49-1.49c20.84,0,37.79-16.95,37.79-37.79,0-.82.67-1.49,1.49-1.49s1.49.67,1.49,1.49c0,22.48-18.29,40.76-40.76,40.76Z" fill="#fff"/>
    <path d="M230.2,613.89c-2.04,0-3.69,1.66-3.69,3.69s1.66,3.69,3.69,3.69,3.69-1.66,3.69-3.69-1.66-3.69-3.69-3.69Z" fill="#fff"/>
    <path d="M340.84,570.04c-26.21,0-47.54,21.33-47.54,47.54s21.33,47.54,47.54,47.54,47.54-21.33,47.54-47.54-21.33-47.54-47.54-47.54ZM374.24,616.1c.82,0,1.49.67,1.49,1.49,0,19.24-15.65,34.88-34.88,34.88-.82,0-1.49-.67-1.49-1.49s.67-1.49,1.49-1.49c17.6,0,31.91-14.32,31.91-31.91,0-.82.66-1.49,1.49-1.49ZM368.35,616.1c.82,0,1.49.67,1.49,1.49,0,15.99-13,28.99-28.99,28.99-.82,0-1.49-.67-1.49-1.49s.67-1.49,1.49-1.49c14.35,0,26.02-11.67,26.02-26.02,0-.82.67-1.49,1.49-1.49ZM362.35,616.1c.82,0,1.49.67,1.49,1.49,0,12.67-10.31,22.99-22.99,22.99-.82,0-1.49-.67-1.49-1.49s.67-1.49,1.49-1.49c11.04,0,20.02-8.98,20.02-20.02,0-.82.67-1.49,1.49-1.49ZM301.57,619.07c-.82,0-1.49-.67-1.49-1.49,0-22.48,18.29-40.76,40.76-40.76.82,0,1.49.67,1.49,1.49s-.67,1.49-1.49,1.49c-20.84,0-37.79,16.95-37.79,37.79,0,.82-.66,1.49-1.49,1.49ZM307.45,619.07c-.82,0-1.49-.67-1.49-1.49,0-19.24,15.65-34.88,34.88-34.88.82,0,1.49.67,1.49,1.49s-.67,1.49-1.49,1.49c-17.6,0-31.91,14.32-31.91,31.91,0,.82-.66,1.49-1.49,1.49ZM313.34,619.07c-.82,0-1.49-.67-1.49-1.49,0-15.99,13-28.99,28.99-28.99.82,0,1.49.67,1.49,1.49s-.67,1.49-1.49,1.49c-14.35,0-26.02,11.67-26.02,26.02,0,.82-.67,1.49-1.49,1.49ZM319.34,619.07c-.82,0-1.49-.67-1.49-1.49,0-12.67,10.31-22.99,22.99-22.99.82,0,1.49.67,1.49,1.49s-.67,1.49-1.49,1.49c-11.04,0-20.02,8.98-20.02,20.02,0,.82-.67,1.49-1.49,1.49ZM326.04,617.58c0-8.16,6.64-14.8,14.8-14.8s14.8,6.64,14.8,14.8-6.64,14.8-14.8,14.8-14.8-6.64-14.8-14.8ZM340.84,658.35c-.82,0-1.49-.67-1.49-1.49s.67-1.49,1.49-1.49c20.84,0,37.79-16.95,37.79-37.79,0-.82.67-1.49,1.49-1.49s1.49.67,1.49,1.49c0,22.48-18.29,40.76-40.76,40.76Z" fill="#fff"/>
    <path d="M340.84,613.89c-2.04,0-3.69,1.66-3.69,3.69s1.66,3.69,3.69,3.69,3.69-1.66,3.69-3.69-1.66-3.69-3.69-3.69Z" fill="#fff"/>
    <path d="M451.49,568.56c-26.21,0-47.54,21.33-47.54,47.54s21.33,47.54,47.54,47.54,47.54-21.33,47.54-47.54-21.33-47.54-47.54-47.54ZM484.89,614.61c.82,0,1.49.67,1.49,1.49,0,19.24-15.65,34.88-34.88,34.88-.82,0-1.49-.67-1.49-1.49s.67-1.49,1.49-1.49c17.6,0,31.91-14.32,31.91-31.91,0-.82.66-1.49,1.49-1.49ZM478.99,614.61c.82,0,1.49.67,1.49,1.49,0,15.99-13,28.99-28.99,28.99-.82,0-1.49-.67-1.49-1.49s.67-1.49,1.49-1.49c14.35,0,26.02-11.67,26.02-26.02,0-.82.67-1.49,1.49-1.49ZM472.99,614.61c.82,0,1.49.67,1.49,1.49,0,12.67-10.31,22.99-22.99,22.99-.82,0-1.49-.67-1.49-1.49s.67-1.49,1.49-1.49c11.04,0,20.02-8.98,20.02-20.02,0-.82.67-1.49,1.49-1.49ZM412.21,617.58c-.82,0-1.49-.67-1.49-1.49,0-22.48,18.29-40.76,40.76-40.76.82,0,1.49.67,1.49,1.49s-.67,1.49-1.49,1.49c-20.84,0-37.79,16.95-37.79,37.79,0,.82-.66,1.49-1.49,1.49ZM418.09,617.58c-.82,0-1.49-.67-1.49-1.49,0-19.24,15.65-34.88,34.88-34.88.82,0,1.49.67,1.49,1.49s-.67,1.49-1.49,1.49c-17.6,0-31.91,14.32-31.91,31.91,0,.82-.66,1.49-1.49,1.49ZM423.99,617.58c-.82,0-1.49-.67-1.49-1.49,0-15.99,13-28.99,28.99-28.99.82,0,1.49.67,1.49,1.49s-.67,1.49-1.49,1.49c-14.35,0-26.02,11.67-26.02,26.02,0,.82-.67,1.49-1.49,1.49ZM429.99,617.58c-.82,0-1.49-.67-1.49-1.49,0-12.67,10.31-22.99,22.99-22.99.82,0,1.49.67,1.49,1.49s-.67,1.49-1.49,1.49c-11.04,0-20.02,8.98-20.02,20.02,0,.82-.67,1.49-1.49,1.49ZM436.69,616.1c0-8.16,6.64-14.8,14.8-14.8s14.8,6.64,14.8,14.8-6.64,14.8-14.8,14.8-14.8-6.64-14.8-14.8ZM451.49,656.86c-.82,0-1.49-.67-1.49-1.49s.67-1.49,1.49-1.49c20.84,0,37.79-16.95,37.79-37.79,0-.82.67-1.49,1.49-1.49s1.49.67,1.49,1.49c0,22.48-18.29,40.76-40.76,40.76Z" fill="#fff"/>
    <path d="M451.49,612.4c-2.04,0-3.69,1.66-3.69,3.69s1.66,3.69,3.69,3.69,3.69-1.66,3.69-3.69-1.66-3.69-3.69-3.69Z" fill="#fff"/>
    <rect x="201.21" y="538.93" width="57.98" height="17.19" fill="#fff"/>
    <rect x="311.85" y="538.93" width="57.98" height="17.19" fill="#fff"/>
    <rect x="422.5" y="538.93" width="57.98" height="17.19" fill="#fff"/>
    <rect x="201.21" y="675.19" width="57.98" height="17.19" fill="#fff"/>
    <rect x="311.85" y="675.19" width="57.98" height="17.19" fill="#fff"/>
    <rect x="422.5" y="675.19" width="57.98" height="17.19" fill="#fff"/>
  </g>
  <g id="uuid-67e1fd72-719c-471c-86f3-7354e3ea7c4a" data-name="Layer 4">
    <g>
      <path d="M571.04,437.47v57.82c3.83-.68,7.64-1.4,11.42-2.18v-67.45c-3.69,4.24-7.51,8.17-11.42,11.81Z" fill="#fff"/>
      <path d="M528.73.5c-3.16-.3-6.33-.5-9.57-.5-.95,0-1.9.08-2.85.11-1.7-.03-3.4-.11-5.14-.11C352.06,0,222.14,107.98,218.06,242.03h36.57c.71-20.47,4.78-40.24,11.74-58.93,7.06,1.62,33.68,7.25,83.19,11.9-2.5,15.16-4,30.88-4.32,47.03h36.54c.29-15.11,1.6-29.89,3.78-44.17,29.65,1.97,65.13,3.45,106.79,3.77v40.4h36.52v-40.38c41.9-.33,77.14-1.83,106.41-3.88,2.4,16.36,3.71,33.35,3.71,50.76,0,22.4-2.12,44.11-6.02,64.62-18.29-1.26-38.88-2.29-61.91-2.96v31c20.11.61,38.25,1.49,54.52,2.57-5.37,18.21-12.21,35.05-20.22,50.05h41.34c6.51-14.55,12.06-30.28,16.49-47.03,36.25,3.53,59,7.67,70.47,10.13-9.01,13.24-19.62,25.6-31.6,36.9h46.89c34.87-40.88,55.46-91.06,55.46-145.26,0-132.04-122.12-240.32-275.66-248.04ZM356.11,164.43c-41.43-3.81-66.26-8.29-76.19-10.33,28.99-50.79,80.6-90.65,143.68-110.1l.02-.02c-29.85,29.09-54.19,70.95-67.51,120.44ZM492.35,170.69c-39.07-.33-72.52-1.69-100.63-3.51,17.56-69.23,56.26-121.71,100.63-133.67v137.18ZM528.85,170.7V33.13c44.85,11.04,83.25,63.92,100.44,134.02-27.65,1.86-60.94,3.25-100.44,3.56ZM613.29,48.93c55.75,20.58,101.23,57.42,128.12,103.46h-.02c-5.52,1.46-28.6,7.04-74.88,11.67-10.32-46.57-28.97-86.38-53.22-115.13ZM669.77,316.21c3.69-21.45,5.72-44.11,5.72-67.68,0-18.58-1.26-36.56-3.6-53.88,56.59-5.75,81.39-12.97,83.03-13.47l-6.8-16.31c12.71,25.77,19.75,54.02,19.75,83.66s-6.44,55.22-18.05,80.01c-10.08-2.49-35.39-7.88-80.05-12.33Z" fill="#fff"/>
    </g>
  </g>
</svg>