<?xml version="1.0" encoding="UTF-8"?>
<svg id="uuid-c4907cc9-d6ef-4765-877e-92ee157888ac" data-name="Layer 1" xmlns="http://www.w3.org/2000/svg" width="1920" height="1097" xmlns:xlink="http://www.w3.org/1999/xlink" viewBox="0 0 1920 1097">
  <defs>
    <linearGradient id="uuid-bf101d03-6c32-475e-8900-f1f2f6aa282c" x1="1147.78" y1="263.55" x2="1920" y2="263.55" gradientUnits="userSpaceOnUse">
      <stop offset="0" stop-color="#040623"/>
      <stop offset=".59" stop-color="#050a37"/>
      <stop offset="1" stop-color="#060c3f"/>
    </linearGradient>
    <radialGradient id="uuid-9f6463f0-914d-429e-8cfc-32e362a31ce0" cx="978.28" cy="73.75" fx="959.33" fy="73.75" r="1239.98" gradientUnits="userSpaceOnUse">
      <stop offset=".17" stop-color="#060c3f"/>
      <stop offset=".19" stop-color="#050b3c"/>
      <stop offset=".36" stop-color="#04082d"/>
      <stop offset=".57" stop-color="#040625"/>
      <stop offset=".91" stop-color="#040623"/>
    </radialGradient>
    <radialGradient id="uuid-5a8ccc8b-248d-44e2-92cd-b3bae011ac32" cx="796.05" cy="116.78" fx="492.9" fy="53.65" r="1022.72" gradientUnits="userSpaceOnUse">
      <stop offset="0" stop-color="#040928"/>
      <stop offset=".54" stop-color="#030826"/>
      <stop offset=".74" stop-color="#03071f"/>
      <stop offset=".87" stop-color="#010413"/>
      <stop offset=".99" stop-color="#000002"/>
      <stop offset="1" stop-color="#000"/>
    </radialGradient>
    <linearGradient id="uuid-88d7c244-8a75-4fae-a22e-ed1616b12faa" x1="212.44" y1="206.66" x2="1069.73" y2="206.66" gradientUnits="userSpaceOnUse">
      <stop offset="0" stop-color="#091057"/>
      <stop offset="1" stop-color="#040623"/>
    </linearGradient>
    <linearGradient id="uuid-aba471c6-ec3a-4787-bdd6-0034f994e2dc" x1="0" y1="204.3" x2="962.68" y2="204.3" gradientUnits="userSpaceOnUse">
      <stop offset="0" stop-color="#060c3f"/>
      <stop offset="1" stop-color="#040623"/>
    </linearGradient>
    <radialGradient id="uuid-a6d10060-327a-417f-a0df-e84932cddf3b" cx="1334.46" cy="753.95" fx="1263.23" fy="689.29" r="431.26" gradientUnits="userSpaceOnUse">
      <stop offset=".04" stop-color="#091057"/>
      <stop offset=".34" stop-color="#080e4e"/>
      <stop offset=".4" stop-color="#080e4c"/>
      <stop offset=".76" stop-color="#050935"/>
      <stop offset="1" stop-color="#040623"/>
    </radialGradient>
    <radialGradient id="uuid-89752d57-378f-43b4-8d84-1aaffe95af4a" cx="1302.54" cy="889.85" fx="1292.94" fy="814.65" r="401.16" gradientUnits="userSpaceOnUse">
      <stop offset="0" stop-color="#091057"/>
      <stop offset=".26" stop-color="#070c44"/>
      <stop offset=".7" stop-color="#04072c"/>
      <stop offset=".96" stop-color="#040623"/>
    </radialGradient>
    <radialGradient id="uuid-48cec979-e9c6-4d47-b410-6bc5316da5a9" cx="860.86" cy="780.78" fx="1071.72" fy="809.21" r="623.4" gradientUnits="userSpaceOnUse">
      <stop offset="0" stop-color="#091057"/>
      <stop offset=".23" stop-color="#080e4d"/>
      <stop offset=".61" stop-color="#050933"/>
      <stop offset=".82" stop-color="#040623"/>
    </radialGradient>
    <radialGradient id="uuid-ddb811de-9b5d-4766-a4d6-df754c4fea3f" cx="695" cy="689.5" fx="585.66" fy="792.03" r="732.2" gradientUnits="userSpaceOnUse">
      <stop offset="0" stop-color="#091057"/>
      <stop offset=".51" stop-color="#050933"/>
      <stop offset=".82" stop-color="#040623"/>
    </radialGradient>
    <radialGradient id="uuid-8682caac-1666-49c8-82b2-1eb7d5d829e7" cx="386.5" cy="828.5" fx="343.27" fy="768.12" r="481.3" gradientUnits="userSpaceOnUse">
      <stop offset=".17" stop-color="#091057"/>
      <stop offset=".58" stop-color="#050933"/>
      <stop offset=".82" stop-color="#040623"/>
    </radialGradient>
    <linearGradient id="uuid-a117a167-b33c-4354-b52e-ca95b62bd0b4" x1="0" y1="852" x2="444.44" y2="852" gradientUnits="userSpaceOnUse">
      <stop offset="0" stop-color="#040623"/>
      <stop offset=".33" stop-color="#050937"/>
      <stop offset=".74" stop-color="#091057"/>
    </linearGradient>
  </defs>
  <rect x="-127.38" y="-138.47" width="2164" height="1372.67" fill="#040623"/>
  <path d="M1920,0v473c-182.3-17.95-373.21-366.15-470.44-472.16l470.44-.84Z" fill="#040623"/>
  <path d="M1920,473v54.11c-208.89-63.33-215.2-79.41-280.89-118C1519.78,339,1325.11,93.56,1147.78,0h203.05l98.73.84c97.23,106.01,288.14,454.21,470.44,472.16Z" fill="url(#uuid-bf101d03-6c32-475e-8900-f1f2f6aa282c)"/>
  <path d="M1920,527.11v284.89c-123.47-115.61-216.36-193.37-297.76-247.9h0c-141.54-159.7-617.13-304.32-758.46-354.32C722.71,159.88,634.12,92.04,531.7.52h-.01c-.19-.17-.39-.35-.58-.52h616.67c177.33,93.56,372,339,491.33,409.11,65.69,38.59,72,54.67,280.89,118Z" fill="url(#uuid-9f6463f0-914d-429e-8cfc-32e362a31ce0)"/>
  <path d="M1622.24,564.09c-94.62-63.4-173.7-95.44-267.24-119.09-73.02-18.47-177.58-26.36-285.27-31.68C612.25,291.24,426.16,44.07,396.53.14l135.16.38h.01c102.42,91.52,191.01,159.36,332.08,209.26,141.33,50,616.92,194.62,758.46,354.31Z" fill="url(#uuid-5a8ccc8b-248d-44e2-92cd-b3bae011ac32)"/>
  <path d="M1069.73,413.32h-.05c-10.62-.52-21.27-1.02-31.92-1.5-6.71-.31-13.42-.61-20.12-.89-.9-.05-1.8-.08-2.7-.12-.85-.04-1.69-.08-2.53-.11-.74-.03-1.47-.06-2.21-.1-6.98-.29-13.95-.59-20.91-.89-1.24-.05-2.48-.1-3.72-.15-7.65-.32-15.28-.64-22.88-.96h-.01C720.56,382.41,326.09,254.61,212.71.6c-.09-.2-.18-.4-.27-.6h137.06l47.03.14c29.63,43.93,215.72,291.1,673.2,413.18Z" fill="url(#uuid-88d7c244-8a75-4fae-a22e-ed1616b12faa)"/>
  <path d="M962.68,408.6c-112.15-4.71-217.37-9.48-282.68-23.6C532,353,240,320,0,0l212.71.6c113.38,254.01,507.85,381.81,749.97,408Z" fill="url(#uuid-aba471c6-ec3a-4787-bdd6-0034f994e2dc)"/>
  <path d="M1920,812v285l-.02-.03c-1.96-2.84-128.16-184.63-399.98-310.97-94.99-44.15-236.92-74.06-439.35-90.77-52.44-4.33-108.93-7.77-169.72-10.34h-.01c-19.19-.82-38.8-1.54-58.85-2.18t-.02,0c-4.56-.14-9.15-.28-13.76-.41-33.55-1-68.3-1.76-104.29-2.29-18.37-.27-37.37-1.63-56.9-4.03-146.69-18.05-322.87-95.02-479.39-211.41-8.13-6.91-16.29-13.94-24.64-21.25-8.69-6.06-17.53-12.35-26.57-18.83l-.03-.03s-.01-.01-.01-.01c-45.59-37.57-88.91-78.51-128.62-122.3-6.04-6.65-11.98-13.36-17.84-20.14V0c240,320,532,353,680,385,65.31,14.12,170.53,18.89,282.68,23.6h.01c7.6.32,15.23.64,22.88.96,1.24.05,2.48.1,3.72.15,6.96.3,13.93.6,20.91.89.74.04,1.47.07,2.21.1.84.03,1.68.07,2.53.11.9.04,1.8.07,2.7.12,6.7.29,13.41.58,20.12.89,10.65.48,21.3.98,31.92,1.5h.05c107.69,5.32,212.25,13.21,285.27,31.68,93.54,23.65,172.62,55.69,267.24,119.09h0c81.4,54.54,174.29,132.3,297.76,247.91Z" fill="#060c3f"/>
  <path d="M1920,1097h-167c-173-199-427.16-380.22-842.07-412.11,60.79,2.57,117.28,6.01,169.72,10.34,202.43,16.71,344.36,46.62,439.35,90.77,271.82,126.34,398.02,308.13,399.98,310.97l.02.03Z" fill="url(#uuid-a6d10060-327a-417f-a0df-e84932cddf3b)"/>
  <path d="M1753,1097h-229c-96-149-392.58-342.13-671.93-414.29,20.05.64,39.66,1.36,58.85,2.18h.01c414.91,31.89,669.07,213.11,842.07,412.11Z" fill="url(#uuid-89752d57-378f-43b4-8d84-1aaffe95af4a)"/>
  <path d="M1524,1097h-134s-157-151-334-210-566-198-709-305c-64.93-48.58-106.77-81.29-149.29-117.44,156.52,116.39,332.7,193.36,479.39,211.41,19.53,2.4,38.53,3.76,56.9,4.03,35.99.53,70.74,1.29,104.29,2.29,4.61.13,9.2.27,13.76.41t.02,0c279.35,72.16,575.93,265.29,671.93,414.29Z" fill="url(#uuid-48cec979-e9c6-4d47-b410-6bc5316da5a9)"/>
  <path d="M1390,1097h-617C477,948,439,692,0,560v-278c5.86,6.78,11.8,13.49,17.84,20.14,39.71,43.79,83.03,84.73,128.62,122.3,0,0,.01,0,.01.01l.03.03c9.04,6.48,17.88,12.77,26.57,18.83,8.35,7.31,16.51,14.34,24.64,21.25,42.52,36.15,84.36,68.86,149.29,117.44,143,107,532,246,709,305s334,210,334,210Z" fill="url(#uuid-ddb811de-9b5d-4766-a4d6-df754c4fea3f)"/>
  <path d="M773,1097h-328.56C314.44,847.11,169.11,695.78,0,607v-47c439,132,477,388,773,537Z" fill="url(#uuid-8682caac-1666-49c8-82b2-1eb7d5d829e7)"/>
  <path d="M444.44,1097H0v-490c169.11,88.78,314.44,240.11,444.44,490Z" fill="url(#uuid-a117a167-b33c-4354-b52e-ca95b62bd0b4)"/>
  <rect x="-127.38" y="-138.47" width="2164" height="1372.67" fill="#040623" opacity=".64"/>
</svg>