<?xml version="1.0" encoding="UTF-8"?>
<svg id="uuid-8d6bca14-073a-4c5d-afa0-70a013c4048a" data-name="Layer 1" xmlns="http://www.w3.org/2000/svg" width="438.86" height="210.61" viewBox="0 0 438.86 210.61">
  <path d="M243.92,0c-22.92,4.7-36.24,21.55-44.08,31.35h-91.1V0h135.18Z" fill="#223a72" fill-rule="evenodd"/>
  <path d="M134.55,179.27h24.15c12.9,0,37.06-10.9,48-24.49,10.94-13.59,72.83-93.67,93.06-117.55,1.74-2.05,3.51-4,5.32-5.88h73.05c-12.57,0-36.41,3.47-48.98,20.57-12.57,17.1-77.55,98.17-99.92,124.41-22.36,26.24-48.33,34.29-69.55,34.29h-92.08c20.41,0,45.19-7.45,66.95-31.35Z" fill="#223a72" fill-rule="evenodd"/>
  <path d="M0,179.27v31.35h67.59c21.22,0,47.19-8.04,69.55-34.29,22.36-26.24,87.35-107.31,99.92-124.41,12.57-17.1,36.41-20.57,48.98-20.57h152.82V0h-154.78c-28.08,0-54.94,11.88-76.41,37.22-20.23,23.89-82.12,103.96-93.06,117.55-10.94,13.59-35.1,24.49-48,24.49H0Z" fill="#213f7c" fill-rule="evenodd"/>
</svg>