<?xml version="1.0" encoding="UTF-8"?>
<svg xmlns="http://www.w3.org/2000/svg" width="778.81" height="779.63" viewBox="0 0 778.81 779.63">
  <g id="uuid-8521d1af-132b-4ac0-94a5-f66b5eab8071" data-name="Layer 1">
    <path d="M745.86,779.63h-345.9c-18.2,0-32.94-14.76-32.94-32.94v-395.32c0-18.2,14.74-32.94,32.94-32.94v395.32c0,18.18,14.76,32.94,32.94,32.94h65.89c18.2,0,32.94-14.76,32.94-32.94v-395.32h214.13c18.2,0,32.94,14.76,32.94,32.94v395.32c0,18.18-14.74,32.94-32.94,32.94ZM663.5,730.21h32.94v-32.94h-32.94v32.94ZM663.5,680.8h32.94v-32.94h-32.94v32.94ZM663.5,631.38h32.94v-32.94h-32.94v32.94ZM663.5,581.97h32.94v-32.94h-32.94v32.94ZM614.09,730.21h32.94v-32.94h-32.94v32.94ZM614.09,680.8h32.94v-32.94h-32.94v32.94ZM614.09,631.38h32.94v-32.94h-32.94v32.94ZM614.09,581.97h32.94v-32.94h-32.94v32.94ZM745.86,367.84c0-9.11-7.36-16.47-16.47-16.47h-148.24c-9.09,0-16.47,7.36-16.47,16.47v65.89c0,9.09,7.38,16.47,16.47,16.47h148.24c9.11,0,16.47-7.38,16.47-16.47v-65.89ZM745.86,549.03h-32.94v32.94h32.94v-32.94ZM745.86,598.44h-32.94v32.94h32.94v-32.94ZM745.86,647.86h-32.94v32.94h32.94v-32.94ZM745.86,697.27h-32.94v32.94h32.94v-32.94ZM498.79,730.21h-65.89c-9.09,0-16.47-7.36-16.47-16.47v-411.79c0-9.11,7.38-16.47,16.47-16.47h31.92v-32.94h17.49v32.94h16.47c9.09,0,16.47,7.36,16.47,16.47v411.79c0,9.11-7.38,16.47-16.47,16.47Z" fill="#fff"/>
  </g>
  <g id="uuid-c852d5d2-5112-4a6b-9f72-22b7568424c5" data-name="Layer 2">
    <g>
      <path d="M685.11,62.19c15.87,0,28.78-12.91,28.78-28.78s-12.91-28.78-28.78-28.78-28.78,12.91-28.78,28.78,12.91,28.78,28.78,28.78Z" fill="#fff"/>
      <path d="M532.58,47.27c1.66-1.98,3.8-3.39,6.18-4.24l-27.56-2.41c-1.27-.13-2.52.28-3.5,1.11-.97.82-1.58,1.99-1.69,3.25l-17.56,200.7c-.23,2.64,1.72,4.96,4.36,5.19l53.75,4.71-17.31-197.8c-.34-3.77.87-7.61,3.32-10.51Z" fill="#fff"/>
      <path d="M766.63,239.26l-17.56-200.7c-.24-2.64-2.56-4.61-5.19-4.36l-20.54,1.79c-1.33,19.95-17.95,35.79-38.24,35.79-8.86,0-17-3.03-23.5-8.1l-16.28,16.29c-.94.94-2.16,1.41-3.39,1.41s-2.46-.47-3.39-1.41c-1.88-1.88-1.88-4.91,0-6.78l16.29-16.29c-3.23-4.17-5.64-9.02-6.94-14.3l-104.71,9.16c-1.27.12-2.44.72-3.26,1.7-.82.97-1.22,2.23-1.1,3.5l17.56,200.7c.22,2.49,2.31,4.38,4.77,4.38.14,0,.28,0,.42-.02l200.7-17.56c2.64-.23,4.59-2.56,4.36-5.19ZM724.47,166.4c.24,2.64-1.72,4.97-4.36,5.2l-9.56.84c-.14.01-.28.02-.43.02-2.46,0-4.55-1.88-4.77-4.37-.23-2.64,1.72-4.97,4.36-5.2l9.56-.84c2.72-.22,4.96,1.73,5.2,4.36ZM721.96,137.73c.23,2.64-1.72,4.96-4.36,5.19l-33.45,2.93c-.14.01-.28.02-.42.02-2.46,0-4.56-1.88-4.78-4.38-.23-2.64,1.72-4.96,4.37-5.19l33.45-2.93c2.63-.24,4.96,1.72,5.19,4.36ZM691.44,174.11l-47.79,4.18c-.14.01-.28.02-.42.02-2.46,0-4.56-1.89-4.77-4.38-.23-2.64,1.72-4.96,4.36-5.19l47.79-4.18c2.62-.22,4.96,1.72,5.19,4.36.23,2.64-1.72,4.96-4.36,5.2ZM699.92,105.96l14.33-1.26c2.62-.25,4.96,1.73,5.19,4.36.23,2.64-1.72,4.97-4.36,5.19l-14.34,1.26c-.14.01-.28.02-.42.02-2.46,0-4.55-1.89-4.77-4.38-.23-2.64,1.72-4.96,4.37-5.19ZM647.36,110.56l33.44-2.93c2.62-.24,4.96,1.72,5.19,4.36.23,2.64-1.72,4.96-4.36,5.19l-33.45,2.93c-.14.01-.28.02-.42.02-2.46,0-4.55-1.89-4.77-4.38-.22-2.64,1.72-4.96,4.37-5.19ZM580.87,121.19c-.23-2.64,1.72-4.96,4.36-5.19l43.01-3.76c2.59-.24,4.96,1.72,5.19,4.36.23,2.63-1.72,4.96-4.36,5.19l-43.01,3.76c-.14.01-.28.02-.42.02-2.46,0-4.55-1.89-4.77-4.38ZM583.39,149.86c-.23-2.64,1.72-4.96,4.36-5.19l14.33-1.25c2.66-.22,4.96,1.72,5.19,4.36.23,2.63-1.72,4.96-4.36,5.19l-14.33,1.25c-.14.01-.28.02-.42.02-2.46,0-4.55-1.88-4.77-4.38ZM607.93,210.31l-14.33,1.26c-.14,0-.28.01-.42.01-2.46,0-4.56-1.88-4.77-4.38-.23-2.63,1.72-4.96,4.36-5.19l14.33-1.25c2.59-.24,4.96,1.72,5.19,4.36.23,2.64-1.72,4.96-4.36,5.2ZM614.98,180.8l-23.9,2.09c-.14.01-.28.02-.42.02-2.46,0-4.56-1.89-4.77-4.38-.23-2.64,1.72-4.96,4.36-5.19l23.9-2.09c2.64-.24,4.97,1.73,5.19,4.36.23,2.64-1.72,4.97-4.36,5.2ZM616.83,146.93c-.23-2.64,1.72-4.96,4.36-5.19l33.45-2.93c2.61-.26,4.96,1.72,5.19,4.36.23,2.64-1.72,4.96-4.36,5.19l-33.45,2.93c-.14.01-.28.02-.42.02-2.46,0-4.55-1.89-4.77-4.38ZM646.16,206.96l-19.12,1.67c-.14.01-.28.02-.42.02-2.46,0-4.55-1.89-4.77-4.38-.23-2.64,1.72-4.96,4.36-5.19l19.12-1.67c2.66-.23,4.96,1.73,5.19,4.37.23,2.63-1.72,4.96-4.36,5.2ZM722.62,200.27l-47.79,4.18c-.14.01-.28.02-.42.02-2.46,0-4.55-1.89-4.77-4.38-.23-2.64,1.72-4.96,4.36-5.19l47.79-4.18c2.64-.25,4.96,1.72,5.19,4.36.23,2.64-1.72,4.97-4.36,5.2Z" fill="#fff"/>
    </g>
  </g>
  <g id="uuid-dcb9e6c5-dd9d-4f9e-8d39-1ecba9cf6367" data-name="Layer 3">
    <path d="M233.52,1.37c-1.42-1.08-3.21-1.55-4.97-1.31L9,30.07c-3.67.5-6.25,3.89-5.74,7.56l52.75,385.87c.5,3.67,3.89,6.25,7.56,5.74l279.42-38.2c3.67-.5,6.25-3.89,5.74-7.56l-44.56-325.99c-.24-1.76-1.17-3.36-2.59-4.44L233.52,1.37ZM113.68,151.31l106.45-14.55c3.67-.5,7.06,2.07,7.56,5.74s-2.07,7.06-5.74,7.56l-106.45,14.55c-3.67.5-7.06-2.07-7.56-5.74s2.07-7.06,5.74-7.56ZM243.77,309.73l-106.45,14.55c-3.67.5-7.06-2.07-7.56-5.74s2.07-7.06,5.74-7.56l106.45-14.55c3.67-.5,7.06,2.07,7.56,5.74s-2.07,7.06-5.74,7.56ZM264.93,266.18l-159.67,21.83c-3.67.5-7.06-2.07-7.56-5.74s2.07-7.06,5.74-7.56l159.67-21.83c3.67-.5,7.06,2.07,7.56,5.74s-2.07,7.06-5.74,7.56ZM118.85,238.71c-.5-3.67,2.07-7.06,5.74-7.56l106.45-14.55c3.67-.5,7.06,2.07,7.56,5.74s-2.07,7.06-5.74,7.56l-106.45,14.55c-3.67.5-7.06-2.07-7.56-5.74ZM254.01,186.34l-159.67,21.83c-3.67.5-7.06-2.07-7.56-5.74s2.07-7.06,5.74-7.56l159.67-21.83c3.67-.5,7.06,2.07,7.56,5.74s-2.07,7.06-5.74,7.56ZM243.39,59.03l-5.08-37.16,42.24,32.08-37.16,5.08Z" fill="#fff"/>
    <g>
      <path d="M18.61,684.66l-12.75,10.92c-7.03,6.02-7.85,16.64-1.83,23.67l4.37,5.1c6.02,7.03,16.64,7.85,23.67,1.83l12.75-10.92c2.41,2.81,6.65,3.14,9.47.73l1.95-1.67,23.84,10.05c.32.13.64.11.97.19.46.12.91.27,1.38.28.45.02.86-.08,1.29-.15.41-.06.83-.1,1.23-.24.46-.16.85-.45,1.27-.71.28-.17.58-.25.83-.46l66.29-56.79c2.81-2.41,3.14-6.65.73-9.47s-6.65-3.14-9.47-.73l-63.14,54.09-13.84-5.83,129.44-110.88-34.95-40.8-142.79,122.32c-2.81,2.41-3.14,6.65-.73,9.47ZM27.35,694.86l8.74,10.2-12.75,10.92c-1.41,1.21-3.53,1.04-4.73-.37l-4.37-5.1c-1.21-1.41-1.04-3.53.37-4.73l12.75-10.92Z" fill="#fff"/>
      <rect x="208.83" y="518.51" width="53.72" height="13.43" transform="translate(-9.85 1045.92) rotate(-130.58)" fill="#fff"/>
      <rect x="229.23" y="501.04" width="53.72" height="13.43" transform="translate(37.09 1032.57) rotate(-130.58)" fill="#fff"/>
      <rect x="188.44" y="535.98" width="53.72" height="13.43" transform="translate(-56.79 1059.27) rotate(-130.58)" fill="#fff"/>
      <path d="M307.01,481.36c1.49-2.48,1.23-5.63-.66-7.83l5.1-4.37c2.81-2.41,3.15-6.65.73-9.47s-6.65-3.14-9.47-.73l-5.1,4.37c-1.88-2.19-4.95-2.93-7.63-1.85l-34.85,14.18,32.51,37.95,19.37-32.26Z" fill="#fff"/>
      <rect x="168.04" y="553.46" width="53.72" height="13.43" transform="translate(-103.73 1072.62) rotate(-130.58)" fill="#fff"/>
    </g>
  </g>
</svg>