<?xml version="1.0" encoding="UTF-8"?>
<svg id="uuid-8a34e82d-fb78-47a2-b4da-198b687daf26" data-name="Layer 1" xmlns="http://www.w3.org/2000/svg" width="424.82" height="68.54" viewBox="0 0 424.82 68.54">
  <path d="M0,34.27C0,17.76,8.55,5.68,22.4,0v10.39c-7.3,4.42-12.01,11.87-12.01,23.88s4.72,19.46,12.01,23.88v10.39C8.55,62.87,0,50.78,0,34.27Z" fill="#fff"/>
  <path d="M38.62,48.46h-19.9v-9.58l19.9-29.19h11.06v28.82h4.13v9.95h-4.13v9.43h-11.06v-9.43ZM38.98,38.51v-13.78l-8.84,13.78h8.84Z" fill="#fff"/>
  <path d="M56.52,44.04c0-5.6,2.73-9.51,7.52-11.5v-.15c-3.91-1.92-5.97-5.38-5.97-10.17,0-8.11,6.12-13.49,15.7-13.49s15.7,5.38,15.7,13.49c0,4.79-2.14,8.25-5.97,10.17v.15c4.79,1.99,7.52,5.9,7.52,11.5,0,8.99-6.93,14.81-17.25,14.81s-17.25-5.82-17.25-14.81ZM80.03,42.93c0-3.76-2.21-5.82-6.19-5.82h-.15c-3.98,0-6.19,2.06-6.19,5.82s2.21,5.82,6.26,5.82,6.26-2.06,6.26-5.82ZM73.84,27.9c3.1,0,4.64-1.92,4.64-4.57s-1.55-4.57-4.72-4.57-4.72,1.92-4.72,4.57,1.55,4.57,4.64,4.57h.15Z" fill="#fff"/>
  <path d="M93.61,41.53v-15.48c0-10.47,7.08-17.32,17.25-17.32s17.25,6.85,17.25,17.32v15.48c0,10.47-7.08,17.32-17.25,17.32s-17.25-6.85-17.25-17.32ZM117.05,41.53v-15.48c0-4.42-2.21-7-6.19-7s-6.19,2.58-6.19,7v15.48c0,4.42,2.21,7,6.19,7s6.19-2.58,6.19-7Z" fill="#fff"/>
  <path d="M127.56,58.15c7.3-4.42,12.01-11.87,12.01-23.88s-4.72-19.46-12.01-23.88V0c13.86,5.68,22.4,17.76,22.4,34.27s-8.55,28.6-22.4,34.27v-10.39Z" fill="#fff"/>
  <path d="M179.94,19.64h-19.68v-9.95h31.62v9.58l-18.2,38.62h-12.01l18.28-38.25Z" fill="#fff"/>
  <path d="M193.34,41.53v-15.48c0-10.47,7.08-17.32,17.25-17.32s17.25,6.85,17.25,17.32v15.48c0,10.47-7.08,17.32-17.25,17.32s-17.25-6.85-17.25-17.32ZM216.78,41.53v-15.48c0-4.42-2.21-7-6.19-7s-6.19,2.58-6.19,7v15.48c0,4.42,2.21,7,6.19,7s6.19-2.58,6.19-7Z" fill="#fff"/>
  <path d="M229.44,44.04c0-5.6,2.73-9.51,7.52-11.5v-.15c-3.91-1.92-5.97-5.38-5.97-10.17,0-8.11,6.12-13.49,15.7-13.49s15.7,5.38,15.7,13.49c0,4.79-2.14,8.25-5.97,10.17v.15c4.79,1.99,7.52,5.9,7.52,11.5,0,8.99-6.93,14.81-17.25,14.81s-17.25-5.82-17.25-14.81ZM252.95,42.93c0-3.76-2.21-5.82-6.19-5.82h-.15c-3.98,0-6.19,2.06-6.19,5.82s2.21,5.82,6.26,5.82,6.26-2.06,6.26-5.82ZM246.76,27.9c3.1,0,4.64-1.92,4.64-4.57s-1.55-4.57-4.72-4.57-4.72,1.92-4.72,4.57,1.55,4.57,4.64,4.57h.15Z" fill="#fff"/>
  <path d="M269.2,31.62c0-2.49,2.04-4.53,4.53-4.53s4.53,2.04,4.53,4.53-2.04,4.53-4.53,4.53-4.53-2.04-4.53-4.53Z" fill="#fff"/>
  <path d="M284.07,44.39h11.35c.59,2.87,2.65,4.94,5.9,4.94,3.83,0,6.04-2.58,6.04-7.22,0-3.91-2.21-6.49-6.04-6.49-2.73,0-4.57,1.4-5.53,3.54l-9.88-3.02,3.39-25.65h25.65v9.95h-17.1l-1.33,8.84c1.77-2.14,4.05-3.1,7.37-3.1,7.74,0,14.67,6.04,14.67,15.92,0,10.61-7.08,17.54-17.25,17.54-9.58,0-16.58-6.34-17.25-15.26Z" fill="#fff"/>
  <path d="M319.57,49.1l15.26-15.55c2.8-2.8,4.72-5.53,4.72-8.25,0-3.17-1.33-5.45-4.42-5.45s-4.42,2.21-4.42,5.53v1.03h-11.05v-.66c0-9.88,5.9-16.21,15.55-16.21s15.55,6.71,15.55,15.85c0,6.12-2.88,9.95-7.59,14.59l-8.99,8.77h15.99v9.95h-30.59v-9.58Z" fill="#fff"/>
  <path d="M353.72,42.32v-15.48c0-10.47,7.08-17.32,17.25-17.32s17.25,6.85,17.25,17.32v15.48c0,10.47-7.08,17.32-17.25,17.32s-17.25-6.85-17.25-17.32ZM377.16,42.32v-15.48c0-4.42-2.21-7-6.19-7s-6.19,2.58-6.19,7v15.48c0,4.42,2.21,7,6.19,7s6.19-2.58,6.19-7Z" fill="#fff"/>
  <path d="M409.64,49.25h-19.9v-9.58l19.9-29.19h11.05v28.82h4.13v9.95h-4.13v9.43h-11.05v-9.43ZM410.01,39.3v-13.78l-8.84,13.78h8.84Z" fill="#fff"/>
</svg>