<?xml version="1.0" encoding="UTF-8"?>
<svg id="uuid-5b7d7c3f-7bc2-4ab5-9b84-271e29a9f049" data-name="Layer 1" xmlns="http://www.w3.org/2000/svg" width="346.38" height="265.4" viewBox="0 0 346.38 265.4">
  <g id="uuid-9fcdee58-5ed0-4d10-aac7-c4447a8a13e3" data-name="OBJECTS">
    <g>
      <polygon points="158.7 260.44 155.44 260.44 155.44 265.4 334.14 265.4 334.14 260.44 330.87 260.44 158.7 260.44"/>
      <path d="M206.1,233.28c0-1.29-1.05-2.34-2.34-2.34s-2.33,1.05-2.33,2.34,1.05,2.34,2.33,2.34c1.29,0,2.34-1.05,2.34-2.34Z"/>
      <rect x="231.81" y="124.96" width="25.46" height="27.4"/>
      <polygon points="326.37 114.75 286.35 114.75 307.86 133.05 284.57 133.03 279.29 128.31 279.68 165.2 209.91 165.2 209.91 128.23 204.56 133.03 181.26 133.05 202.77 114.75 166.91 114.75 163.2 114.75 143.2 184.68 346.38 184.68 326.37 114.75"/>
      <polygon points="202.58 131.03 244.56 94.58 286.54 131.03 302.42 131.04 244.57 81.84 244.56 81.85 244.55 81.84 186.7 131.04 202.58 131.03"/>
      <rect x="232.2" y="199.22" width="27.53" height="36.01"/>
      <rect x="284.07" y="199.22" width="27.53" height="36.01"/>
      <path d="M155.44,257.99h23.7v-56.4c0-2.11,1.71-3.82,3.82-3.82h21.04c2.11,0,3.82,1.71,3.82,3.82v56.4h126.32v-70.87h-178.7v70.87ZM281.65,196.8h32.38v47.31h-32.38v-47.31ZM229.78,196.8h32.38v47.31h-32.38v-47.31Z"/>
    </g>
  </g>
</svg>