<?xml version="1.0" encoding="UTF-8"?>
<svg xmlns="http://www.w3.org/2000/svg" width="800" height="778.88" viewBox="0 0 800 778.88">
  <g id="uuid-9b4af2d5-6b76-4bda-a06f-2feacfde8aaa" data-name="Layer 1">
    <path d="M425.57,438.14h-39.58v-5.68c0-9.41-7.59-17.04-16.96-17.04s-16.96,7.63-16.96,17.04v5.68h-169.62v-5.68c0-9.41-7.59-17.04-16.96-17.04s-16.96,7.63-16.96,17.04v5.68h-39.58c-12.5,0-22.62,10.16-22.62,22.72v295.31c0,12.56,10.12,22.72,22.62,22.72h316.63c12.5,0,22.62-10.16,22.62-22.72v-295.31c0-12.56-10.12-22.72-22.62-22.72ZM188.1,716.41c0,3.14-2.53,5.68-5.65,5.68h-33.92c-3.13,0-5.65-2.54-5.65-5.68v-28.4c0-3.14,2.53-5.68,5.65-5.68h33.92c3.13,0,5.65,2.54,5.65,5.68v28.4ZM188.1,653.94c0,3.14-2.53,5.68-5.65,5.68h-33.92c-3.13,0-5.65-2.54-5.65-5.68v-28.4c0-3.14,2.53-5.68,5.65-5.68h33.92c3.13,0,5.65,2.54,5.65,5.68v28.4ZM188.1,591.47c0,3.14-2.53,5.68-5.65,5.68h-33.92c-3.13,0-5.65-2.54-5.65-5.68v-28.4c0-3.14,2.53-5.68,5.65-5.68h33.92c3.13,0,5.65,2.54,5.65,5.68v28.4ZM255.95,716.41c0,3.14-2.53,5.68-5.65,5.68h-33.92c-3.13,0-5.65-2.54-5.65-5.68v-28.4c0-3.14,2.53-5.68,5.65-5.68h33.92c3.13,0,5.65,2.54,5.65,5.68v28.4ZM255.95,653.94c0,3.14-2.53,5.68-5.65,5.68h-33.92c-3.13,0-5.65-2.54-5.65-5.68v-28.4c0-3.14,2.53-5.68,5.65-5.68h33.92c3.13,0,5.65,2.54,5.65,5.68v28.4ZM255.95,591.47c0,3.14-2.53,5.68-5.65,5.68h-33.92c-3.13,0-5.65-2.54-5.65-5.68v-28.4c0-3.14,2.53-5.68,5.65-5.68h33.92c3.13,0,5.65,2.54,5.65,5.68v28.4ZM323.8,716.41c0,3.14-2.53,5.68-5.65,5.68h-33.92c-3.13,0-5.65-2.54-5.65-5.68v-28.4c0-3.14,2.53-5.68,5.65-5.68h33.92c3.13,0,5.65,2.54,5.65,5.68v28.4ZM323.8,653.94c0,3.14-2.53,5.68-5.65,5.68h-33.92c-3.13,0-5.65-2.54-5.65-5.68v-28.4c0-3.14,2.53-5.68,5.65-5.68h33.92c3.13,0,5.65,2.54,5.65,5.68v28.4ZM323.8,591.47c0,3.14-2.53,5.68-5.65,5.68h-33.92c-3.13,0-5.65-2.54-5.65-5.68v-28.4c0-3.14,2.53-5.68,5.65-5.68h33.92c3.13,0,5.65,2.54,5.65,5.68v28.4ZM391.65,653.94c0,3.14-2.53,5.68-5.65,5.68h-33.92c-3.13,0-5.65-2.54-5.65-5.68v-28.4c0-3.14,2.53-5.68,5.65-5.68h33.92c3.13,0,5.65,2.54,5.65,5.68v28.4ZM391.65,591.47c0,3.14-2.53,5.68-5.65,5.68h-33.92c-3.13,0-5.65-2.54-5.65-5.68v-28.4c0-3.14,2.53-5.68,5.65-5.68h33.92c3.13,0,5.65,2.54,5.65,5.68v28.4ZM436.88,500.61H97.64v-39.75c0-6.27,5.07-11.36,11.31-11.36h39.58v22.72c0,9.41,7.59,17.04,16.96,17.04s16.96-7.63,16.96-17.04v-22.72h169.62v22.72c0,9.41,7.59,17.04,16.96,17.04s16.96-7.63,16.96-17.04v-22.72h39.58c6.24,0,11.31,5.09,11.31,11.36v39.75Z" fill="#fff"/>
  </g>
  <g id="uuid-7fb8b3be-d07c-41c0-9fe3-3e760cd6204f" data-name="Layer 2">
    <path d="M777.23,30.61h-273.26c-12.56,0-22.78,10.22-22.78,22.79v537.07c0,12.56,10.22,22.78,22.78,22.78h273.26c12.56,0,22.77-10.22,22.77-22.78V53.39c0-12.56-10.21-22.79-22.77-22.79ZM618.25,564.21c0-12.35,9.99-22.35,22.34-22.35s22.34,10.01,22.34,22.35-9.97,22.35-22.34,22.35-22.34-10-22.34-22.35ZM498.49,525.9V101.45h284.21v424.45h-284.21Z" fill="#fff"/>
  </g>
  <g id="uuid-35b3bdf0-e8dc-4311-9adf-c012249985df" data-name="Layer 3">
    <path d="M431.72,0H27.62C12.42,0,0,12.42,0,27.62v349.04c0,15.2,12.42,27.62,27.62,27.62h404.1c15.2,0,27.62-12.42,27.62-27.62V27.62c0-15.2-12.42-27.62-27.62-27.62ZM362.76,18.35c10.01,0,18.35,8.34,18.35,18.35s-8.34,18.35-18.35,18.35-18.35-8.34-18.35-18.35,8.34-18.35,18.35-18.35ZM312.34,18.35c10.01,0,18.35,8.34,18.35,18.35s-8.34,18.35-18.35,18.35-18.35-8.34-18.35-18.35,8.16-18.35,18.35-18.35ZM443.21,379.82H16.13V73.41h427.08v306.41ZM413.37,55.05c-10.01,0-18.35-8.34-18.35-18.35s8.34-18.35,18.35-18.35,18.35,8.34,18.35,18.35-8.34,18.35-18.35,18.35ZM52.83,87.47h351.83v66.25H52.83v-66.25ZM511.89,120.59h257.42v66.25h-257.42v-66.25ZM195.32,176.56h209.15v26.51h-209.15v-26.51ZM649.78,203.07h117.73v26.51h-117.73v-26.51ZM649.78,255.34h117.73v26.51h-117.73v-26.51ZM649.78,308.67h117.73v26.51h-117.73v-26.51ZM511.89,362.01h255.62v26.51h-255.62v-26.51ZM511.89,415.42h255.62v26.51h-255.62v-26.51ZM511.89,468.39h255.62v26.51h-255.62v-26.51ZM195.32,229.58h209.15v26.51h-209.15v-26.51ZM195.32,283.33h209.15v26.51h-209.15v-26.51ZM52.83,336.35h351.83v26.51H52.83v-26.51ZM52.83,176.56h125.68v131.05H52.83v-131.05ZM511.89,203.07h125.68v131.05h-125.68v-131.05Z" fill="#fff"/>
  </g>
</svg>