<?xml version="1.0" encoding="UTF-8"?>
<svg id="uuid-71e4d2c7-d6fc-42f4-9005-5f7c154c59de" data-name="Capa 1" xmlns="http://www.w3.org/2000/svg" width="800" height="799.85" viewBox="0 0 800 799.85">
  <g>
    <path d="M786.67,773.19V253.19h-160v520h-40v-413.33h-160v413.33h-40v-306.67h-160v306.67h-40v-186.67H26.67v186.67h-13.33c-7.36,0-13.33,5.96-13.33,13.33s5.97,13.33,13.33,13.33h773.33c7.36,0,13.33-5.96,13.33-13.33s-5.97-13.33-13.33-13.33Z" fill="#fff"/>
    <path d="M467.31,41.35c-8.17-22.84-33.3-34.73-56.14-26.57-22.84,8.17-34.73,33.29-26.57,56.14,4.09,11.43,12.43,20.12,22.61,24.92l-28.85,126.08c-6.19-.23-12.52.6-18.7,2.81-12.45,4.45-21.94,13.39-27.56,24.28l-108.53-32.1c.3-5.28-.42-10.69-2.31-15.97-7.58-21.2-30.92-32.24-52.13-24.66-21.2,7.58-32.24,30.91-24.66,52.12,1.54,4.3,3.85,8.05,6.53,11.44l-70.02,88.69c-12.39-4.87-26.51-5.49-40.02-.66-29.67,10.61-45.13,43.26-34.51,72.95s43.27,45.14,72.94,34.53c29.68-10.61,45.13-43.27,34.51-72.95-3.47-9.72-9.34-17.87-16.66-24.11l68.44-86.65c9.37,4.36,20.4,5.2,30.9,1.44,9.5-3.4,16.8-10.04,21.47-18.17l108.71,32.18c-.71,7.18-.04,14.57,2.55,21.82,9.33,26.09,38.05,39.68,64.14,30.35,26.09-9.33,39.69-38.05,30.36-64.14-4.84-13.52-14.92-23.59-27.11-28.95l28.9-126.26c5.03.04,10.15-.63,15.15-2.42,22.84-8.16,34.72-33.28,26.55-56.12Z" fill="#fff"/>
  </g>
  <path d="M719,135.89c0,19.94-14.13,36.98-39.91,41.46v22.86h-21.97v-21.27c-15.03-.68-29.6-4.73-38.12-9.64l6.73-26.24c9.42,5.17,22.64,9.87,37.22,9.87,12.78,0,21.52-4.94,21.52-13.91s-7.17-13.93-23.77-19.52c-23.98-8.08-40.36-19.28-40.36-41.01,0-19.74,13.91-35.19,37.9-39.91v-21.29h21.97v19.73c15.02.67,25.13,3.8,32.51,7.39l-6.5,25.35c-5.81-2.47-16.13-7.64-32.28-7.64-14.58,0-19.28,6.27-19.28,12.56,0,7.39,7.85,12.09,26.9,19.28,26.7,9.41,37.45,21.74,37.45,41.93Z" fill="#fff"/>
  <path d="M800,81.83c0,13.76-9.75,25.52-27.54,28.61v15.77h-15.16v-14.68c-10.37-.47-20.42-3.26-26.3-6.65l4.64-18.1c6.5,3.56,15.62,6.81,25.68,6.81,8.82,0,14.85-3.41,14.85-9.6s-4.95-9.61-16.4-13.47c-16.54-5.57-27.85-13.3-27.85-28.3,0-13.62,9.6-24.28,26.15-27.54V0h15.16v13.61c10.36.46,17.34,2.62,22.43,5.1l-4.49,17.49c-4.01-1.71-11.13-5.27-22.27-5.27-10.06,0-13.31,4.33-13.31,8.67,0,5.1,5.42,8.34,18.56,13.31,18.42,6.49,25.84,15,25.84,28.93Z" fill="#fff"/>
  <path d="M600,127.48c0,13.76-9.75,25.52-27.54,28.61v15.77h-15.16v-14.68c-10.37-.47-20.42-3.26-26.3-6.65l4.64-18.1c6.5,3.56,15.62,6.81,25.68,6.81,8.82,0,14.85-3.41,14.85-9.6s-4.95-9.61-16.4-13.47c-16.54-5.57-27.85-13.3-27.85-28.3,0-13.62,9.6-24.28,26.15-27.54v-14.69h15.16v13.61c10.36.46,17.34,2.62,22.43,5.1l-4.49,17.49c-4.01-1.71-11.13-5.27-22.27-5.27-10.06,0-13.31,4.33-13.31,8.67,0,5.1,5.42,8.34,18.56,13.31,18.42,6.49,25.84,15,25.84,28.93Z" fill="#fff"/>
</svg>