<?xml version="1.0" encoding="UTF-8"?>
<svg id="uuid-c79dc8d0-7493-44db-8116-2e625551dfee" xmlns="http://www.w3.org/2000/svg" width="800" height="800" version="1.1" viewBox="0 0 800 800">
  <!-- Generator: Adobe Illustrator 30.1.0, SVG Export Plug-In . SVG Version: 2.1.1 Build 136)  -->
  <defs>
    <style>
      .st0 {
        fill: #fff;
      }
    </style>
  </defs>
  <path class="st0" d="M400,204.35c-107.88,0-195.65,87.77-195.65,195.65s87.77,195.65,195.65,195.65,195.65-87.77,195.65-195.65-87.77-195.65-195.65-195.65ZM537.45,393.89c3.37,0,6.11,2.74,6.11,6.11,0,79.16-64.4,143.57-143.57,143.57-3.37,0-6.11-2.74-6.11-6.11s2.74-6.11,6.11-6.11c72.42,0,131.34-58.92,131.34-131.34,0-3.37,2.73-6.11,6.11-6.11h0ZM513.19,393.89c3.37,0,6.11,2.74,6.11,6.11,0,65.79-53.52,119.31-119.31,119.31-3.37,0-6.11-2.74-6.11-6.11s2.74-6.11,6.11-6.11c59.04,0,107.08-48.04,107.08-107.08,0-3.37,2.74-6.11,6.11-6.11ZM488.49,393.89c3.37,0,6.11,2.74,6.11,6.11,0,52.16-42.44,94.6-94.6,94.6-3.37,0-6.11-2.74-6.11-6.11s2.74-6.11,6.11-6.11c45.42,0,82.37-36.95,82.37-82.37,0-3.37,2.74-6.11,6.11-6.11h0ZM238.36,406.11c-3.37,0-6.11-2.74-6.11-6.11,0-92.5,75.26-167.76,167.76-167.76,3.37,0,6.11,2.74,6.11,6.11s-2.74,6.11-6.11,6.11c-85.76,0-155.53,69.77-155.53,155.53,0,3.37-2.73,6.11-6.11,6.11ZM262.55,406.11c-3.37,0-6.11-2.74-6.11-6.11,0-79.16,64.4-143.57,143.57-143.57,3.37,0,6.11,2.74,6.11,6.11s-2.74,6.11-6.11,6.11c-72.42,0-131.34,58.92-131.34,131.34,0,3.37-2.73,6.11-6.11,6.11ZM286.81,406.11c-3.37,0-6.11-2.74-6.11-6.11,0-65.79,53.52-119.31,119.31-119.31,3.37,0,6.11,2.74,6.11,6.11s-2.74,6.11-6.11,6.11c-59.04,0-107.08,48.04-107.08,107.08,0,3.37-2.74,6.11-6.11,6.11ZM311.51,406.11c-3.37,0-6.11-2.74-6.11-6.11,0-52.16,42.44-94.6,94.6-94.6,3.37,0,6.11,2.74,6.11,6.11s-2.74,6.11-6.11,6.11c-45.42,0-82.37,36.95-82.37,82.37,0,3.37-2.74,6.11-6.11,6.11ZM339.08,400c0-33.59,27.33-60.92,60.92-60.92s60.92,27.33,60.92,60.92-27.33,60.92-60.92,60.92-60.92-27.33-60.92-60.92ZM400,567.76c-3.37,0-6.11-2.74-6.11-6.11s2.74-6.11,6.11-6.11c85.76,0,155.53-69.77,155.53-155.53,0-3.37,2.74-6.11,6.11-6.11s6.11,2.74,6.11,6.11c0,92.5-75.26,167.76-167.76,167.76h0Z"/>
  <path class="st0" d="M400,382.67c-9.56,0-17.33,7.77-17.33,17.33s7.77,17.33,17.33,17.33,17.33-7.77,17.33-17.33-7.77-17.33-17.33-17.33Z"/>
  <path class="st0" d="M393.82-.05C181.34-.05,7.98,167.74-.98,378.02c-.61,14.42,10.4,15.22,10.4,15.22h67.05c13.03,0,15.32-7.44,15.62-14.1,7.38-159.45,140.25-286.15,301.72-286.15,86.19,0,163.93,36.13,218.98,94.05l-47.05,45.5c-8.18,9.86-8.03,21.82,4.05,25.2l197.7,39.8c16.92,4.22,37.03-8.6,30.12-34.92l-46.7-182.05c-1.19-6.89-12.74-17.62-23.52-9.92l-51.28,48.02C604.4,45.42,504.42-.05,393.82-.05h0ZM721.52,406.75c-13.03,0-15.32,7.44-15.62,14.1-7.38,159.45-140.25,286.15-301.72,286.15-86.19,0-163.93-36.11-218.98-94.02l47.05-45.52c8.18-9.86,8.03-21.82-4.05-25.2l-197.7-39.8c-16.92-4.22-37.03,8.6-30.12,34.92l46.7,182.05c1.19,6.89,12.74,17.62,23.52,9.92l51.28-48.02c71.73,73.25,171.7,118.72,282.3,118.72,212.48,0,385.84-167.79,394.8-378.08.61-14.42-10.4-15.22-10.4-15.22h-67.05Z"/>
</svg>