<?xml version="1.0" encoding="UTF-8"?>
<svg id="uuid-9be144a4-092c-4f65-adaa-541a21548a52" data-name="Layer 1" xmlns="http://www.w3.org/2000/svg" width="1245.94" height="210.61" viewBox="0 0 1245.94 210.61">
  <path d="M648.49,96.38v62.1h-24.3v-62.1c0-11.4-5.55-15.45-12.9-15.45s-12.9,4.05-12.9,15.45v62.1h-24.3v-62.1c0-11.4-5.7-15.45-12.9-15.45s-12.9,4.05-12.9,15.45v62.1h-24.3v-62.1c0-26.25,15.3-37.95,35.1-37.95,11.85,0,21.3,4.65,27.15,13.5,5.85-8.85,15.3-13.5,27.15-13.5,19.8,0,35.1,11.7,35.1,37.95ZM489.34,158.48h24.3V60.38h-24.3v98.1ZM404.89,82.88h26.7v75.6h24.3v-75.6h26.85v-22.5h-77.85v22.5ZM370.09,98.93c-9.15-1.65-16.65-3.15-16.65-9.6,0-5.1,3.45-10.05,12.15-10.05s12,4.5,12.15,10.2h22.8c-.75-18.6-14.7-31.05-35.25-31.05s-35.25,13.2-35.25,31.8c0,23.85,17.85,27.15,31.8,29.7,9,1.65,16.5,3.15,16.5,9.6s-3.75,10.05-13.2,10.05-13.2-3.9-13.2-10.05h-23.7c.45,19.05,15,30.9,36.9,30.9s36.9-12.3,36.9-31.8c0-23.85-17.85-27.15-31.95-29.7ZM695.44,98.93c-9.15-1.65-16.65-3.15-16.65-9.6,0-5.1,3.45-10.05,12.15-10.05s12,4.5,12.15,10.2h22.8c-.75-18.6-14.7-31.05-35.25-31.05s-35.25,13.2-35.25,31.8c0,23.85,17.85,27.15,31.8,29.7,9,1.65,16.5,3.15,16.5,9.6s-3.75,10.05-13.2,10.05-13.2-3.9-13.2-10.05h-23.7c.45,19.05,15,30.9,36.9,30.9s36.9-12.3,36.9-31.8c0-23.85-17.85-27.15-31.95-29.7ZM1019.74,158.48h24.3V60.38h-24.3v98.1ZM854.29,109.43c0,29.4-18,49.05-52.5,49.05h-34.65V60.38h34.65c34.5,0,52.5,19.65,52.5,49.05ZM829.69,109.43c0-16.35-8.25-26.55-27.9-26.55h-10.35v53.1h10.35c19.65,0,27.9-10.2,27.9-26.55ZM1203.94,58.43c-27,0-42,15.9-42,41.25v58.8h24.3v-58.8c0-12,5.7-18.75,17.7-18.75s17.7,6.75,17.7,18.75v58.8h24.3v-58.8c0-25.35-15-41.25-42-41.25ZM1097.89,123.38h31.5c-4.5,9.6-13.2,14.55-25.5,14.55-16.65,0-27.6-12-27.6-28.5s10.95-28.5,27.6-28.5c10.35,0,18.45,4.5,23.1,12h26.7c-6.45-20.7-25.35-34.5-49.8-34.5-30.6,0-52.2,21.6-52.2,51s21.6,51,52.2,51c28.8,0,49.65-19.2,52.05-45.9v-10.65h-58.05v19.5ZM980.44,98.93c-9.15-1.65-16.65-3.15-16.65-9.6,0-5.1,3.45-10.05,12.15-10.05s12,4.5,12.15,10.2h22.8c-.75-18.6-14.7-31.05-35.25-31.05s-35.25,13.2-35.25,31.8c0,23.85,17.85,27.15,31.8,29.7,9,1.65,16.5,3.15,16.5,9.6s-3.75,10.05-13.2,10.05-13.2-3.9-13.2-10.05h-23.7c.45,19.05,15,30.9,36.9,30.9s36.9-12.3,36.9-31.8c0-23.85-17.85-27.15-31.95-29.7ZM861.94,158.48h72.45v-22.5h-48.15v-17.55h39.45v-19.5h-39.45v-16.05h48.15v-22.5h-72.45v98.1Z" fill="#12133e"/>
  <path d="M243.92,0c-22.92,4.7-36.24,21.55-44.08,31.35h-91.1V0h135.18Z" fill="#12133e" fill-rule="evenodd"/>
  <path d="M134.55,179.27h24.15c12.9,0,37.06-10.9,48-24.49,10.94-13.59,72.83-93.67,93.06-117.55,1.74-2.05,3.51-4,5.32-5.88h73.05c-12.57,0-36.41,3.47-48.98,20.57-12.57,17.1-77.55,98.17-99.92,124.41-22.36,26.24-48.33,34.29-69.55,34.29h-92.08c20.41,0,45.19-7.45,66.95-31.35Z" fill="#12133e" fill-rule="evenodd"/>
  <path d="M0,179.27v31.35h67.59c21.22,0,47.19-8.04,69.55-34.29,22.36-26.24,87.35-107.31,99.92-124.41,12.57-17.1,36.41-20.57,48.98-20.57h152.82V0h-154.78c-28.08,0-54.94,11.88-76.41,37.22-20.23,23.89-82.12,103.96-93.06,117.55-10.94,13.59-35.1,24.49-48,24.49H0Z" fill="#168bcc" fill-rule="evenodd"/>
</svg>