<?xml version="1.0" encoding="UTF-8"?>
<svg xmlns="http://www.w3.org/2000/svg" width="612.09" height="741.88" viewBox="0 0 612.09 741.88">
  <g id="uuid-e65343f5-2269-441f-a672-990854669021" data-name="Layer 4">
    <path d="M306.2,0h-.31C193.02,54.26,97.68,84.5,0,84.5v171.32C0,396.07,51.9,646.3,305.89,741.76v.12c.05-.02.1-.04.16-.06.05.02.1.04.16.06v-.12c253.99-95.45,305.89-345.69,305.89-485.94V84.5C514.42,84.5,419.07,54.26,306.2,0Z" fill="#0a5081"/>
  </g>
  <g id="uuid-ab67243e-3a6f-4063-abb3-8bf9c1c66a0c" data-name="Layer 3">
    <g>
      <path d="M198.67,351.54c-24.6,33.93-17.06,81.36,16.84,105.98l76.9,55.85c16.72,14.55,15.74,34.89,15.74,34.89l40.61-55.95c9.43-12.9,14.52-28.44,14.54-44.42-.04-4.07-.37-8.12-1-12.13-3.07-19.85-13.89-37.66-30.08-49.53l-76.8-55.75c-11.63-10.43-15.94-34.99-15.94-34.99l-40.81,56.04Z" fill="#257eba"/>
      <path d="M244.98,127.15c-13.62,18.7-20.95,41.24-20.95,64.37-.03,5.87.44,11.75,1.41,17.55,4.48,28.85,20.34,54.71,44.02,71.8l96.66,70.18c30.95,21.36,22.35,88.83,22.35,88.83l76.1-105.18c35.53-49.26,24.55-117.98-24.56-153.71l-116.61-84.72c-20.87-20.87-16.74-54.14-16.74-54.14l-61.67,85.03Z" fill="#257eba"/>
      <polygon points="467.4 567.1 146.2 567.1 134.56 605.53 220.26 605.53 236.45 658.47 377.14 658.47 393.52 605.53 479.03 605.53 467.4 567.1" fill="#257eba"/>
    </g>
  </g>
  <g id="uuid-87469842-a1d4-459f-9eee-7550ad403feb" data-name="Layer 4 copy">
    <path d="M306.05,54.11c98.98,45.83,179.33,70.1,257.05,77.17v124.53c0,36.5-3.85,75.29-11.15,112.17-8.97,45.36-22.97,87.81-41.62,126.18-44.07,90.67-112.74,156.17-204.28,194.9-91.54-38.74-160.21-104.23-204.28-194.9-18.65-38.37-32.65-80.83-41.62-126.18-7.29-36.88-11.15-75.67-11.15-112.17v-124.53c77.71-7.07,158.07-31.33,257.05-77.17M306.2,0h-.31C193.02,54.26,97.68,84.5,0,84.5v171.32c0,140.25,51.9,390.49,305.89,485.94v.12c.05-.02.1-.04.16-.06.05.02.1.04.16.06v-.12c253.99-95.45,305.89-345.69,305.89-485.94V84.5C514.42,84.5,419.07,54.26,306.2,0h0Z" fill="#f8f8f9"/>
    <path d="M306.05,41.98c104.19,48.67,187.3,73.35,268.05,79.16v134.68c0,37.21-3.93,76.73-11.36,114.3-9.15,46.28-23.46,89.64-42.52,128.86-45.96,94.56-117.97,162.47-214.17,202.02-96.2-39.55-168.21-107.45-214.17-202.02-19.06-39.22-33.37-82.58-42.52-128.86-7.43-37.57-11.36-77.09-11.36-114.3V121.14c80.75-5.81,163.85-30.49,268.05-79.16M306.2,0h-.31C193.02,54.26,97.68,84.5,0,84.5v171.32C0,396.07,51.9,646.3,305.89,741.76v.12c.05-.02.1-.04.16-.06.05.02.1.04.16.06v-.12c253.99-95.45,305.89-345.69,305.89-485.94V84.5c-97.68,0-193.02-30.23-305.89-84.5h0Z" fill="#fbb03b"/>
    <path d="M306.05,12.12c117.57,56.08,206.84,81.33,295.05,83.25v160.44c0,51.73-7.35,153.65-56.59,254.96-23.63,48.62-54.24,91.21-90.98,126.58-41.24,39.71-90.85,70.88-147.47,92.69-56.63-21.81-106.23-52.98-147.47-92.69-36.74-35.38-67.35-77.96-90.98-126.58C18.35,409.46,11,307.55,11,255.81V95.38c88.21-1.93,177.47-27.17,295.05-83.25M306.2,0h-.31C193.02,54.26,97.68,84.5,0,84.5v171.32C0,396.07,51.9,646.3,305.89,741.76v.12c.05-.02.1-.04.16-.06.05.02.1.04.16.06v-.12c253.99-95.45,305.89-345.69,305.89-485.94V84.5c-97.68,0-193.02-30.23-305.89-84.5h0Z" fill="#f8f8f9"/>
  </g>
  <g id="uuid-df13b90b-302c-4891-a787-a598a5b9544e" data-name="BBB">
    <path d="M241.59,188.81c8.79-4.23,14.28-13.23,14-22.98v-.34c.17-6.79-2.46-13.34-7.28-18.12-7.68-6.71-17.71-10.11-27.89-9.43h-49.58l-.05,106.43h50.81c24.11,0,39.92-9.77,39.92-29.3,0-14.34-7.62-21.51-19.93-26.25ZM193.72,158.49h23.37c9.77,0,15.41,4.23,15.41,11.29,0,7.91-6.61,11.29-16.94,11.29h-21.85v-22.58ZM238.37,212.75c0,7.62-6.21,11.29-16.6,11.29l-28.06.57v-23.49h27.33c12.02,0,17.33,4.18,17.33,11.29,0,0,0,.34,0,.34Z" fill="#073455"/>
    <path d="M443.38,188.81c8.79-4.23,14.28-13.23,14-22.98v-.34c.17-6.79-2.46-13.34-7.28-18.12-7.68-6.71-17.71-10.11-27.89-9.43h-49.57l-.06,106.43h50.81c24.11,0,39.97-9.77,39.97-29.3,0-14.34-7.62-21.51-19.98-26.25ZM395.5,158.49h23.26c9.71,0,15.36,4.23,15.36,11.29,0,7.91-6.61,11.29-16.94,11.29h-21.68v-22.58h0ZM440.05,212.75c0,7.62-6.27,11.29-16.66,11.29l-27.89.57v-23.49h27.16c12.02,0,17.39,4.18,17.39,11.29v.34Z" fill="#073455"/>
    <path d="M342.71,188.81c8.79-4.23,14.28-13.23,14-22.98v-.34c.19-6.78-2.43-13.33-7.23-18.12-7.68-6.71-17.71-10.11-27.89-9.43h-49.57v106.42h50.7c24.11,0,39.97-9.77,39.97-29.3,0-14.34-7.62-21.5-19.99-26.24ZM294.61,158.49h23.54c9.71,0,15.36,4.23,15.36,11.29,0,7.91-6.61,11.29-16.94,11.29h-21.96v-22.58h0ZM339.38,212.75c0,7.62-6.21,11.29-16.6,11.29l-28.17.57v-23.49h27.44c12.02,0,17.33,4.18,17.33,11.29v.34Z" fill="#073455"/>
  </g>
  <g id="uuid-621adf66-64ee-4e4f-99e0-4b376a107a86" data-name="BBB copy">
    <path d="M231.59,178.81c8.79-4.23,14.28-13.23,14-22.98v-.34c.17-6.79-2.46-13.34-7.28-18.12-7.68-6.71-17.71-10.11-27.89-9.43h-49.58l-.05,106.43h50.81c24.11,0,39.92-9.77,39.92-29.3,0-14.34-7.62-21.51-19.93-26.25ZM183.72,148.49h23.37c9.77,0,15.41,4.23,15.41,11.29,0,7.91-6.61,11.29-16.94,11.29h-21.85v-22.58ZM228.37,202.75c0,7.62-6.21,11.29-16.6,11.29l-28.06.57v-23.49h27.33c12.02,0,17.33,4.18,17.33,11.29,0,0,0,.34,0,.34Z" fill="#f8f8f9"/>
    <path d="M433.38,178.81c8.79-4.23,14.28-13.23,14-22.98v-.34c.17-6.79-2.46-13.34-7.28-18.12-7.68-6.71-17.71-10.11-27.89-9.43h-49.57l-.06,106.43h50.81c24.11,0,39.97-9.77,39.97-29.3,0-14.34-7.62-21.51-19.98-26.25ZM385.5,148.49h23.26c9.71,0,15.36,4.23,15.36,11.29,0,7.91-6.61,11.29-16.94,11.29h-21.68v-22.58h0ZM430.05,202.75c0,7.62-6.27,11.29-16.66,11.29l-27.89.57v-23.49h27.16c12.02,0,17.39,4.18,17.39,11.29v.34Z" fill="#f8f8f9"/>
    <path d="M332.71,178.81c8.79-4.23,14.28-13.23,14-22.98v-.34c.19-6.78-2.43-13.33-7.23-18.12-7.68-6.71-17.71-10.11-27.89-9.43h-49.57v106.42h50.7c24.11,0,39.97-9.77,39.97-29.3,0-14.34-7.62-21.5-19.99-26.24ZM284.61,148.49h23.54c9.71,0,15.36,4.23,15.36,11.29,0,7.91-6.61,11.29-16.94,11.29h-21.96v-22.58h0ZM329.38,202.75c0,7.62-6.21,11.29-16.6,11.29l-28.17.57v-23.49h27.44c12.02,0,17.33,4.18,17.33,11.29v.34Z" fill="#f8f8f9"/>
  </g>
  <g id="uuid-4db423e1-7368-4602-8bb0-57c81cd563b2" data-name="Layer 6">
    <g>
      <polygon points="108.68 603.12 15.68 603.12 34.9 567.79 15.68 527.12 108.68 527.12 108.68 603.12" fill="#a0a8ad"/>
      <path d="M108.68,527.12v76H15.68l19.22-35.33-19.22-40.67h93M111.68,524.12H10.94l2.02,4.28,18.57,39.29-18.49,34-2.41,4.43h101.05v-82h0Z" fill="#fbb03b"/>
    </g>
    <g>
      <polygon points="58.68 586.12 111.68 606.12 111.68 558.05 58.68 586.12" fill="#747d82"/>
      <path d="M108.68,563.03v38.75l-42.72-16.12,42.72-22.63M111.68,558.05l-53,28.08,53,20v-48.08h0Z" fill="#fbb03b"/>
    </g>
    <g>
      <polygon points="506.68 603.12 599.68 603.12 580.46 567.79 599.68 527.12 506.68 527.12 506.68 603.12" fill="#a0a8ad"/>
      <path d="M599.68,527.12l-19.22,40.67,19.22,35.33h-93v-76h93M604.42,524.12h-100.74v82h101.05l-2.41-4.43-18.49-34,18.57-39.29,2.02-4.28h0Z" fill="#fbb03b"/>
    </g>
    <g>
      <polygon points="556.68 586.12 503.68 606.12 503.68 558.05 556.68 586.12" fill="#747d82"/>
      <path d="M506.68,563.03l42.72,22.63-42.72,16.12v-38.75M503.68,558.05v48.08l53-20-53-28.08h0Z" fill="#fbb03b"/>
    </g>
    <g>
      <rect x="61.68" y="507.12" width="492" height="76" fill="#cbd0d2"/>
      <path d="M553.68,507.12v76H61.68v-76h492M556.68,504.12H58.68v82h498v-82h0Z" fill="#fbb03b"/>
    </g>
  </g>
  <g id="uuid-41435679-c65d-43b4-b37a-89445cf4520f" data-name="Layer 8">
    <g>
      <path d="M215.48,274.05h63.25l78.68,212.23h-59.96l-11.39-31.12h-78.43l-10.88,31.12h-59.96l78.68-212.23ZM273.42,411.91l-26.31-82.46-26.06,82.46h52.37Z" fill="#073455"/>
      <path d="M347.55,366.03h49.59v-50.6h39.22v50.6h49.34v39.22h-49.34v50.35h-39.22v-50.35h-49.59v-39.22Z" fill="#073455"/>
    </g>
    <g>
      <path d="M205.48,264.05h63.25l78.68,212.23h-59.96l-11.39-31.12h-78.43l-10.88,31.12h-59.96l78.68-212.23ZM263.42,401.91l-26.31-82.46-26.06,82.46h52.37Z" fill="#f8f8f9"/>
      <path d="M337.55,356.03h49.59v-50.6h39.22v50.6h49.34v39.22h-49.34v50.35h-39.22v-50.35h-49.59v-39.22Z" fill="#f8f8f9"/>
    </g>
    <g>
      <path d="M77.47,520.35h10.58l8.09,49.7h-7.81l-1.42-9.87v.14h-8.88l-1.42,9.73h-7.24l8.09-49.7ZM85.99,553.57l-3.48-24.57h-.14l-3.41,24.57h7.03Z" fill="#073455"/>
      <path d="M102.21,567.56c-1.96-2.13-2.95-5.13-2.95-9.02v-26.7c0-3.88.98-6.89,2.95-9.02,1.96-2.13,4.82-3.2,8.56-3.2s6.59,1.07,8.56,3.2c1.96,2.13,2.95,5.14,2.95,9.02v5.25h-7.38v-5.75c0-3.08-1.3-4.61-3.91-4.61s-3.9,1.54-3.9,4.61v27.76c0,3.03,1.3,4.54,3.9,4.54s3.91-1.51,3.91-4.54v-7.6h7.38v7.03c0,3.88-.98,6.89-2.95,9.02-1.96,2.13-4.82,3.2-8.56,3.2s-6.59-1.07-8.56-3.2Z" fill="#073455"/>
      <path d="M129.54,567.56c-1.96-2.13-2.95-5.13-2.95-9.02v-26.7c0-3.88.98-6.89,2.95-9.02,1.96-2.13,4.82-3.2,8.56-3.2s6.59,1.07,8.56,3.2c1.96,2.13,2.95,5.14,2.95,9.02v5.25h-7.38v-5.75c0-3.08-1.3-4.61-3.91-4.61s-3.9,1.54-3.9,4.61v27.76c0,3.03,1.3,4.54,3.9,4.54s3.91-1.51,3.91-4.54v-7.6h7.38v7.03c0,3.88-.98,6.89-2.95,9.02-1.96,2.13-4.82,3.2-8.56,3.2s-6.59-1.07-8.56-3.2Z" fill="#073455"/>
      <path d="M154.29,520.35h11.57c4.02,0,6.96.94,8.8,2.8,1.85,1.87,2.77,4.75,2.77,8.63v3.05c0,5.16-1.7,8.43-5.11,9.8v.14c1.89.57,3.23,1.73,4.01,3.48.78,1.75,1.17,4.09,1.17,7.03v8.73c0,1.42.05,2.57.14,3.44.09.88.33,1.74.71,2.59h-7.95c-.28-.8-.47-1.56-.57-2.27-.1-.71-.14-1.99-.14-3.83v-9.09c0-2.27-.37-3.86-1.1-4.76-.73-.9-2-1.35-3.8-1.35h-2.7v21.3h-7.81v-49.7ZM164.94,541.65c1.56,0,2.73-.4,3.51-1.21.78-.8,1.17-2.15,1.17-4.05v-3.83c0-1.8-.32-3.1-.96-3.9s-1.65-1.21-3.02-1.21h-3.55v14.2h2.84Z" fill="#073455"/>
      <path d="M182.9,520.35h21.3v7.1h-13.49v13.13h10.72v7.1h-10.72v15.27h13.49v7.1h-21.3v-49.7Z" fill="#073455"/>
      <path d="M208.67,520.35h11.93c3.88,0,6.79,1.04,8.73,3.12,1.94,2.08,2.91,5.14,2.91,9.16v25.13c0,4.02-.97,7.08-2.91,9.16-1.94,2.08-4.85,3.12-8.73,3.12h-11.93v-49.7ZM220.46,562.95c1.28,0,2.26-.38,2.95-1.14.69-.76,1.03-1.99,1.03-3.69v-25.84c0-1.7-.34-2.93-1.03-3.69-.69-.76-1.67-1.14-2.95-1.14h-3.98v35.5h3.98Z" fill="#073455"/>
      <path d="M237.5,520.35h7.81v49.7h-7.81v-49.7Z" fill="#073455"/>
      <path d="M257.23,527.45h-8.17v-7.1h24.14v7.1h-8.17v42.6h-7.81v-42.6Z" fill="#073455"/>
      <path d="M276.97,520.35h21.3v7.1h-13.49v13.13h10.72v7.1h-10.72v15.27h13.49v7.1h-21.3v-49.7Z" fill="#073455"/>
      <path d="M302.75,520.35h11.93c3.88,0,6.79,1.04,8.73,3.12,1.94,2.08,2.91,5.14,2.91,9.16v25.13c0,4.02-.97,7.08-2.91,9.16-1.94,2.08-4.85,3.12-8.73,3.12h-11.93v-49.7ZM314.53,562.95c1.28,0,2.26-.38,2.95-1.14.69-.76,1.03-1.99,1.03-3.69v-25.84c0-1.7-.34-2.93-1.03-3.69-.69-.76-1.67-1.14-2.95-1.14h-3.98v35.5h3.98Z" fill="#073455"/>
      <path d="M342.93,520.35h11.79c4.02,0,6.96.94,8.8,2.8,1.85,1.87,2.77,4.75,2.77,8.63v1.99c0,2.56-.42,4.64-1.24,6.25-.83,1.61-2.09,2.77-3.8,3.48v.14c3.88,1.33,5.82,4.78,5.82,10.37v4.26c0,3.83-1.01,6.76-3.02,8.77-2.01,2.01-4.96,3.02-8.84,3.02h-12.28v-49.7ZM353.79,540.58c1.56,0,2.73-.4,3.51-1.21.78-.8,1.17-2.15,1.17-4.05v-2.77c0-1.8-.32-3.1-.96-3.9-.64-.8-1.64-1.21-3.02-1.21h-3.76v13.13h3.05ZM355.21,562.95c1.37,0,2.39-.37,3.05-1.1.66-.73.99-2,.99-3.8v-4.33c0-2.27-.39-3.84-1.17-4.72-.78-.88-2.07-1.31-3.87-1.31h-3.48v15.27h4.47Z" fill="#073455"/>
      <path d="M374.31,567.53c-1.99-2.15-2.98-5.24-2.98-9.27v-37.91h7.81v38.48c0,1.7.34,2.94,1.03,3.69.69.76,1.67,1.14,2.95,1.14s2.26-.38,2.95-1.14c.69-.76,1.03-1.99,1.03-3.69v-38.48h7.53v37.91c0,4.02-.99,7.11-2.98,9.27-1.99,2.15-4.88,3.23-8.66,3.23s-6.67-1.08-8.66-3.23Z" fill="#073455"/>
      <path d="M401.72,567.53c-1.94-2.15-2.91-5.24-2.91-9.27v-2.84h7.38v3.41c0,3.22,1.35,4.83,4.05,4.83,1.32,0,2.33-.39,3.02-1.17.69-.78,1.03-2.05,1.03-3.8,0-2.08-.47-3.92-1.42-5.5-.95-1.59-2.7-3.49-5.25-5.72-3.22-2.84-5.47-5.41-6.75-7.7-1.28-2.3-1.92-4.89-1.92-7.77,0-3.93.99-6.97,2.98-9.12,1.99-2.15,4.88-3.23,8.66-3.23s6.57,1.08,8.48,3.23c1.92,2.15,2.88,5.24,2.88,9.27v2.06h-7.38v-2.56c0-1.7-.33-2.95-.99-3.73-.66-.78-1.63-1.17-2.91-1.17-2.6,0-3.91,1.59-3.91,4.76,0,1.8.49,3.48,1.46,5.04.97,1.56,2.73,3.46,5.29,5.68,3.27,2.84,5.51,5.42,6.75,7.74,1.23,2.32,1.85,5.04,1.85,8.17,0,4.07-1.01,7.2-3.02,9.37-2.01,2.18-4.93,3.27-8.77,3.27s-6.65-1.08-8.59-3.23Z" fill="#073455"/>
      <path d="M426.57,520.35h7.81v49.7h-7.81v-49.7Z" fill="#073455"/>
      <path d="M440.2,520.35h9.8l7.6,29.75h.14v-29.75h6.96v49.7h-8.02l-9.37-36.28h-.14v36.28h-6.96v-49.7Z" fill="#073455"/>
      <path d="M470.51,520.35h21.3v7.1h-13.49v13.13h10.72v7.1h-10.72v15.27h13.49v7.1h-21.3v-49.7Z" fill="#073455"/>
      <path d="M497.99,567.53c-1.94-2.15-2.91-5.24-2.91-9.27v-2.84h7.38v3.41c0,3.22,1.35,4.83,4.05,4.83,1.32,0,2.33-.39,3.02-1.17.69-.78,1.03-2.05,1.03-3.8,0-2.08-.47-3.92-1.42-5.5-.95-1.59-2.7-3.49-5.25-5.72-3.22-2.84-5.47-5.41-6.75-7.7s-1.92-4.89-1.92-7.77c0-3.93.99-6.97,2.98-9.12,1.99-2.15,4.87-3.23,8.66-3.23s6.57,1.08,8.48,3.23c1.92,2.15,2.88,5.24,2.88,9.27v2.06h-7.38v-2.56c0-1.7-.33-2.95-.99-3.73-.66-.78-1.63-1.17-2.91-1.17-2.6,0-3.9,1.59-3.9,4.76,0,1.8.48,3.48,1.46,5.04.97,1.56,2.73,3.46,5.29,5.68,3.27,2.84,5.51,5.42,6.75,7.74,1.23,2.32,1.85,5.04,1.85,8.17,0,4.07-1.01,7.2-3.02,9.37-2.01,2.18-4.93,3.27-8.77,3.27s-6.65-1.08-8.59-3.23Z" fill="#073455"/>
      <path d="M524.4,567.53c-1.94-2.15-2.91-5.24-2.91-9.27v-2.84h7.38v3.41c0,3.22,1.35,4.83,4.05,4.83,1.32,0,2.33-.39,3.02-1.17.69-.78,1.03-2.05,1.03-3.8,0-2.08-.47-3.92-1.42-5.5-.95-1.59-2.7-3.49-5.25-5.72-3.22-2.84-5.47-5.41-6.75-7.7-1.28-2.3-1.92-4.89-1.92-7.77,0-3.93.99-6.97,2.98-9.12,1.99-2.15,4.88-3.23,8.66-3.23s6.57,1.08,8.48,3.23c1.92,2.15,2.88,5.24,2.88,9.27v2.06h-7.38v-2.56c0-1.7-.33-2.95-.99-3.73-.66-.78-1.63-1.17-2.91-1.17-2.6,0-3.91,1.59-3.91,4.76,0,1.8.49,3.48,1.46,5.04.97,1.56,2.73,3.46,5.29,5.68,3.27,2.84,5.51,5.42,6.75,7.74,1.23,2.32,1.85,5.04,1.85,8.17,0,4.07-1.01,7.2-3.02,9.37-2.01,2.18-4.93,3.27-8.77,3.27s-6.65-1.08-8.59-3.23Z" fill="#073455"/>
    </g>
  </g>
</svg>