<?xml version="1.0" encoding="UTF-8"?>
<svg id="uuid-42ba961b-e081-4c31-80bb-d0700554f3b5" data-name="uuid-e3e9ab0a-66db-4a45-a86d-00867f296789" xmlns="http://www.w3.org/2000/svg" width="813.09" height="813.09" xmlns:xlink="http://www.w3.org/1999/xlink" viewBox="0 0 813.09 813.09">
  <defs>
    <linearGradient id="uuid-ad0edc94-3d9e-4dcd-ba29-05cbf82af9af" x1="406.55" y1="86" x2="406.55" y2="895.1" gradientTransform="translate(0 -84)" gradientUnits="userSpaceOnUse">
      <stop offset="0" stop-color="#f8f8f9"/>
      <stop offset="1" stop-color="#a0a8ad"/>
    </linearGradient>
    <linearGradient id="uuid-942b9f70-f234-44b5-bfdf-f3c6d6eb3d12" x1="406.55" y1="107.88" x2="406.55" y2="873.22" gradientTransform="translate(0 -84)" gradientUnits="userSpaceOnUse">
      <stop offset="0" stop-color="#f8f8f9"/>
      <stop offset="1" stop-color="#a0a8ad"/>
    </linearGradient>
    <linearGradient id="uuid-d57cab1e-fb99-4769-8632-def21aadfb71" x1="406.55" y1="118.98" x2="406.55" y2="862.12" gradientTransform="translate(0 -84)" gradientUnits="userSpaceOnUse">
      <stop offset="0" stop-color="#f8f8f9"/>
      <stop offset="1" stop-color="#a0a8ad"/>
    </linearGradient>
  </defs>
  <g id="uuid-662362a3-ea0c-4276-82f1-1e84c6d3c99e" data-name="uuid-9986f0e8-a115-4059-b439-97a693d03663">
    <g>
      <circle cx="406.55" cy="406.55" r="404.55" fill="url(#uuid-ad0edc94-3d9e-4dcd-ba29-05cbf82af9af)"/>
      <path d="M406.55,2c223.42,0,404.55,181.12,404.55,404.55s-181.12,404.55-404.55,404.55S2,629.97,2,406.55,183.12,2,406.55,2M406.55,0c-54.88,0-108.12,10.75-158.25,31.95-48.41,20.48-91.89,49.79-129.22,87.13-37.34,37.34-66.65,80.81-87.13,129.22C10.75,298.42,0,351.66,0,406.55s10.75,108.12,31.95,158.25c20.48,48.41,49.79,91.89,87.13,129.22,37.34,37.34,80.81,66.65,129.22,87.13,50.12,21.2,103.36,31.95,158.25,31.95s108.12-10.75,158.25-31.95c48.41-20.48,91.89-49.79,129.22-87.13,37.34-37.34,66.65-80.81,87.13-129.22,21.2-50.12,31.95-103.36,31.95-158.25s-10.75-108.12-31.95-158.25c-20.48-48.41-49.79-91.89-87.13-129.22-37.34-37.34-80.81-66.65-129.22-87.13C514.67,10.75,461.43,0,406.55,0h0Z" fill="#747d82"/>
    </g>
  </g>
  <g id="uuid-3f057d5e-5180-48fc-ba1f-5ec9cbc53cd6" data-name="uuid-371bea25-712e-451d-a854-95a42ad275e4">
    <g>
      <circle cx="406.55" cy="406.55" r="382.67" fill="url(#uuid-942b9f70-f234-44b5-bfdf-f3c6d6eb3d12)"/>
      <path d="M406.55,23.88c211.34,0,382.67,171.33,382.67,382.67s-171.33,382.67-382.67,382.67S23.88,617.89,23.88,406.55,195.2,23.88,406.55,23.88M406.55,17.88c-52.47,0-103.37,10.28-151.29,30.55-46.28,19.58-87.85,47.6-123.54,83.29s-63.72,77.26-83.29,123.54c-20.27,47.92-30.55,98.82-30.55,151.29s10.28,103.37,30.55,151.29c19.58,46.28,47.6,87.85,83.29,123.54s77.26,63.72,123.54,83.29c47.92,20.27,98.82,30.55,151.29,30.55s103.37-10.28,151.29-30.55c46.28-19.58,87.85-47.6,123.54-83.29s63.72-77.26,83.29-123.54c20.27-47.92,30.55-98.82,30.55-151.29s-10.28-103.37-30.55-151.29c-19.58-46.28-47.6-87.85-83.29-123.54s-77.26-63.72-123.54-83.29c-47.92-20.27-98.82-30.55-151.29-30.55h0Z" fill="#747d82"/>
    </g>
  </g>
  <g id="uuid-7a5c1325-2500-4e34-9675-8db811c04161" data-name="uuid-0b29c0d1-89ca-4aba-bc14-5630ece66231">
    <g>
      <circle cx="406.55" cy="406.55" r="371.57" fill="url(#uuid-d57cab1e-fb99-4769-8632-def21aadfb71)"/>
      <path d="M406.55,34.97c205.21,0,371.57,166.36,371.57,371.57s-166.36,371.57-371.57,371.57S34.97,611.76,34.97,406.55,201.33,34.97,406.55,34.97M406.55,23.97c-51.64,0-101.74,10.12-148.92,30.07-45.56,19.27-86.47,46.85-121.6,81.98s-62.71,76.04-81.98,121.6c-19.95,47.17-30.07,97.28-30.07,148.92s10.12,101.74,30.07,148.92c19.27,45.56,46.85,86.47,81.98,121.6s76.04,62.71,121.6,81.98c47.17,19.95,97.28,30.07,148.92,30.07s101.74-10.12,148.92-30.07c45.56-19.27,86.47-46.85,121.6-81.98s62.71-76.04,81.98-121.6c19.95-47.17,30.07-97.28,30.07-148.92s-10.12-101.74-30.07-148.92c-19.27-45.56-46.85-86.47-81.98-121.6s-76.04-62.71-121.6-81.98c-47.17-19.95-97.28-30.07-148.92-30.07h0Z" fill="#fbb03b"/>
    </g>
  </g>
  <g id="uuid-df62b026-dc66-4ebe-b9e9-9fe59d1e5d12" data-name="uuid-da82603c-8869-4bd4-9f35-a70f08a45c59">
    <path d="M113.09,544.48c-20.39-43.3-30.73-89.71-30.73-137.94s10.34-94.64,30.73-137.94l9.95,4.69c-19.7,41.83-29.68,86.66-29.68,133.26s9.98,91.42,29.68,133.25l-9.95,4.69h0Z" fill="#fbb03b"/>
    <path d="M700,544.48l-9.95-4.69c19.69-41.83,29.68-86.66,29.68-133.25s-9.99-91.43-29.68-133.26l9.95-4.69c20.39,43.3,30.73,89.72,30.73,137.95s-10.34,94.63-30.73,137.94Z" fill="#fbb03b"/>
  </g>
  <g id="uuid-ce29ba5f-d600-4e27-8a54-199ea76cee65" data-name="uuid-db2935b5-fca2-41b4-9eb1-62bca46c91fa">
    <g>
      <circle cx="406.55" cy="406.55" r="265.81" fill="#0a5081"/>
      <path d="M406.55,140.73c146.8,0,265.81,119.01,265.81,265.81s-119.01,265.81-265.81,265.81-265.81-119.01-265.81-265.81,119.01-265.81,265.81-265.81M406.55,136.73c-36.42,0-71.76,7.13-105.02,21.2-32.13,13.59-60.98,33.04-85.76,57.82-24.78,24.78-44.23,53.63-57.82,85.76-14.07,33.27-21.2,68.6-21.2,105.02s7.13,71.76,21.2,105.02c13.59,32.13,33.04,60.98,57.82,85.76s53.63,44.23,85.76,57.82c33.27,14.07,68.6,21.2,105.02,21.2s71.76-7.13,105.02-21.2c32.13-13.59,60.98-33.04,85.76-57.82s44.23-53.63,57.82-85.76c14.07-33.27,21.2-68.6,21.2-105.02s-7.13-71.76-21.2-105.02c-13.59-32.13-33.04-60.98-57.82-85.76-24.78-24.78-53.63-44.23-85.76-57.82-33.27-14.07-68.6-21.2-105.02-21.2h0Z" fill="#4e5559"/>
    </g>
  </g>
  <g id="uuid-8e9fb45d-6bd8-4cd0-84a1-6cdc9613028a" data-name="uuid-552f35f3-c2df-41c0-9712-6e58f89cd48c">
    <g>
      <polygon points="160.07 164.86 150.28 156.21 114.15 197.11 123.93 205.75 137.44 190.46 182.39 230.17 191.5 219.86 146.56 180.14 160.07 164.86" fill="#073455"/>
      <path d="M245.86,129.18c-3.07-4.32-6.72-7.82-10.95-10.49s-8.77-4.42-13.63-5.27c-4.85-.85-9.73-.72-14.62.38s-9.56,3.22-13.99,6.37c-4.44,3.15-7.99,6.86-10.67,11.14s-4.4,8.84-5.17,13.68-.6,9.7.53,14.57c1.13,4.87,3.22,9.47,6.29,13.8,3.07,4.32,6.72,7.82,10.95,10.49s8.76,4.44,13.59,5.3c4.83.87,9.7.74,14.62-.37,4.92-1.12,9.6-3.25,14.03-6.4,4.44-3.15,7.98-6.85,10.62-11.11,2.65-4.26,4.37-8.82,5.17-13.68.8-4.86.64-9.73-.49-14.6-1.13-4.87-3.22-9.47-6.29-13.8h.01ZM237.51,162c-1.77,3.85-4.52,7.09-8.23,9.72-3.66,2.6-7.6,4.1-11.81,4.51-4.21.41-8.3-.3-12.26-2.11-3.96-1.82-7.38-4.75-10.25-8.8-2.91-4.1-4.57-8.31-4.96-12.62s.3-8.39,2.07-12.23,4.49-7.07,8.15-9.67c3.71-2.64,7.68-4.16,11.89-4.57,4.21-.41,8.29.29,12.23,2.07,3.94,1.79,7.37,4.74,10.28,8.84,2.87,4.05,4.52,8.24,4.93,12.58.41,4.34-.27,8.43-2.04,12.27h0Z" fill="#073455"/>
      <path d="M298.37,80.69c-3.32-2.42-7.08-3.85-11.27-4.29s-8.47.2-12.84,1.91l-23.93,9.38,26.66,67.99,12.82-5.03-9.79-24.97,11.11-4.36c4.37-1.71,7.94-4.15,10.71-7.32s4.55-6.79,5.33-10.85c.78-4.07.34-8.22-1.33-12.46-1.66-4.24-4.16-7.57-7.48-10,0,0,.01,0,.01,0ZM293.89,100.69c-.2,1.72-.89,3.32-2.06,4.81-1.17,1.48-2.87,2.66-5.08,3.53l-11.49,4.51-7.34-18.71,11.49-4.51c2.22-.87,4.26-1.16,6.12-.87,1.87.29,3.45.98,4.76,2.08s2.28,2.47,2.93,4.11c.65,1.65.87,3.33.67,5.05h0Z" fill="#073455"/>
      <rect x="326.73" y="95.44" width="34.58" height="11.83" transform="translate(-12.94 66.69) rotate(-10.87)" fill="#073455"/>
      <path d="M415.83,97.7c3.09-1.13,5.8-2.68,8.11-4.66,2.38-2.04,4.25-4.45,5.6-7.23,1.35-2.78,2-5.83,1.95-9.16-.07-4.49-1.15-8.45-3.25-11.88-2.09-3.44-4.98-6.11-8.64-8.02-3.67-1.91-7.95-2.83-12.85-2.76l-26.62.42,1.15,73.02,13.77-.22-.43-27.43,6.3-.1,19.43,27.14,15.81-.25v-.82l-20.32-28.05h0ZM394.1,66.94l12.95-.2c2.24-.04,4.15.41,5.73,1.34,1.58.93,2.77,2.15,3.58,3.67.8,1.52,1.22,3.16,1.25,4.93.03,1.9-.4,3.63-1.29,5.17s-2.12,2.77-3.67,3.68c-1.55.91-3.38,1.38-5.49,1.41l-12.75.2-.32-20.19h.01Z" fill="#073455"/>
      <path d="M482.4,61.69l-43.04,65.02,14.81,3.41,9.89-15.62,12.81,2.95,14.4,3.32,2.06,18.37,14.81,3.41-10.33-77.33-15.41-3.55v.02h0ZM479.71,105.14l-8.48-1.95,10.41-16.44,4.55-7.95.79.18.61,9.14,2.17,19.34-10.07-2.32h.02Z" fill="#073455"/>
      <polygon points="578.76 110.07 584.16 98.18 534.48 75.61 529.08 87.49 547.65 95.93 522.84 150.54 535.38 156.23 560.18 101.63 578.76 110.07" fill="#073455"/>
      <polygon points="590.61 153.71 614.32 170.88 621.97 160.3 598.26 143.13 608.2 129.42 634.55 148.5 642.21 137.93 604.7 110.77 561.86 169.92 599.37 197.08 607.03 186.51 580.68 167.42 590.61 153.71" fill="#073455"/>
      <path d="M689.16,193.22c-1.35-6.26-4.58-12.32-9.67-18.16l-16.21-18.61-55.06,47.98,16.21,18.61c5.09,5.84,10.63,9.88,16.63,12.1s12.06,2.66,18.2,1.32,11.93-4.37,17.36-9.11c5.43-4.73,9.22-10.04,11.36-15.92s2.53-11.95,1.18-18.21ZM675.07,206.71c-1.46,3.66-3.98,7.05-7.57,10.18-3.54,3.08-7.23,5.1-11.08,6.07-3.85.96-7.69.72-11.52-.72s-7.51-4.19-11.04-8.24l-6.77-7.77,35.38-30.82,6.77,7.77c3.53,4.05,5.75,8.07,6.65,12.06.91,3.99.63,7.81-.83,11.47h.01Z" fill="#073455"/>
    </g>
    <g>
      <path d="M227,654.07c-1.61-3.83-4.3-7.15-8.06-9.95-3.77-2.8-7.72-4.44-11.85-4.93-4.14-.48-8.1.12-11.87,1.8-3.78,1.69-7.02,4.34-9.71,7.96-2.7,3.62-4.31,7.49-4.84,11.59s.03,8.07,1.68,11.89,4.36,7.14,8.12,9.94,7.71,4.43,11.82,4.9c4.11.47,8.06-.14,11.84-1.83s7.01-4.34,9.71-7.96c2.7-3.62,4.3-7.48,4.81-11.55.51-4.08-.04-8.04-1.65-11.87h0ZM217.41,663.93c-.24,2.24-1.18,4.46-2.83,6.67-1.65,2.21-3.52,3.76-5.61,4.66-2.09.89-4.19,1.2-6.28.92-2.1-.28-4.04-1.08-5.83-2.42-1.74-1.3-3.07-2.92-3.99-4.89-.92-1.96-1.25-4.07-.99-6.33s1.21-4.5,2.85-6.71c1.65-2.21,3.51-3.75,5.58-4.62s4.19-1.16,6.35-.87,4.11,1.08,5.85,2.38c1.79,1.33,3.11,2.97,3.96,4.92s1.16,4.04.92,6.28h.02,0Z" fill="#073455"/>
      <path d="M269.19,674.6c-2.57-1.29-5.24-1.92-8.01-1.9-2.77.03-5.24.71-7.42,2.04l-.63-.32,2.52-5.04-9.68-4.85-20.1,40.12,10.31,5.16,10.25-20.46c1.05-2.1,2.38-3.81,4-5.13,1.61-1.32,3.37-2.15,5.28-2.48,1.9-.33,3.8-.02,5.69.93,2.31,1.16,3.78,2.77,4.42,4.83s.3,4.4-1.01,7.02l-11.87,23.68,10.31,5.17,12.5-24.94c2.5-4.98,3.26-9.59,2.29-13.81s-3.92-7.57-8.85-10.04v.02Z" fill="#073455"/>
      <path d="M345.59,711.85l-1.89,9.94,19.45,3.7c-.63,1.73-1.58,3.36-2.85,4.88-1.27,1.52-2.84,2.82-4.68,3.9-1.85,1.08-3.97,1.81-6.37,2.19s-5.04.29-7.92-.25c-2.88-.55-5.5-1.57-7.84-3.06-2.35-1.49-4.3-3.36-5.88-5.6-1.58-2.24-2.66-4.76-3.26-7.56s-.6-5.82.02-9.04c.61-3.23,1.71-6.03,3.3-8.42,1.59-2.39,3.52-4.33,5.81-5.84,2.29-1.5,4.78-2.52,7.48-3.06,2.7-.53,5.46-.53,8.28,0,2.3.44,4.33,1.09,6.08,1.96s3.31,1.93,4.68,3.17c1.38,1.25,2.59,2.72,3.64,4.41l9.54-6.34c-2.24-3.59-5.19-6.63-8.84-9.12s-7.95-4.2-12.91-5.14c-4.5-.85-8.87-.85-13.13.01s-8.16,2.45-11.7,4.76c-3.55,2.31-6.54,5.28-8.99,8.9-2.45,3.62-4.12,7.77-5.01,12.44s-.86,9.14.09,13.41c.95,4.27,2.66,8.14,5.14,11.59,2.48,3.46,5.54,6.37,9.18,8.73,3.64,2.36,7.68,3.97,12.12,4.81s8.66.93,12.67.26,7.63-2.06,10.87-4.16,5.97-4.85,8.2-8.25,3.78-7.37,4.64-11.93c.14-.75.26-1.71.37-2.89.1-1.17.12-2.07.06-2.68l-30.34-5.77v.05h0Z" fill="#073455"/>
      <path d="M423.67,708.71c-3.61-2.06-7.76-3.05-12.46-2.97-4.69.07-8.83,1.18-12.4,3.32s-6.35,5.03-8.31,8.67c-1.97,3.64-2.91,7.72-2.84,12.23.07,4.52,1.15,8.56,3.23,12.14,2.08,3.58,4.94,6.38,8.58,8.4s7.81,3,12.5,2.93,8.81-1.18,12.36-3.32c3.54-2.14,6.3-5.03,8.27-8.67,1.97-3.64,2.92-7.72,2.84-12.23-.07-4.52-1.15-8.55-3.23-12.09-2.08-3.55-4.93-6.35-8.54-8.4h0ZM422.31,736.5c-1.11,1.98-2.58,3.5-4.42,4.56-1.83,1.06-3.86,1.6-6.09,1.64-2.17.03-4.22-.45-6.14-1.44-1.92-1-3.47-2.47-4.65-4.42-1.17-1.95-1.78-4.3-1.83-7.06-.04-2.76.49-5.11,1.6-7.07,1.11-1.95,2.61-3.47,4.5-4.56s3.92-1.65,6.09-1.68c2.23-.04,4.28.46,6.14,1.49,1.86,1.03,3.38,2.5,4.56,4.42,1.17,1.92,1.78,4.26,1.83,7.01.04,2.76-.49,5.13-1.61,7.11h.02Z" fill="#073455"/>
      <path d="M488.61,707.86c-2.65-3.14-5.94-5.42-9.84-6.83-3.91-1.41-8.17-1.68-12.78-.81s-8.5,2.67-11.65,5.38c-3.16,2.72-5.4,6.04-6.71,9.96-1.32,3.92-1.56,8.1-.72,12.54s2.59,8.24,5.25,11.41,5.96,5.44,9.89,6.82c3.93,1.38,8.2,1.63,12.82.76,4.61-.87,8.48-2.67,11.61-5.38,3.13-2.71,5.35-6.03,6.67-9.95s1.56-8.1.72-12.54-2.59-8.23-5.24-11.37h-.02ZM482.15,728.65c-.76,2.14-1.95,3.89-3.58,5.24-1.62,1.35-3.53,2.24-5.72,2.65-2.13.4-4.23.28-6.3-.38-2.06-.65-3.84-1.84-5.33-3.56s-2.49-3.93-3-6.64-.39-5.12.38-7.24c.76-2.11,1.98-3.87,3.66-5.26s3.58-2.29,5.72-2.69c2.19-.41,4.29-.27,6.3.42s3.76,1.89,5.24,3.58c1.48,1.69,2.48,3.89,2.99,6.6.51,2.71.39,5.14-.37,7.28h0Z" fill="#073455"/>
      <path d="M540.12,678.75l-10.36,3.94,1.69,4.44-.66.25c-2.05-1.42-4.32-2.2-6.83-2.34-2.5-.14-5.13.3-7.87,1.35-3.4,1.29-6.26,3.39-8.58,6.28-2.32,2.89-3.79,6.29-4.4,10.2-.62,3.91-.07,8.11,1.64,12.6,1.69,4.44,4.07,7.93,7.14,10.46,3.07,2.54,6.43,4.11,10.09,4.73,3.66.62,7.18.28,10.58-1.02,2.74-1.04,4.99-2.47,6.76-4.27s2.95-3.88,3.55-6.25l.66-.25,1.25,3.29c1.48,3.89,1.6,7.25.35,10.08s-3.54,4.88-6.89,6.15c-2.36.9-4.66,1.07-6.91.51-2.25-.55-4.2-1.68-5.85-3.38l-8.55,7.96c1.48,1.76,3.46,3.23,5.92,4.43,2.46,1.2,5.3,1.86,8.52,1.98,3.22.12,6.72-.53,10.5-1.97,4.39-1.67,7.84-4.01,10.37-7.01s4.04-6.48,4.55-10.44c.5-3.96-.1-8.19-1.81-12.68l-14.87-39.07v.03h0ZM538.43,710.04c-.34,2.17-1.17,4.02-2.5,5.56s-2.95,2.68-4.87,3.41-3.9.98-5.93.75c-2.03-.23-3.9-1.04-5.59-2.44-1.69-1.39-3.03-3.38-4.01-5.96-1-2.63-1.33-5.02-.98-7.16.35-2.14,1.2-3.97,2.57-5.5,1.37-1.52,3.01-2.65,4.93-3.38s3.88-.97,5.89-.73,3.85,1.05,5.53,2.41c1.68,1.37,3.02,3.37,4.03,6,.96,2.52,1.27,4.87.94,7.04h-.01Z" fill="#073455"/>
      <rect x="557.42" y="649.77" width="11.53" height="63.01" transform="translate(-255.79 348.71) rotate(-28.32)" fill="#073455"/>
      <path d="M627.75,664.1l-10.25,1.7c.2,2.09-.12,4.18-.95,6.25s-2.37,3.91-4.61,5.51c-1.91,1.36-3.96,2.16-6.14,2.38-2.18.23-4.33-.18-6.45-1.23-1.35-.67-2.62-1.62-3.81-2.85l27.39-19.56c-.12-.27-.36-.7-.7-1.28s-.79-1.26-1.33-2.02c-2.42-3.39-5.32-5.99-8.7-7.79s-7-2.59-10.87-2.35c-3.87.24-7.76,1.76-11.67,4.55-3.63,2.59-6.21,5.79-7.75,9.59-1.54,3.8-2.06,7.76-1.57,11.88s1.98,7.92,4.47,11.41c2.66,3.72,5.85,6.45,9.58,8.19,3.73,1.74,7.63,2.41,11.71,2.02,4.08-.39,7.96-1.9,11.64-4.53,4.06-2.9,6.85-6.21,8.37-9.93s2.07-7.7,1.64-11.93h0ZM591.25,660c.82-2.03,2.14-3.69,3.95-4.99,1.38-.99,2.78-1.64,4.17-1.95,1.4-.31,2.73-.38,4.01-.21,1.27.17,2.43.53,3.48,1.08,1.04.55,1.88,1.22,2.51,2l-18.21,13.01c-.28-.81-.49-1.62-.62-2.43-.35-2.31-.12-4.48.71-6.51Z" fill="#073455"/>
    </g>
  </g>
  <g id="uuid-231f304f-dc3c-4170-bb8c-5e2150eb732e" data-name="uuid-240bdda2-5da7-4607-b590-45041ee49b7a">
    <path d="M409.47,335.84c32.75,0,61.99,12.28,84.79,32.16l-37.43,37.43c-12.87-10.53-29.24-16.96-47.37-16.96-33.74,0-62.21,21.79-72.19,52.12-2.47,7.51-3.83,15.54-3.83,23.9s1.34,16.31,3.79,23.8c9.95,30.38,38.44,52.22,72.23,52.22,16.53,0,31.17-3.9,42.77-11.22,13.43-8.48,22.78-21.54,26.24-38.49h-69v-49.71h119.88c1.75,7.6,2.92,15.79,2.92,23.39,0,41.93-15.34,74.65-38.95,96.61-22.49,20.91-52.47,32.04-83.85,32.04-50.85,0-94.57-29.12-115.49-71.69-8.43-17.15-13.16-36.48-13.16-56.96s4.74-39.84,13.18-57c20.93-42.55,64.63-71.65,115.47-71.65h0ZM409.47,325.84c-26.47,0-52.16,7.41-74.3,21.42-21.55,13.64-38.89,32.94-50.14,55.82-9.43,19.17-14.21,39.83-14.21,61.41s4.77,42.22,14.19,61.37c11.25,22.88,28.59,42.19,50.14,55.84,22.14,14.02,47.84,21.43,74.32,21.43,34.38,0,66.58-12.33,90.66-34.72,13.23-12.3,23.58-27.2,30.74-44.26,7.57-18.02,11.4-38.1,11.4-59.67,0-7.76-1.1-16.62-3.18-25.64l-1.79-7.75h-137.83v69.71h65.25c-3.9,8.24-9.93,15.05-17.82,20.03-10.03,6.33-22.97,9.68-37.43,9.68-28.64,0-53.84-18.22-62.72-45.34-2.19-6.68-3.3-13.64-3.3-20.68s1.12-14.07,3.33-20.78c8.91-27.06,34.1-45.25,62.69-45.25,15.09,0,29.28,5.08,41.03,14.7l7,5.73,6.4-6.4,37.43-37.43,7.57-7.57-8.07-7.04c-25.98-22.65-57.58-34.63-91.36-34.63h0v.02h0Z" fill="#073455"/>
    <path d="M409.47,335.84c32.75,0,61.99,12.28,84.79,32.16l-37.43,37.43c-12.87-10.53-29.24-16.96-47.37-16.96-33.74,0-62.21,21.79-72.19,52.12-2.47,7.51-3.83,15.54-3.83,23.9s1.34,16.31,3.79,23.8c9.95,30.38,38.44,52.22,72.23,52.22,16.53,0,31.17-3.9,42.77-11.22,13.43-8.48,22.78-21.54,26.24-38.49h-69v-49.71h119.88c1.75,7.6,2.92,15.79,2.92,23.39,0,41.93-15.34,74.65-38.95,96.61-22.49,20.91-52.47,32.04-83.85,32.04-50.85,0-94.57-29.12-115.49-71.69-8.43-17.15-13.16-36.48-13.16-56.96s4.74-39.84,13.18-57c20.93-42.55,64.63-71.65,115.47-71.65h0ZM409.47,330.84c-25.52,0-50.29,7.14-71.63,20.65-20.78,13.15-37.49,31.75-48.33,53.8-9.09,18.47-13.69,38.39-13.69,59.21s4.6,40.71,13.67,59.17c10.84,22.05,27.55,40.67,48.33,53.82,21.34,13.51,46.12,20.66,71.65,20.66,33.11,0,64.1-11.86,87.25-33.38,12.71-11.82,22.65-26.13,29.54-42.54,7.31-17.41,11.01-36.83,11.01-57.73,0-7.39-1.06-15.86-3.05-24.52l-.89-3.88h-128.86v59.71h67.56c-3.87,12.34-11.55,22.37-22.46,29.26-10.83,6.83-24.7,10.45-40.1,10.45-30.8,0-57.92-19.6-67.48-48.78-2.35-7.18-3.55-14.67-3.55-22.24s1.2-15.12,3.58-22.34c9.58-29.12,36.69-48.68,67.44-48.68,16.26,0,31.54,5.47,44.2,15.83l3.5,2.87,3.2-3.2,37.43-37.43,3.79-3.79-4.04-3.52c-25.06-21.85-55.52-33.39-88.08-33.39h0Z" fill="#fbb03b"/>
    <path d="M333.45,464.5c0-8.36,1.36-16.39,3.83-23.91l-43.27-33.09c-8.44,17.16-13.18,36.5-13.18,57s4.74,39.83,13.17,56.98l43.27-33.09c-2.47-7.51-3.83-15.53-3.83-23.89Z" fill="#fbbc05"/>
    <path d="M294.01,407.5l43.27,33.09c9.98-30.32,38.45-52.11,72.19-52.11,18.13,0,34.5,6.43,47.37,16.96l37.43-37.43c-22.81-19.88-52.05-32.16-84.79-32.16-50.84,0-94.54,29.11-115.47,71.65Z" fill="#ea4335"/>
    <path d="M529.35,441.11h0s-119.88-.01-119.88-.01v49.71h69c-6.43,31.58-33.33,49.71-69,49.71-33.78,0-62.28-21.85-72.23-52.24l-43.26,33.16c20.92,42.57,64.64,71.7,115.5,71.7,64.33,0,122.8-46.78,122.8-128.65,0-7.6-1.17-15.79-2.92-23.39h-.01Z" fill="#34a853"/>
    <path d="M529.35,441.11h0s-119.88-.01-119.88-.01v49.71h69c-3.45,16.94-12.79,30-26.22,38.48l41.08,31.81c23.6-21.95,38.94-54.67,38.94-96.6,0-7.6-1.17-15.79-2.92-23.39h-.01Z" fill="#4285f4"/>
  </g>
  <g id="uuid-90dd2f6b-33d9-409b-b3f2-1d9e23944654" data-name="uuid-70dbcfc6-f48d-40f8-8c47-85ac2af0d741">
    <g>
      <polygon points="406.55 151.25 427.86 216.86 496.84 216.86 441.04 257.4 462.35 323.01 406.55 282.46 350.74 323.01 372.06 257.4 316.25 216.86 385.23 216.86 406.55 151.25" fill="#fbb03b"/>
      <path d="M406.55,151.25l21.32,65.6h68.98l-55.81,40.55,21.32,65.6-55.81-40.55-55.81,40.55,21.32-65.6-55.81-40.55h68.98l21.32-65.6M406.55,138.31l-3.8,11.71-20.42,62.84h-78.38l9.96,7.24,53.45,38.84-20.42,62.84-3.8,11.71,9.96-7.24,53.45-38.84,53.45,38.84,9.96,7.24-3.8-11.71-20.42-62.84,53.45-38.84,9.96-7.24h-78.38l-20.42-62.84-3.8-11.71h0Z" fill="#073455"/>
    </g>
    <polygon points="406.55 246.2 406.55 151.25 427.86 216.86 406.55 246.2" fill="#ff8c17"/>
    <polygon points="350.74 323.01 406.55 246.2 462.35 323.01 406.55 282.46 350.74 323.01" fill="#ff8c17"/>
    <polygon points="316.25 216.86 406.55 246.2 372.06 257.4 316.25 216.86" fill="#ff8c17"/>
    <polygon points="441.04 257.4 406.55 246.2 496.84 216.86 441.04 257.4" fill="#ff8c17"/>
  </g>
  <g id="uuid-95a26c69-6433-43c0-bc4e-fd25f605b348" data-name="uuid-90286fa3-cfa5-4d61-a456-96a2066adff9">
    <g>
      <polygon points="545.66 210.75 562.02 261.12 614.98 261.12 572.14 292.25 588.5 342.62 545.66 311.49 502.81 342.62 519.18 292.25 476.33 261.12 529.29 261.12 545.66 210.75" fill="#fbb03b"/>
      <path d="M545.66,210.75l16.37,50.37h52.96l-42.85,31.13,16.37,50.37-42.85-31.13-42.85,31.13,16.37-50.37-42.85-31.13h52.96l16.37-50.37M545.66,201.04l-2.85,8.78-15.69,48.3h-60.01l7.47,5.43,41.08,29.85-15.69,48.3-2.85,8.78,7.47-5.43,41.08-29.85,41.08,29.85,7.47,5.43-2.85-8.78-15.69-48.3,41.08-29.85,7.47-5.43h-60.01l-15.69-48.3-2.85-8.78h-.02Z" fill="#073455"/>
    </g>
    <polygon points="545.66 283.65 545.66 210.75 562.02 261.12 545.66 283.65" fill="#ff8c17"/>
    <polygon points="502.81 342.62 545.66 283.65 588.5 342.62 545.66 311.49 502.81 342.62" fill="#ff8c17"/>
    <polygon points="476.33 261.12 545.66 283.65 519.18 292.25 476.33 261.12" fill="#ff8c17"/>
    <polygon points="572.14 292.25 545.66 283.65 614.98 261.12 572.14 292.25" fill="#ff8c17"/>
    <g>
      <polygon points="267.43 210.75 283.8 261.12 336.76 261.12 293.91 292.25 310.28 342.62 267.43 311.49 224.59 342.62 240.95 292.25 198.11 261.12 251.07 261.12 267.43 210.75" fill="#fbb03b"/>
      <path d="M267.43,210.75l16.37,50.37h52.96l-42.85,31.13,16.37,50.37-42.85-31.13-42.85,31.13,16.37-50.37-42.85-31.13h52.96l16.37-50.37M267.43,201.04l-2.85,8.78-15.69,48.3h-60.01l7.47,5.43,41.08,29.85-15.69,48.3-2.85,8.78,7.47-5.43,41.08-29.85,41.08,29.85,7.47,5.43-2.85-8.78-15.69-48.3,41.08-29.85,7.47-5.43h-60.01l-15.69-48.3-2.85-8.78h-.02Z" fill="#073455"/>
    </g>
    <polygon points="267.43 283.65 267.43 210.75 283.8 261.12 267.43 283.65" fill="#ff8c17"/>
    <polygon points="224.59 342.62 267.43 283.65 310.28 342.62 267.43 311.49 224.59 342.62" fill="#ff8c17"/>
    <polygon points="198.11 261.12 267.43 283.65 240.95 292.25 198.11 261.12" fill="#ff8c17"/>
    <polygon points="293.91 292.25 267.43 283.65 336.76 261.12 293.91 292.25" fill="#ff8c17"/>
    <g>
      <polygon points="194.99 325.42 211.36 375.79 264.32 375.79 221.47 406.92 237.84 457.29 194.99 426.16 152.14 457.29 168.51 406.92 125.66 375.79 178.62 375.79 194.99 325.42" fill="#fbb03b"/>
      <path d="M194.99,325.42l16.37,50.37h52.96l-42.85,31.13,16.37,50.37-42.85-31.13-42.85,31.13,16.37-50.37-42.85-31.13h52.96l16.37-50.37M194.99,315.71l-2.85,8.78-15.69,48.3h-60.01l7.47,5.43,41.08,29.85-15.69,48.3-2.85,8.78,7.47-5.43,41.08-29.85,41.08,29.85,7.47,5.43-2.85-8.78-15.69-48.3,41.08-29.85,7.47-5.43h-60.01l-15.69-48.3-2.85-8.78h-.02,0Z" fill="#073455"/>
    </g>
    <polygon points="194.99 398.31 194.99 325.42 211.36 375.79 194.99 398.31" fill="#ff8c17"/>
    <polygon points="152.14 457.29 194.99 398.31 237.84 457.29 194.99 426.16 152.14 457.29" fill="#ff8c17"/>
    <polygon points="125.66 375.79 194.99 398.31 168.51 406.92 125.66 375.79" fill="#ff8c17"/>
    <polygon points="221.47 406.92 194.99 398.31 264.32 375.79 221.47 406.92" fill="#ff8c17"/>
    <g>
      <polygon points="618.1 325.42 634.47 375.79 687.43 375.79 644.58 406.92 660.95 457.29 618.1 426.16 575.25 457.29 591.62 406.92 548.77 375.79 601.74 375.79 618.1 325.42" fill="#fbb03b"/>
      <path d="M618.1,325.42l16.37,50.37h52.96l-42.85,31.13,16.37,50.37-42.85-31.13-42.85,31.13,16.37-50.37-42.85-31.13h52.96l16.37-50.37M618.1,315.71l-2.85,8.78-15.69,48.3h-60.01l7.47,5.43,41.08,29.85-15.69,48.3-2.85,8.78,7.47-5.43,41.08-29.85,41.08,29.85,7.47,5.43-2.85-8.78-15.69-48.3,41.08-29.85,7.47-5.43h-60.01l-15.69-48.3-2.85-8.78h-.02Z" fill="#073455"/>
    </g>
    <polygon points="618.1 398.31 618.1 325.42 634.47 375.79 618.1 398.31" fill="#ff8c17"/>
    <polygon points="575.25 457.29 618.1 398.31 660.95 457.29 618.1 426.16 575.25 457.29" fill="#ff8c17"/>
    <polygon points="548.77 375.79 618.1 398.31 591.62 406.92 548.77 375.79" fill="#ff8c17"/>
    <polygon points="644.58 406.92 618.1 398.31 687.43 375.79 644.58 406.92" fill="#ff8c17"/>
  </g>
</svg>