<svg fill="currentColor" xmlns="http://www.w3.org/2000/svg" width="746.98" height="226.99" viewBox="0 0 746.98 226.99">
  <path d="M536.58,115l-1.63,11.61,9.79,4.22,17.94,25.32s-.05.39-.08.64c-.43,4.72.08,22.57.08,22.57l9.79,7.39,1.63,13.72-11.42-6.33s1.24,8.98,2.35,16.51c-12.05-.66-24.23-1.24-36.52-1.76-4.34-9.36-16.39-31.63-16.39-31.63l-39.14-22.16-16.31-18.99-6.52-37.98-19.57-15.83-9.79,25.32-6.52-47.48-102.75,78.07-8.16-4.22-23.32,17.19,6.08,5.41,27.02,1.66,22.83,24.27-25.96-4.62s23.17,20.65,32.31,28.66c-26.59.41-53.66,1.13-81.23,2.17.1-7.28-.14-17.77-.14-17.77l-50.56-39.04-39.14,27.43-1.63-20.05-91.82,60.57s-50.43,4.39-76.18,6.96c-.56.06-1.07.11-1.62.16,43.34-26.29,147.13-83.35,172.88-88.79,15.36-15.5,29.36-27.43,29.36-27.43l21.2,1.05,3.26,4.22,9.79-2.11,14.68,7.39,13.05-1.06,97.86-66.47,9.79-1.05L453.4,0l6.52,11.61,11.42,8.44,60.35,60.14s11.99.18,21.2,0c5.96,6.15,149.64,108.22,194.09,146.65-28.3-12.84-153.31-66.47-153.31-66.47l-57.09-45.37h0Z" fill-rule="evenodd"/>
</svg>