<?xml version="1.0" encoding="UTF-8"?>
<svg id="uuid-b542446a-595b-4290-a9c6-7cf4ccefa901" data-name="Layer 1" xmlns="http://www.w3.org/2000/svg" width="100" height="100" viewBox="0 0 100 100">
  <path d="M68.94,20.49c-6.42,1.32-10.16,6.04-12.35,8.79h-25.53v-8.79h37.89Z" fill="#144fa2" fill-rule="evenodd"/>
  <path d="M25.25,70.73h6.77c3.62,0,10.39-3.05,13.45-6.86,3.07-3.81,20.41-26.25,26.08-32.95.49-.57.98-1.12,1.49-1.65h20.47c-3.52,0-10.21.97-13.73,5.77-3.52,4.79-21.74,27.51-28,34.87-6.27,7.36-13.54,9.61-19.49,9.61H6.48c5.72,0,12.67-2.09,18.77-8.79Z" fill="#144fa2" fill-rule="evenodd"/>
  <path d="M-11.5,70.73v8.79H7.44c5.95,0,13.23-2.25,19.49-9.61,6.27-7.36,24.48-30.08,28-34.87,3.52-4.79,10.21-5.77,13.73-5.77h42.83v-8.79h-43.38c-7.87,0-15.4,3.33-21.42,10.43-5.67,6.69-23.02,29.14-26.08,32.95-3.07,3.81-9.84,6.86-13.45,6.86H-11.5Z" fill="#168bcc" fill-rule="evenodd"/>
</svg>