<?xml version="1.0" encoding="UTF-8"?>
<svg id="uuid-78c9ee3d-db4c-452c-8ffe-40b4a8ea2f7c" data-name="Layer 1" xmlns="http://www.w3.org/2000/svg" width="1245.94" height="210.61" xmlns:xlink="http://www.w3.org/1999/xlink" viewBox="0 0 1245.94 210.61">
  <defs>
    <linearGradient id="uuid-9fcbce18-4c50-47d3-a363-8d7b6f99d964" x1="328.24" y1="109.43" x2="1245.94" y2="109.43" gradientUnits="userSpaceOnUse">
      <stop offset="0" stop-color="#144fa2"/>
      <stop offset="1" stop-color="#223c77"/>
    </linearGradient>
  </defs>
  <path d="M648.49,96.38v62.1h-24.3v-62.1c0-11.4-5.55-15.45-12.9-15.45s-12.9,4.05-12.9,15.45v62.1h-24.3v-62.1c0-11.4-5.7-15.45-12.9-15.45s-12.9,4.05-12.9,15.45v62.1h-24.3v-62.1c0-26.25,15.3-37.95,35.1-37.95,11.85,0,21.3,4.65,27.15,13.5,5.85-8.85,15.3-13.5,27.15-13.5,19.8,0,35.1,11.7,35.1,37.95ZM489.34,158.48h24.3V60.38h-24.3v98.1ZM404.89,82.88h26.7v75.6h24.3v-75.6h26.85v-22.5h-77.85v22.5ZM370.09,98.93c-9.15-1.65-16.65-3.15-16.65-9.6,0-5.1,3.45-10.05,12.15-10.05s12,4.5,12.15,10.2h22.8c-.75-18.6-14.7-31.05-35.25-31.05s-35.25,13.2-35.25,31.8c0,23.85,17.85,27.15,31.8,29.7,9,1.65,16.5,3.15,16.5,9.6s-3.75,10.05-13.2,10.05-13.2-3.9-13.2-10.05h-23.7c.45,19.05,15,30.9,36.9,30.9s36.9-12.3,36.9-31.8c0-23.85-17.85-27.15-31.95-29.7ZM695.44,98.93c-9.15-1.65-16.65-3.15-16.65-9.6,0-5.1,3.45-10.05,12.15-10.05s12,4.5,12.15,10.2h22.8c-.75-18.6-14.7-31.05-35.25-31.05s-35.25,13.2-35.25,31.8c0,23.85,17.85,27.15,31.8,29.7,9,1.65,16.5,3.15,16.5,9.6s-3.75,10.05-13.2,10.05-13.2-3.9-13.2-10.05h-23.7c.45,19.05,15,30.9,36.9,30.9s36.9-12.3,36.9-31.8c0-23.85-17.85-27.15-31.95-29.7ZM1019.74,158.48h24.3V60.38h-24.3v98.1ZM854.29,109.43c0,29.4-18,49.05-52.5,49.05h-34.65V60.38h34.65c34.5,0,52.5,19.65,52.5,49.05ZM829.69,109.43c0-16.35-8.25-26.55-27.9-26.55h-10.35v53.1h10.35c19.65,0,27.9-10.2,27.9-26.55ZM1203.94,58.43c-27,0-42,15.9-42,41.25v58.8h24.3v-58.8c0-12,5.7-18.75,17.7-18.75s17.7,6.75,17.7,18.75v58.8h24.3v-58.8c0-25.35-15-41.25-42-41.25ZM1097.89,123.38h31.5c-4.5,9.6-13.2,14.55-25.5,14.55-16.65,0-27.6-12-27.6-28.5s10.95-28.5,27.6-28.5c10.35,0,18.45,4.5,23.1,12h26.7c-6.45-20.7-25.35-34.5-49.8-34.5-30.6,0-52.2,21.6-52.2,51s21.6,51,52.2,51c28.8,0,49.65-19.2,52.05-45.9v-10.65h-58.05v19.5ZM980.44,98.93c-9.15-1.65-16.65-3.15-16.65-9.6,0-5.1,3.45-10.05,12.15-10.05s12,4.5,12.15,10.2h22.8c-.75-18.6-14.7-31.05-35.25-31.05s-35.25,13.2-35.25,31.8c0,23.85,17.85,27.15,31.8,29.7,9,1.65,16.5,3.15,16.5,9.6s-3.75,10.05-13.2,10.05-13.2-3.9-13.2-10.05h-23.7c.45,19.05,15,30.9,36.9,30.9s36.9-12.3,36.9-31.8c0-23.85-17.85-27.15-31.95-29.7ZM861.94,158.48h72.45v-22.5h-48.15v-17.55h39.45v-19.5h-39.45v-16.05h48.15v-22.5h-72.45v98.1Z" fill="url(#uuid-9fcbce18-4c50-47d3-a363-8d7b6f99d964)"/>
  <path d="M343.89,209.95h.48l8.01-19.86,7.79,19.86h.51l7.57-26.27h-2.68l-5.47,18.91-7.46-18.91h-.55l-7.57,18.91-5.36-18.91h-2.72l7.46,26.27Z" fill="#ece8e7"/>
  <path d="M373.2,209.95h15.06v-2.56h-12.42v-10.35h12.42v-2.56h-12.42v-8.23h12.42v-2.56h-15.06v26.27Z" fill="#ece8e7"/>
  <path d="M400.17,209.95c5.55,0,8.6-3.62,8.6-7.54,0-3.29-1.87-5.56-5.55-6.8,2.28-1.24,3.38-3.22,3.38-5.52,0-3.69-2.54-6.4-8.08-6.4h-5.58v26.27h7.24ZM395.58,186.25h3.45c3.05,0,4.81,1.5,4.81,3.84,0,1.46-.7,2.85-1.87,3.62-1.1.73-2.65.99-4.63.99h-1.76v-8.45ZM395.58,197.26h1.8c2.46,0,4.52.15,6.06.99,1.62.88,2.57,2.49,2.57,4.21,0,2.63-2.31,4.54-4.08,4.68-.88.07-2.02.26-3.16.26h-3.2v-10.13Z" fill="#ece8e7"/>
  <path d="M424.12,209.95h9.22c8.49,0,13.04-5.34,13.04-12.84,0-5.78-2.83-10.32-7.57-12.22-2.61-1.06-5.29-1.21-8.19-1.21h-6.5v26.27ZM426.77,207.39v-21.14h2.68c5.73,0,9.48.7,11.98,3.95,1.47,1.9,2.2,4.28,2.2,6.95s-.81,5.12-2.31,6.95c-2.35,2.85-5.66,3.29-10.66,3.29h-3.89Z" fill="#ece8e7"/>
  <path d="M451.49,209.95h15.06v-2.56h-12.42v-10.35h12.42v-2.56h-12.42v-8.23h12.42v-2.56h-15.06v26.27Z" fill="#ece8e7"/>
  <path d="M480.48,209.95h.59l11.46-26.27h-2.87l-8.89,20.3-8.74-20.3h-2.87l11.32,26.27Z" fill="#ece8e7"/>
  <path d="M496.97,209.95h15.06v-2.56h-12.42v-10.35h12.42v-2.56h-12.42v-8.23h12.42v-2.56h-15.06v26.27Z" fill="#ece8e7"/>
  <path d="M516.66,209.95h12.79v-2.56h-10.14v-23.71h-2.65v26.27Z" fill="#ece8e7"/>
  <path d="M546.2,183.03c-7.61,0-13.7,6.07-13.7,13.9,0,7.35,5.81,13.68,13.93,13.68s13.89-6.07,13.89-13.79-6.1-13.79-14.11-13.79ZM546.35,185.59c5.84,0,11.21,4.54,11.21,11.19s-5.03,11.27-11.21,11.27-11.1-4.65-11.1-11.12,5.29-11.34,11.1-11.34Z" fill="#ece8e7"/>
  <path d="M565.56,209.95h2.65v-12.22h2.61c3.64,0,6.36-.15,8.23-1.32,1.87-1.17,3.05-3.26,3.05-5.74,0-2.96-1.65-5.3-4.34-6.33-1.29-.48-3.34-.66-6.1-.66h-6.1v26.27ZM572.87,186.25c2.06,0,3.64.11,4.81.99.99.77,1.65,2.09,1.65,3.44s-.62,2.67-1.54,3.4c-1.18.95-2.94,1.1-5.22,1.1-1.36,0-2.87.04-4.37,0v-8.93h4.67Z" fill="#ece8e7"/>
  <path d="M588.71,209.95l2.54-18.95,9.48,18.95h.66l9.33-18.8,2.57,18.8h2.57l-3.75-26.27h-.44l-10.62,21.55-10.73-21.55h-.44l-3.75,26.27h2.57Z" fill="#ece8e7"/>
  <path d="M621.11,209.95h15.06v-2.56h-12.42v-10.35h12.42v-2.56h-12.42v-8.23h12.42v-2.56h-15.06v26.27Z" fill="#ece8e7"/>
  <path d="M643.48,209.95v-19.86l17.45,19.86h.59v-26.27h-2.65v20.12l-17.49-20.12h-.55v26.27h2.65Z" fill="#ece8e7"/>
  <path d="M671.29,186.25v23.71h2.65v-23.71h5.88v-2.56h-14.48v2.56h5.95Z" fill="#ece8e7"/>
  <path d="M741.79,209.95c5.55,0,8.6-3.62,8.6-7.54,0-3.29-1.87-5.56-5.55-6.8,2.28-1.24,3.38-3.22,3.38-5.52,0-3.69-2.54-6.4-8.08-6.4h-5.58v26.27h7.24ZM737.2,186.25h3.45c3.05,0,4.81,1.5,4.81,3.84,0,1.46-.7,2.85-1.87,3.62-1.1.73-2.65.99-4.63.99h-1.76v-8.45ZM737.2,197.26h1.8c2.46,0,4.52.15,6.06.99,1.62.88,2.57,2.49,2.57,4.21,0,2.63-2.31,4.54-4.08,4.68-.88.07-2.02.26-3.16.26h-3.2v-10.13Z" fill="#ece8e7"/>
  <path d="M770.52,200.37c0,2.05,0,3.88-1.4,5.6-1.14,1.43-2.72,2.09-4.7,2.09s-3.56-.66-4.7-2.09c-1.4-1.72-1.4-3.55-1.4-5.6v-16.68h-2.65v17.08c0,6.18,3.34,9.84,8.74,9.84s8.74-3.66,8.74-9.84v-17.08h-2.65v16.68Z" fill="#ece8e7"/>
  <path d="M791.9,187.31c-1.73-2.34-3.67-4.28-6.91-4.28-3.56,0-6.39,2.52-6.39,6.15,0,1.98.99,4.06,2.24,5.05,5.99,4.83,8.71,6.48,8.71,9.36,0,2.45-2.13,4.46-4.89,4.46-2.02,0-3.93-1.46-5.51-4.35l-2.24,1.35c1.95,3.55,4.34,5.56,7.97,5.56,4.3,0,7.42-3.37,7.42-7.06,0-4.24-3.64-6.77-8.6-10.43-1.51-1.13-2.35-2.63-2.35-4.06,0-1.72,1.29-3.33,3.56-3.33s3.42,1.35,4.85,3.22l2.13-1.65Z" fill="#ece8e7"/>
  <path d="M797.56,209.95h2.65v-26.27h-2.65v26.27Z" fill="#ece8e7"/>
  <path d="M808.95,209.95v-19.86l17.45,19.86h.59v-26.27h-2.65v20.12l-17.49-20.12h-.55v26.27h2.65Z" fill="#ece8e7"/>
  <path d="M833.45,209.95h15.06v-2.56h-12.42v-10.35h12.42v-2.56h-12.42v-8.23h12.42v-2.56h-15.06v26.27Z" fill="#ece8e7"/>
  <path d="M865.38,187.31c-1.73-2.34-3.67-4.28-6.91-4.28-3.56,0-6.39,2.52-6.39,6.15,0,1.98.99,4.06,2.24,5.05,5.99,4.83,8.71,6.48,8.71,9.36,0,2.45-2.13,4.46-4.89,4.46-2.02,0-3.93-1.46-5.51-4.35l-2.24,1.35c1.95,3.55,4.34,5.56,7.97,5.56,4.3,0,7.42-3.37,7.42-7.06,0-4.24-3.64-6.77-8.6-10.43-1.51-1.13-2.35-2.63-2.35-4.06,0-1.72,1.29-3.33,3.56-3.33s3.42,1.35,4.85,3.22l2.13-1.65Z" fill="#ece8e7"/>
  <path d="M883.67,187.31c-1.73-2.34-3.67-4.28-6.91-4.28-3.56,0-6.39,2.52-6.39,6.15,0,1.98.99,4.06,2.24,5.05,5.99,4.83,8.71,6.48,8.71,9.36,0,2.45-2.13,4.46-4.89,4.46-2.02,0-3.93-1.46-5.51-4.35l-2.24,1.35c1.95,3.55,4.34,5.56,7.97,5.56,4.3,0,7.42-3.37,7.42-7.06,0-4.24-3.64-6.77-8.6-10.43-1.51-1.13-2.35-2.63-2.35-4.06,0-1.72,1.29-3.33,3.56-3.33s3.42,1.35,4.85,3.22l2.13-1.65Z" fill="#ece8e7"/>
  <path d="M912.14,187.31c-1.73-2.34-3.67-4.28-6.91-4.28-3.56,0-6.39,2.52-6.39,6.15,0,1.98.99,4.06,2.24,5.05,5.99,4.83,8.71,6.48,8.71,9.36,0,2.45-2.13,4.46-4.89,4.46-2.02,0-3.93-1.46-5.51-4.35l-2.24,1.35c1.95,3.55,4.34,5.56,7.97,5.56,4.3,0,7.42-3.37,7.42-7.06,0-4.24-3.64-6.77-8.6-10.43-1.51-1.13-2.35-2.63-2.35-4.06,0-1.72,1.29-3.33,3.56-3.33s3.42,1.35,4.85,3.22l2.13-1.65Z" fill="#ece8e7"/>
  <path d="M930.73,183.03c-7.61,0-13.7,6.07-13.7,13.9,0,7.35,5.81,13.68,13.93,13.68s13.89-6.07,13.89-13.79-6.1-13.79-14.11-13.79ZM930.88,185.59c5.84,0,11.21,4.54,11.21,11.19s-5.03,11.27-11.21,11.27-11.1-4.65-11.1-11.12,5.29-11.34,11.1-11.34Z" fill="#ece8e7"/>
  <path d="M950.13,209.95h12.79v-2.56h-10.14v-23.71h-2.65v26.27Z" fill="#ece8e7"/>
  <path d="M982.06,200.37c0,2.05,0,3.88-1.4,5.6-1.14,1.43-2.72,2.09-4.7,2.09s-3.56-.66-4.7-2.09c-1.4-1.72-1.4-3.55-1.4-5.6v-16.68h-2.65v17.08c0,6.18,3.34,9.84,8.74,9.84s8.74-3.66,8.74-9.84v-17.08h-2.65v16.68Z" fill="#ece8e7"/>
  <path d="M994.51,186.25v23.71h2.65v-23.71h5.88v-2.56h-14.48v2.56h5.95Z" fill="#ece8e7"/>
  <path d="M1006.45,209.95h2.65v-26.27h-2.65v26.27Z" fill="#ece8e7"/>
  <path d="M1027.68,183.03c-7.61,0-13.7,6.07-13.7,13.9,0,7.35,5.81,13.68,13.93,13.68s13.89-6.07,13.89-13.79-6.1-13.79-14.11-13.79ZM1027.83,185.59c5.84,0,11.21,4.54,11.21,11.19s-5.03,11.27-11.21,11.27-11.1-4.65-11.1-11.12,5.29-11.34,11.1-11.34Z" fill="#ece8e7"/>
  <path d="M1049.76,209.95v-19.86l17.45,19.86h.59v-26.27h-2.65v20.12l-17.49-20.12h-.55v26.27h2.65Z" fill="#ece8e7"/>
  <path d="M1086.5,187.31c-1.73-2.34-3.67-4.28-6.91-4.28-3.56,0-6.39,2.52-6.39,6.15,0,1.98.99,4.06,2.24,5.05,5.99,4.83,8.71,6.48,8.71,9.36,0,2.45-2.13,4.46-4.89,4.46-2.02,0-3.93-1.46-5.51-4.35l-2.24,1.35c1.95,3.55,4.34,5.56,7.97,5.56,4.3,0,7.42-3.37,7.42-7.06,0-4.24-3.64-6.77-8.6-10.43-1.51-1.13-2.35-2.63-2.35-4.06,0-1.72,1.29-3.33,3.56-3.33s3.42,1.35,4.85,3.22l2.13-1.65Z" fill="#ece8e7"/>
  <path d="M1134.63,209.95l2.54-18.95,9.48,18.95h.66l9.33-18.8,2.57,18.8h2.57l-3.75-26.27h-.44l-10.62,21.55-10.73-21.55h-.44l-3.75,26.27h2.57Z" fill="#ece8e7"/>
  <path d="M1167.03,209.95h15.06v-2.56h-12.42v-10.35h12.42v-2.56h-12.42v-8.23h12.42v-2.56h-15.06v26.27Z" fill="#ece8e7"/>
  <path d="M1186.68,209.95h9.22c8.49,0,13.04-5.34,13.04-12.84,0-5.78-2.83-10.32-7.57-12.22-2.61-1.06-5.29-1.21-8.19-1.21h-6.5v26.27ZM1189.33,207.39v-21.14h2.68c5.73,0,9.48.7,11.98,3.95,1.47,1.9,2.2,4.28,2.2,6.95s-.81,5.12-2.31,6.95c-2.35,2.85-5.66,3.29-10.66,3.29h-3.89Z" fill="#ece8e7"/>
  <path d="M1213.65,209.95h2.65v-26.27h-2.65v26.27Z" fill="#ece8e7"/>
  <path d="M1232.5,183.69l-12.49,26.27h2.94l4.11-8.63h11.39l4.15,8.63h2.83l-12.31-26.27h-.62ZM1237.27,198.76h-9.04l4.56-9.51,4.48,9.51Z" fill="#ece8e7"/>
  <path d="M1109.15,194.25c1.14,0,2.07.92,2.07,2.06s-.93,2.06-2.07,2.06-2.07-.92-2.07-2.06.93-2.06,2.07-2.06Z" fill="#ece8e7" fill-rule="evenodd"/>
  <path d="M705.74,194.25c1.14,0,2.07.92,2.07,2.06s-.93,2.06-2.07,2.06-2.07-.92-2.07-2.06.93-2.06,2.07-2.06Z" fill="#ece8e7" fill-rule="evenodd"/>
  <path d="M243.92,0c-22.92,4.7-36.24,21.55-44.08,31.35h-91.1V0h135.18Z" fill="#223c77" fill-rule="evenodd"/>
  <path d="M134.55,179.27h24.15c12.9,0,37.06-10.9,48-24.49,10.94-13.59,72.83-93.67,93.06-117.55,1.74-2.05,3.51-4,5.32-5.88h73.05c-12.57,0-36.41,3.47-48.98,20.57-12.57,17.1-77.55,98.17-99.92,124.41-22.36,26.24-48.33,34.29-69.55,34.29h-92.08c20.41,0,45.19-7.45,66.95-31.35Z" fill="#223c77" fill-rule="evenodd"/>
  <path d="M0,179.27v31.35h67.59c21.22,0,47.19-8.04,69.55-34.29,22.36-26.24,87.35-107.31,99.92-124.41,12.57-17.1,36.41-20.57,48.98-20.57h152.82V0h-154.78c-28.08,0-54.94,11.88-76.41,37.22-20.23,23.89-82.12,103.96-93.06,117.55-10.94,13.59-35.1,24.49-48,24.49H0Z" fill="#168bcc" fill-rule="evenodd"/>
</svg>