<svg id="aquastar" xmlns="http://www.w3.org/2000/svg" width="1014.21" height="266.44" viewBox="0 0 1014.21 266.44">
  <g>
    <g>
      <path d="M903.31,207.77c-33.42,0-48.92-25.51-92.75-14.31l7.53-23.44c31.47-15.92,55.99,11.6,84.65,11.6,16.74,0,22.25-3.37,27.61-4.61l7.79,22.53c-10.21,5.42-13.34,8.23-34.84,8.23Z" fill="#004b91"/>
      <path d="M837.9,229.01c-11.1-3.14-29.71-3.65-39.24.65,2.73-8.81,4.2-13.44,6.25-20.22,17.91-10.65,40.43-7.22,58.01.89l-25.02,18.69Z" fill="#004b90"/>
      <path d="M949.72,232.6c-3.3,5.31-21.89,8.2-24.54,7.47-6.96-4.55-12.03-9.1-25.63-18.64,19.17-1.49,23.79-1.65,42.75-10.15,3.17,9.57,4.62,13.23,7.42,21.32Z" fill="#004b90"/>
      <path d="M786.62,266.44l8.15-27.27c10.9-4.19,22.34-7.43,34.68-4.22l-42.83,31.49Z" fill="#024b91"/>
      <path d="M960.19,265.61l-25.13-18.01c7.63-1.31,12.08-2.86,17.24-6.63,1.83,6.38,3,9.49,7.89,24.64Z" fill="#044b91"/>
    </g>
    <path d="M841.93,148.83c-20.1,0-25.58,4.56-33.32,7.49l-76.68-55.09c27.76,0,98.69,1,108.35.56L873.67,0l11.68,35.79s20.02,62.17,21.49,65.98c10.42.54,107.37-.68,107.37-.68l-66.21,47.89c-15.15,10.96-23.39,15.92-44.17,15.92s-41.8-16.07-61.9-16.07ZM888.46,116.64c-2.77-7.9-15.86-49.36-15.86-49.36,0,0-11.61,34.46-12.91,39.57,10.56.9,18.67,4.34,28.77,9.78Z" fill="#009ddb"/>
  </g>
  <g>
    <path d="M47.7,80.18L2.83,187.69c-.4.96-1.5,2.54-2.83,3.71,2.02,0,9,.15,17.2.15-3.77-4.22,4.62-22.47,6.79-23.52l35.62-.08c5.08,11.42,5.6,21.89,18.53,23.44,5.2.62,10.67.86,16.27-.21,0,0-41.88-98.93-46.71-111.01ZM27.74,156.7l14.03-31.63,13.3,31.63h-27.33Z" fill="#009ddd"/>
    <path d="M441.01,136.14l-25.78-19.14c-1.81-1.34-9.98-8.82-1.49-18.11,5.13-5.61,27.62-7.32,34.53,7.01l-.26-18.39c-13.09-4.94-26.74-5-39.42-.34-18.34,6.75-27.79,35.63-.95,54.43l18.88,12.97c4.66,3.2,7.9,8.5,7.72,14.26-.12,3.97-2.82,7.95-5.88,9.91-11.96,7.68-26.33,4.62-33.43-8.04-.14,11.25-.14,15.54-.57,19.31,31.34,9.46,55.78-1.09,59.69-21.39,2.22-11.55-.87-23.44-13.04-32.47Z" fill="#003f83"/>
    <path d="M314.2,190.6c0,.13-14.73.08-14.73-.05,3.5-7.38,37.28-86.54,39.72-91.96l9.46,22.23,29.2,70.39c-3.9.67-7.02.63-10.56.63-11.67-.03-14.43-7.68-19.28-16.86l-29.42-.22-2.63,5.62c-1.69,3.63-3.14,6.73-1.77,10.22ZM342.81,164.23l-10.42-24.22-9.39,24.52c6.65.29,13.23,1.06,19.81-.3Z" fill="#009dde"/>
AquaStar copy    <path d="M546.73,190.6c0,.13-14.73.08-14.73-.05,3.5-7.38,37.28-86.54,39.72-91.96l9.46,22.23,29.2,70.39c-3.9.67-7.02.63-10.56.63-11.67-.03-14.43-7.68-19.28-16.86l-29.42-.22-2.63,5.62c-1.69,3.63-3.14,6.73-1.77,10.22ZM575.34,164.23l-10.42-24.22-9.39,24.52c6.65.29,13.23,1.06,19.81-.3Z" fill="#003f83"/>
    <path d="M682.03,150.43c7.97-4.01,14.87-9.95,15.96-18.35,1-7.67-.61-14.75-6.37-19.95-5-4.52-12.4-8.88-19.58-8.9l-50.63-.19c5.06,4.74,5.02,7.02,4.99,11.78l-.38,69.78c-.02,2.75-.94,5.31-4.13,6.92,0,0,30.19-.06,32.8-.06-5.76-3.44-5.83-8.77-5.81-13.58l.23-59.76c0-1.49-.13-1.94-.13-4.25,3.11,0,26.19-1.75,26.19,13.52,0,7.02-4.09,13.47-11.27,15.29-4.07,1.04-6.92.95-12.57.95l26.11,38.79c4.55,6.76,10.93,8.34,31.02,8.34-9.08-13.92-18.58-28.67-26.42-40.33Z" fill="#014b90"/>
    <path d="M252.51,193.79s-35.31.61-35.31-30.44l-.73-52.47c-.05-3.42-2.44-5.59-5.46-7.57l32.28-.37c-1.7,1.68-4.76,3.85-4.74,7.05l.34,52.69c0,6.71,11.15,19.37,28.13,14.58,5.63-1.59,11.4-8.52,12.05-16.07,1.4-16.29.09-32.6.57-49.19.1-3.34-2.29-5.47-4.33-8.61,6.84,0,11.81-.09,18.9.15l-2.63,6.58-.5,50.35c-.18,18.38-18.2,33.58-38.57,33.31Z" fill="#009ddd"/>
    <path d="M291.03,206.01c-64.72,34-79.72-7.89-119.71-16.62,19.82-8.24,27.02-30.65,25.93-45.23-1.9-25.44-22.98-43.98-47.7-43.39-7.07.17-47.84-.55-47.84,51.15,0,17.57,13.15,31.84,29.25,38.49-5.03,2.65-23.18,9.43-26.25,14.31,4.58-2.04,21.82-9.38,38.85-5.71,42.44,9.14,55.16,29.74,94.97,29.74,8.59,0,33.62-.85,52.51-22.74ZM159.26,177.77c-29.48,11.75-41.67-39.3-24.17-57.58l2.02-1.78c24.62-16.63,39.03,19.51,34.49,39.61,0,0-3.68,16.31-12.34,19.76Z" fill="#019edf"/>
    <path d="M540.03,102.91h-73.5c0,6.61-.02,11.6-.02,17.99,4.87-6.75,15.62-5.97,25.75-5.92l.08,64.79c0,6.8-2.12,8.47-4.31,11.02,9.91-.32,20.15.35,30.22,0-2.89-3.33-5-8.45-5-11.99v-63.94c4.44,0,14.02-.09,14.02-.09,5.14-.04,9.97,1.39,12.99,6.46,0-5.67-.33-11.83-.23-18.32Z" fill="#064888"/>
  </g>
  <g>
    <path d="M716.13,114.12c.35-.51.52-1.12.52-1.84s-.17-1.29-.5-1.75-.74-.8-1.22-1.02-.92-.34-1.34-.34h-4.98v9.8h2.19v-3.33h2.11l1.72,3.33h2.41l-2-3.82c.41-.25.78-.59,1.08-1.03ZM710.81,110.76h2.01c.27,0,.57.11.91.32s.51.61.51,1.2-.17,1.02-.5,1.31-.66.43-.96.43h-1.98v-3.26Z" fill="#003f83"/>
    <path d="M722.19,109.96c-.55-1.29-1.31-2.42-2.29-3.39s-2.11-1.74-3.39-2.3-2.67-.83-4.14-.83-2.84.28-4.12.83-2.42,1.32-3.39,2.3-1.74,2.11-2.3,3.39-.83,2.66-.83,4.12.28,2.84.83,4.12,1.32,2.42,2.3,3.39,2.11,1.74,3.39,2.3,2.66.83,4.12.83,2.86-.28,4.14-.83,2.42-1.32,3.39-2.3,1.74-2.11,2.29-3.39.82-2.66.82-4.12-.27-2.84-.82-4.12ZM719.35,118.15c-.73,1.22-1.7,2.19-2.92,2.92s-2.57,1.09-4.06,1.09-2.83-.36-4.05-1.09-2.2-1.7-2.93-2.92-1.09-2.57-1.09-4.06.36-2.84,1.09-4.06,1.7-2.19,2.93-2.92,2.58-1.09,4.05-1.09,2.84.36,4.06,1.09,2.19,1.7,2.92,2.92,1.09,2.57,1.09,4.06-.36,2.84-1.09,4.06Z" fill="#003f83"/>
  </g>
</svg>