<svg id="balboa" xmlns="http://www.w3.org/2000/svg" width="139.26" height="36.38" viewBox="0 0 139.26 36.38">
  <path d="M32.34,25.37c-5.45,6.56-15.19,7.46-21.75,2.01-6.56-5.45-7.46-15.19-2.01-21.75,1.32-1.58,2.94-2.89,4.76-3.84,1.83-.96,3.84-1.53,5.89-1.69l-.05-.1C10.21-.11,2.84,7.07,2.73,16.05c-.03,2.67.59,5.31,1.82,7.69,4.13,7.97,13.94,11.09,21.91,6.96,2.38-1.23,4.43-3.04,5.94-5.26,0,0-.06-.07-.06-.07Z" fill="#00add0" fill-rule="evenodd"/>
  <path d="M22.28,29.52c-1.82.01-3.63-.34-5.31-1.04-6.95-2.89-10.25-10.86-7.36-17.82C12.5,3.71,20.47.41,27.43,3.3c1.69.7,3.22,1.74,4.5,3.04l.06-.06C26.99.13,17.95-.79,11.81,4.22c-6.14,5.01-7.06,14.04-2.06,20.18,3.03,3.72,7.72,5.68,12.5,5.22,0,0,.03-.1.03-.1Z" fill="#00add0" fill-rule="evenodd"/>
  <path d="M36.72,12.97c.43,2.3.38,4.66-.14,6.94-2.31,9.59-11.83,15.6-21.48,13.57C5.57,31.32-.4,21.84,1.76,12.31c.52-2.29,1.5-4.45,2.88-6.35l-.1-.05C2.52,8.2,1.1,10.95.43,13.93c-2.17,9.95,4.13,19.78,14.08,21.96.05,0,.1.02.15.03,10.03,2.24,20-3.99,22.38-13.99.68-2.96.6-6.05-.23-8.97h-.09Z" fill="#00add0" fill-rule="evenodd"/>
  <path d="M25.6,3.67c2.06,1.33,3.18,3.72,2.89,6.16-.46,4.11-2.61,5.36-5.93,6.53-2.63.93-5.34,1.89-5.65,5.99s3.93,6.61,8.49,5.81c5.32-.94,9.29-6.13,9.31-11.8,0-4.01-1.64-9.95-9.05-12.77l-.06.08Z" fill="#00add0"/>
  <g>
    <path d="M44.45,26.41l-1.35,2.71h.89l.21-.47h1.46l.21.47h.89l-1.36-2.71s-.95,0-.95,0ZM44.49,28.03l.44-.98h0l.44.98s-.89,0-.89,0Z" fill="#141414"/>
    <polygon points="51.05 27.37 49.57 27.37 49.57 26.41 48.73 26.41 48.73 29.12 49.57 29.12 49.57 28.1 51.05 28.1 51.05 29.12 51.89 29.12 51.89 26.41 51.05 26.41 51.05 27.37" fill="#141414"/>
    <polygon points="53.38 28.05 55.19 28.05 55.19 27.44 53.38 27.44 53.38 27.06 55.29 27.06 55.29 26.41 52.55 26.41 52.55 29.12 55.33 29.12 55.33 29.11 55.33 28.45 53.38 28.45 53.38 28.05" fill="#141414"/>
    <polygon points="58.32 29.13 58.33 29.12 58.32 29.12 58.32 29.13" fill="#141414"/>
    <polygon points="56.7 28.4 56.7 26.41 55.86 26.41 55.86 29.12 58.32 29.12 58.32 28.4 56.7 28.4" fill="#141414"/>
    <rect x="58.78" y="26.41" width=".84" height="2.71" fill="#141414"/>
    <path d="M61.97,26.38h-.11c-1.43,0-1.65.18-1.65,1.36v.06c0,1.19.22,1.36,1.65,1.36h.11c1.44,0,1.65-.18,1.65-1.36v-.06c0-1.18-.22-1.36-1.65-1.36ZM62.77,27.77c0,.6-.04.66-.82.66h-.06c-.78,0-.82-.06-.82-.66v-.03c0-.59.04-.65.82-.65h.06c.78,0,.82.05.82.65v.03Z" fill="#141414"/>
    <path d="M65.77,27.42c-.75,0-.79-.03-.79-.19v-.02c0-.16.05-.2.68-.2h.11c.53,0,.57.06.57.2v.03h.82v-.06c0-.63-.15-.79-1.5-.79h-.15c-1.12,0-1.34.19-1.34.8v.05c0,.68.15.84,1.53.84.68,0,.73.05.73.21v.02c0,.16-.04.21-.68.21h-.1c-.57,0-.65-.05-.65-.21v-.06h-.85v.1c0,.65.15.81,1.55.81h.13c1.2,0,1.41-.21,1.41-.85v-.06c0-.66-.21-.83-1.47-.83Z" fill="#141414"/>
    <path d="M115.03,28.11c0,.26-.03.32-.68.32h-.06c-.77,0-.8-.07-.8-.66v-.03c0-.59.03-.65.8-.65h.06c.6,0,.65.06.65.28v.1h.84v-.17c0-.75-.23-.92-1.47-.92h-.11c-1.41,0-1.64.19-1.64,1.36v.06c0,1.18.24,1.36,1.64,1.36h.11c1.27,0,1.49-.22,1.49-.93v-.2h-.83s0,.08,0,.08Z" fill="#141414"/>
    <path d="M118.15,26.38h-.11c-1.43,0-1.65.18-1.65,1.36v.06c0,1.19.22,1.36,1.65,1.36h.11c1.44,0,1.65-.18,1.65-1.36v-.06c0-1.18-.22-1.36-1.65-1.36ZM118.95,27.77c0,.6-.04.66-.82.66h-.06c-.78,0-.82-.06-.82-.66v-.03c0-.59.04-.65.82-.65h.06c.78,0,.82.05.82.65v.03Z" fill="#141414"/>
    <polygon points="123.26 26.41 122.41 28.23 122.4 28.23 121.54 26.41 120.39 26.41 120.39 29.12 121.2 29.12 121.2 27.29 121.22 27.29 122.07 29.12 122.71 29.12 123.58 27.29 123.59 27.29 123.59 29.12 124.39 29.12 124.39 26.41 123.26 26.41" fill="#141414"/>
    <path d="M128.03,27.39c0-.82-.23-.98-1.24-.98h-1.72v2.71h.85v-.68h.87c1.01,0,1.24-.15,1.24-.98v-.07ZM127.2,27.44c0,.29-.04.33-.54.33h-.75v-.7h.75c.5,0,.54.03.54.33v.04Z" fill="#141414"/>
    <path d="M129.38,26.41l-1.35,2.71h.89l.21-.47h1.46l.21.47h.89l-1.36-2.71h-.95ZM129.41,28.03l.44-.98h0l.44.98h-.89,0Z" fill="#141414"/>
    <polygon points="134.55 28.34 134.54 28.34 133.26 26.41 132.07 26.41 132.07 29.12 132.88 29.12 132.88 27.18 132.89 27.18 134.2 29.12 135.36 29.12 135.36 26.41 134.55 26.41 134.55 28.34" fill="#141414"/>
    <polygon points="137.51 27.5 137.5 27.5 136.74 26.41 135.74 26.41 137.08 28.17 137.08 29.12 137.91 29.12 137.91 28.17 139.25 26.41 138.26 26.41 137.51 27.5" fill="#141414"/>
    <polygon points="73.68 28.05 75.49 28.05 75.49 27.44 73.68 27.44 73.68 27.06 75.59 27.06 75.59 26.41 72.85 26.41 72.85 29.12 75.63 29.12 75.63 29.11 75.63 28.45 73.68 28.45 73.68 28.05" fill="#141414"/>
    <path d="M71.3,26.41h-1.78v.62h.94v2.09h.84v-2.09h.93v-.61h-.93Z" fill="#141414"/>
    <path d="M89.4,26.38h-.11c-1.43,0-1.65.18-1.65,1.36v.06c0,1.19.22,1.36,1.65,1.36h.11c1.44,0,1.65-.18,1.65-1.36v-.06c0-1.18-.22-1.36-1.65-1.36ZM90.2,27.77c0,.6-.04.66-.82.66h-.06c-.78,0-.82-.06-.82-.66v-.03c0-.59.04-.65.82-.65h.06c.78,0,.82.05.82.65v.03Z" fill="#141414"/>
    <path d="M96.24,26.38h-.11c-1.43,0-1.65.18-1.65,1.36v.06c0,1.19.22,1.36,1.65,1.36h.11c1.44,0,1.65-.18,1.65-1.36v-.06c0-1.18-.22-1.36-1.65-1.36ZM97.04,27.77c0,.6-.04.66-.82.66h-.06c-.78,0-.82-.06-.82-.66v-.03c0-.59.04-.65.82-.65h.06c.78,0,.82.05.82.65v.03Z" fill="#141414"/>
    <path d="M78.57,28.11c0,.26-.03.32-.68.32h-.06c-.77,0-.8-.07-.8-.66v-.03c0-.59.03-.65.8-.65h.06c.6,0,.65.06.65.28v.1h.84v-.17c0-.75-.23-.92-1.47-.92h-.11c-1.41,0-1.64.19-1.64,1.36v.06c0,1.18.24,1.36,1.64,1.36h.11c1.27,0,1.49-.22,1.49-.93v-.2h-.83s0,.08,0,.08Z" fill="#141414"/>
    <polygon points="86.22 28.34 86.21 28.34 84.93 26.41 83.74 26.41 83.74 29.12 84.55 29.12 84.55 27.18 84.56 27.18 85.87 29.12 87.03 29.12 87.03 26.41 86.22 26.41 86.22 28.34" fill="#141414"/>
    <polygon points="104.54 28.05 106.35 28.05 106.35 27.44 104.54 27.44 104.54 27.06 106.45 27.06 106.45 26.41 103.71 26.41 103.71 29.12 106.49 29.12 106.49 29.11 106.49 28.45 104.54 28.45 104.54 28.05" fill="#141414"/>
    <polygon points="94.11 29.13 94.12 29.12 94.11 29.12 94.11 29.13" fill="#141414"/>
    <polygon points="92.49 28.4 92.49 26.41 91.65 26.41 91.65 29.12 94.11 29.12 94.11 28.4 92.49 28.4" fill="#141414"/>
    <rect x="102.2" y="26.41" width=".84" height="2.71" fill="#141414"/>
    <path d="M108.65,27.42c-.75,0-.79-.03-.79-.19v-.02c0-.16.05-.2.68-.2h.11c.53,0,.57.06.57.2v.03h.82v-.06c0-.63-.15-.79-1.5-.79h-.15c-1.12,0-1.34.19-1.34.8v.05c0,.68.15.84,1.53.84.68,0,.73.05.73.21v.02c0,.16-.04.21-.68.21h-.1c-.57,0-.65-.05-.65-.21v-.06h-.85v.1c0,.65.15.81,1.55.81h.13c1.2,0,1.41-.21,1.41-.85v-.06c0-.66-.21-.83-1.47-.83Z" fill="#141414"/>
    <path d="M100.12,28.03h.69v.08c0,.27-.04.32-.68.32h-.06c-.77,0-.8-.07-.8-.66v-.03c0-.59.03-.65.8-.65h1.54c-.05-.57-.34-.71-1.46-.71h-.11c-1.41,0-1.64.18-1.64,1.36v.06c0,1.18.24,1.36,1.64,1.36h.11c1.27,0,1.49-.22,1.49-.93v-.69h-1.52s0,.49,0,.49Z" fill="#141414"/>
    <polygon points="82.32 27.37 80.84 27.37 80.84 26.41 80 26.41 80 29.12 80.84 29.12 80.84 28.1 82.32 28.1 82.32 29.12 83.16 29.12 83.16 26.41 82.32 26.41 82.32 27.37" fill="#141414"/>
    <path d="M58.27,18.28c0-1.38-.88-2.56-2.37-2.93,1.12-.45,1.7-1.67,1.7-2.77,0-1.94-1.44-3.27-3.96-3.27h-10.2v12.61h10.2c3.17,0,4.63-1.6,4.63-3.64ZM45.78,11.38h7.55c1.16-.01,1.96.52,1.96,1.6,0,.88-.69,1.48-1.61,1.48h-7.9s0-3.08,0-3.08ZM45.78,19.76v-3.31h7.9c1.05,0,1.93.58,1.93,1.59,0,1.16-.9,1.72-2.28,1.72h-7.55Z" fill="#141414"/>
    <polygon points="89.1 19.58 79.09 19.58 79.09 9.31 76.75 9.31 76.75 21.92 89.1 21.92 89.1 19.58" fill="#141414"/>
    <path d="M105.55,18.28c0-1.38-.88-2.56-2.37-2.93,1.12-.45,1.7-1.67,1.7-2.77,0-1.94-1.44-3.27-3.96-3.27h-10.2v12.61h10.2c3.17,0,4.63-1.6,4.63-3.64ZM93.05,11.38h7.55c1.16-.01,1.96.52,1.96,1.6,0,.88-.69,1.48-1.61,1.48h-7.9s0-3.08,0-3.08ZM93.05,19.76v-3.31h7.9c1.05,0,1.93.58,1.93,1.59,0,1.16-.9,1.72-2.28,1.72h-7.55Z" fill="#141414"/>
    <path d="M115.16,22.33c4.43,0,8.11-2.49,8.11-6.73s-3.68-6.71-8.11-6.71-8.11,2.43-8.11,6.71,3.68,6.73,8.11,6.73ZM115.16,10.97c3.44,0,5.66,1.74,5.66,4.63s-2.22,4.65-5.66,4.65-5.66-1.78-5.66-4.65,2.22-4.63,5.66-4.63Z" fill="#141414"/>
    <polygon points="66.84 11.34 69.84 17.12 65.73 17.12 64.77 19.04 70.7 19.04 72.2 21.92 74.91 21.92 68.33 9.31 65.36 9.31 58.93 21.92 61.46 21.92 66.84 11.34" fill="#141414"/>
    <polygon points="131.19 11.34 134.2 17.12 130.08 17.12 129.12 19.04 135.06 19.04 136.55 21.92 139.26 21.92 132.68 9.31 129.71 9.31 123.28 21.92 125.81 21.92 131.19 11.34" fill="#141414"/>
  </g>
</svg>