<svg id="gecko" xmlns="http://www.w3.org/2000/svg" width="450.64" height="243.66" viewBox="0 0 450.64 243.66">
  <path d="M307.68,95.02c-9.28,15.63-36.53,26.4-53.12,31.11-25.19,7.15-50.46,9.63-76.76,9.66-26.98.04-52.88-3.31-78.29-11.99-23.55-8.04-51.05-22.48-63.26-44.76-7.26-13.25-6.14-28.46,3.17-40.3C64.76,6.52,129.85-2.22,169.19.45c-22.71,7.01-57.36,20.06-60.29,47.8-1.16,27.97,24.98,45.12,48.35,53.76,44.06,16.3,109,20.53,150.44-6.99Z" fill="#003056"/>
  <path d="M281.26,136.42c16.71-5.59,31.91-10.17,44.73-20.86,8.22-6.85,14.72-15.45,15.36-26.41,1.62-27.72-25.06-45.58-48.01-54.54-43.42-16.96-107.72-22.69-149.76,3.89,12.61-18.52,46.12-28.92,66.88-32.75,33.83-6.24,67.97-6.79,102-1.34,34.02,5.45,77.59,21.31,98.16,49.97,7.02,9.79,10.51,21.37,7.32,33.03-11.91,43.51-99.61,53.69-136.68,49.01Z" fill="#003056"/>
  <path d="M431.27,238.6c-17.21,6.71-37.02,6.61-53.95.51-13.3-4.78-20.81-16.22-20.63-29.9.17-13.26,7.6-24.16,20.51-28.89,16.53-6.05,35.74-5.98,52.39-.27,13.52,4.64,21.32,16.31,21.05,30.14-.24,12.57-6.7,23.46-19.36,28.4ZM424.88,209.66c0-11.73-9.51-21.25-21.25-21.25s-21.25,9.51-21.25,21.25,9.51,21.25,21.25,21.25,21.25-9.51,21.25-21.25Z" fill="#003056"/>
  <path d="M51.09,216.35l.09-12.33h38.86s-.04,36.5-.04,36.5c-16.5,2.69-32.31,3.89-48.59,2.2C22.41,240.74-.12,231.58,0,209.78c.21-38.19,61.17-36.24,87.45-31.1l-2.06,14.39c-16.06-6.65-57.96-7.14-59.36,15.76-1.16,18.86,24.91,23.92,39.68,20.6l.12-12.8-14.74-.28Z" fill="#003056"/>
  <polygon points="321.15 207.42 358.01 242.25 326.13 242.38 297.28 213.18 296.9 242.45 272.03 242.37 272.09 177 296.89 177.06 297.3 203.37 325.18 177.11 355.13 177.43 321.15 207.42" fill="#003056"/>
  <circle cx="224.59" cy="68.42" r="31.71" fill="#003056"/>
  <polygon points="166.79 215.22 128.3 215.29 128.41 229.7 170.37 229.78 170.39 242.43 103.11 242.46 103.02 177.02 168.87 177.01 168.98 189.66 128.41 189.78 128.42 202.69 166.77 202.8 166.79 215.22" fill="#003056"/>
  <path d="M213,225.02c13.87,8.1,30.56,5.54,45.55,2.19l1.17,13.71c-21.54,3.87-47.37,4.51-66.27-6.09-9.12-5.12-14.73-13.67-15.18-23.16-1.79-37.59,54.54-39.71,81.33-32.19l-1.96,14.12c-14.77-5.54-36.36-7.73-47.92,3.53-4.19,4.08-6.14,9.47-5.4,15.26.59,4.69,3.79,9.78,8.68,12.63Z" fill="#003056"/>
</svg>