<svg id="hasa" xmlns="http://www.w3.org/2000/svg" width="200" height="57.41" viewBox="0 0 200 57.41">
  <path d="M198.91,13.61L174.14.27c-.68-.36-1.51-.36-2.19,0l-23.25,12.51L125.45.27c-.68-.36-1.51-.36-2.19,0l-23.25,12.51L76.75.27c-.68-.36-1.51-.36-2.19,0l-23.25,12.51L28.06.27c-.68-.36-1.51-.36-2.19,0L1.09,13.61c-.68.36-1.09,1.04-1.09,1.77v26.66c0,.73.41,1.4,1.09,1.77l24.77,13.33c.68.36,1.51.36,2.19,0l23.25-12.51,23.25,12.51c.68.36,1.51.36,2.19,0l23.25-12.51,23.25,12.51c.68.36,1.51.36,2.19,0l23.25-12.51,23.25,12.51c.68.36,1.51.36,2.19,0l24.77-13.33c.68-.36,1.1-1.04,1.1-1.77V15.37c0-.73-.41-1.4-1.1-1.77h0ZM48.69,39.22c0,.73-.41,1.4-1.09,1.76l-19.54,10.52c-.67.36-1.51.36-2.19,0l-19.54-10.52c-.67-.36-1.09-1.04-1.09-1.76v-21.03c0-.73.41-1.4,1.09-1.76L25.87,5.91c.67-.36,1.51-.36,2.19,0l19.54,10.52c.67.36,1.09,1.04,1.09,1.76v21.03ZM97.39,39.22c0,.73-.41,1.4-1.09,1.76l-19.54,10.52c-.67.36-1.51.36-2.19,0l-19.54-10.52c-.67-.36-1.09-1.04-1.09-1.76v-21.03c0-.73.41-1.4,1.09-1.76l19.54-10.52c.67-.36,1.51-.36,2.19,0l19.54,10.52c.67.36,1.09,1.04,1.09,1.76v21.03ZM146.08,39.22c0,.73-.41,1.4-1.1,1.76l-19.54,10.52c-.67.36-1.51.36-2.19,0l-19.54-10.52c-.67-.36-1.09-1.04-1.09-1.76v-21.03c0-.73.41-1.4,1.09-1.76l19.54-10.52c.67-.36,1.51-.36,2.19,0l19.54,10.52c.67.36,1.1,1.04,1.1,1.76v21.03ZM194.77,39.22c0,.73-.41,1.4-1.1,1.76l-19.54,10.52c-.68.36-1.51.36-2.19,0l-19.54-10.52c-.67-.36-1.1-1.04-1.1-1.76v-21.03c0-.73.42-1.4,1.1-1.76l19.54-10.52c.67-.36,1.51-.36,2.19,0l19.54,10.52c.68.36,1.1,1.04,1.1,1.76v21.03Z" fill="#3e6991"/>
  <path d="M82.19,17.33h-15.51v4.88h15.34v4.06h-12.89c-2.46,0-5.07,1.65-5.07,4.72v4.37c0,2.29,1.78,4.72,5.07,4.72h18.12v-18.03c0-2.29-1.78-4.72-5.07-4.72ZM81.96,35.2h-12.66v-4.06h12.66v4.06Z" fill="#3e6991"/>
  <path d="M179.57,17.33h-15.51v4.88h15.34v4.06h-12.89c-2.46,0-5.07,1.65-5.07,4.72v4.37c0,2.29,1.78,4.72,5.07,4.72h18.12v-18.03c0-2.29-1.78-4.72-5.07-4.72ZM179.35,35.2h-12.66v-4.06h12.66v4.06Z" fill="#3e6991"/>
  <path d="M130.88,17.33h-13.06c-3.29,0-5.07,2.43-5.07,4.72v4.38c0,3.07,2.61,4.72,5.07,4.72h12.89v4.06h-17.96v.16c0,2.29,1.78,4.72,5.07,4.72h13.06c2.46,0,5.07-1.65,5.07-4.72v-4.37c0-2.29-1.77-4.72-5.07-4.72h-12.89v-4.06h17.96v-.16c0-2.29-1.77-4.72-5.07-4.72h0Z" fill="#3e6991"/>
  <path d="M33.32,26.26h-12.72v-8.94h-5.23v22.75h5.23v-8.94h12.72v8.94h5.23v-22.75h-5.23v8.94Z" fill="#3e6991"/>
</svg>