<svg id="hayward" xmlns="http://www.w3.org/2000/svg" width="2499.77" height="453" viewBox="0 0 2499.77 453">
  <path d="M548.17,339.75V109.14h77.76v77.99h73.95v-77.99h77.8v230.61h-77.8v-89.24h-73.95v89.24h-77.77ZM885.92,339.75l8.91-30.46h77.61l9.25,30.46h77.61l-85.2-230.58h-79.28l-85.2,230.58h76.29ZM1200,339.71h-77.8v-83.84l-88.49-146.7h87.16l40.88,78.14,40.88-78.14h85.84l-88.49,145.41v85.13ZM1536.73,251.75h.68l26.73-142.62h75.31l-59.12,230.61h-76.63l-27.41-133.9h-.64l-27.1,133.9h-76.59l-59.12-230.61h75.27l26.76,142.62h.64l28.43-142.62h64.4l28.39,142.62ZM1712.91,339.75l8.91-30.46h77.61l9.25,30.46h77.61l-85.2-230.58h-79.27l-85.2,230.58h76.29ZM2024.68,259.27c36.32,0,41.6,9.93,41.6,40.09,0,20.5,2,35.26,3.96,40.39h79.01v-7.1c-9.25,0-8.27-10.23-8.27-40.39,0-46.43-15.21-52.17-40.32-61.15,27.75-7.32,40.02-29.75,40.02-56.36,0-44.85-26.12-65.65-105.44-65.65h-112.16v230.65h77.84v-80.48h23.74ZM2298.82,339.75c76.26,0,126.01-33.3,126.01-120.12,0-75.92-47.49-110.49-124.05-110.49h-104.23v230.61h102.26ZM0,0h462.44v453H0V0Z"/>
  <circle cx="2466.4" cy="136.16" r="33.37"/>
  <path d="M958.89,261.34h-49.19l24.12-82.63,25.07,82.63ZM1785.91,261.34h-49.23l24.12-82.63,25.1,82.63ZM2000.9,162.89h36.32c18.16,0,31.37,7.7,31.37,24.08s-12.87,21.82-36.96,21.82h-30.69v-45.9h-.04ZM2274.4,162.89h14.87c41.6,0,57.76,12.84,57.76,60.89,0,43.56-19.78,62.14-56.13,62.14h-16.53v-123.03h.04Z" fill="#fff"/>
  <ellipse cx="230.5" cy="228.16" rx="201.32" ry="197.96" fill="#fff"/>
  <circle cx="411.32" cy="407.06" r="33.37" fill="#fff"/>
  <circle cx="2466.4" cy="136.16" r="27.75" fill="#fff"/>
  <circle cx="411.32" cy="407.06" r="27.75"/>
  <path d="M2458.88,138.01h10.38c5.21,0,5.74,3.55,5.74,6.57,0,1.4.11,6.98.75,9.21h5.25v-.79c-1.32-.87-1.55-1.62-1.59-3.7l-.26-6.68c-.15-5.13-2-6.04-3.81-6.95,2-1.36,4.38-3.4,4.38-8.83,0-7.81-5.25-9.93-10.46-9.93h-14.68v36.84h4.27v-15.74h.04Z"/>
  <path d="M403.77,408.91h10.38c5.21,0,5.74,3.55,5.74,6.57,0,1.4.11,6.98.76,9.21h5.25v-.79c-1.32-.87-1.55-1.62-1.59-3.7l-.26-6.68c-.15-5.13-2-6.04-3.81-6.95,2-1.4,4.38-3.4,4.38-8.83,0-7.81-5.25-9.93-10.46-9.93h-14.68v36.88h4.27v-15.78h.04ZM2458.88,121.22h10.72c2.15,0,5.74.45,5.74,6.19,0,5.44-3.32,6.38-6.49,6.38h-9.97v-12.57Z" fill="#fff"/>
  <path d="M37.71,228.16c0-104.49,86.52-189.47,192.83-189.47s192.79,84.98,192.79,189.47-86.49,189.5-192.79,189.5S37.71,332.65,37.71,228.16ZM403.77,392.11h10.72c2.11,0,5.7.45,5.7,6.15s-3.32,6.38-6.49,6.38h-9.97v-12.53h.04Z"/>
  <path d="M313.21,229.48c-18.95,13.25-40.54,7.4-53.53.08-20.69,12.31-42.62,4.42-52.59-.45-16.26,9.43-36.28,9.64-52.74.57-10.84,6.77-23.89,9.07-36.39,6.42v106h81.01v-75.5h71.16v75.5h81.01v-106.91c-14.95,3.62-29.86-1.77-37.94-5.7Z" fill="gray"/>
  <path d="M148.13,210.98s5.93-4.91,6-4.87l6,4.83c.75.6,18.84,14.76,41.45-.53,0,0,5.13-3.47,5.17-3.44l5.21,3.32c.94.6,23.78,14.87,41.68.57l5.7-4.53,5.85,4.34c.94.72,23.22,16.91,40.62.68l5.36-4.98,6.19,3.93c.19.11,19.25,11.97,33.82,4.76v-108.91h-81.05v76.29h-71.16v-76.29h-81.01v110.61c7.55,2.15,19.37,3.13,30.16-5.78Z" fill="#fff"/>
</svg>