<svg id="jandy" xmlns="http://www.w3.org/2000/svg" width="600.38" height="223.37" viewBox="0 0 600.38 223.37">
  <path d="M0,189.2c0-7.1,26-13.3,64.1-16.3.2,1,.5,2,.9,3-31.2,3.4-51.2,8.7-51.2,14.6,0,6.8,26.3,12.7,65.8,16C33.3,204.2,0,197.3,0,189.2" fill="#016dab"/>
  <path d="M121.5,172c.1-.4.1-.8.2-1.3-7.4.1-14.6.2-21.6.5-2.1,0-4.2.1-6.2.2-.1.8-.2,1.5-.3,2.2,8.8-.6,18.2-1,27.9-1.3-.1-.2-.1-.3,0-.3" fill="#016dab"/>
  <path d="M151.2,173.4c46,3.1,77.6,9.5,77.6,16.9,0,6.8-26.3,12.7-65.7,16,46.3-2.4,79.6-9.3,79.6-17.3,0-8.7-38.8-16-90.7-17.8-.2.7-.5,1.4-.8,2.2" fill="#016dab"/>
  <path d="M211.8,223.3c89.8-4.8,154.5-18.3,154.5-34.2,0-19.1-93.4-34.7-211.5-35.9-.2,2.3-.3,4.6-.6,6.9,73.7,5.7,123.5,16.4,123.5,28.7s-46,22.2-115,28c80.9-4.2,139.3-16.2,139.3-30.3,0-12.5-46-23.4-113-28.6,89.2,6,150.3,19.3,150.3,33.8.1,13.3-50.9,25-127.5,31.6" fill="#016dab"/>
  <path d="M122.6,158.1v-4.8c-16.1.2-31.7.7-46.7,1.4h10.5c-15.9.1-31.4.6-46.1,1.2,28.9,0,56.6.8,82.3,2.2" fill="#016dab"/>
  <path d="M169.2,4.4c-10.5.2-20.9.6-31.2.8-9.9-.2-19.8-.6-29.7-.8v4.8c6.6,0,14.9,0,17.8,7,1,2.5,2.1,7.2,2.1,12.2v131.3c0,5.6-.6,10.5-1.2,13.4-2.5,11.8-8.9,17.5-20.9,17.4-6.3-.1-9.3-1.8-9.3-1.8-8.1-4.8-9.7-8.6-9.6-11.9.1-2.7,1.3-5.1,1-7.3-.7-4.9-3.8-8.5-9.1-9.5-4.7-.9-8.9,1.7-9.8,6.4-1.6,8.7,7.6,21.1,20.9,25.5,0,0,7,3.1,15.6,3.1s27.9-3.3,36.6-16.3c5.6-8.3,6.6-19,7-29.1V39.1c0-7.6,0-18.4,2.1-22.9,3.1-6.8,11.2-7,17.8-7v-4.8h-.1Z"/>
  <path d="M360.6,116.1v-37.8c0-19.6-11.2-28.5-30.8-28.5-14.7,0-25.8,6-33,18.8h-.4l-2.7-18.8c-10.1,1.9-17.8,5.2-28.5,6.4v4.1c6.6,0,12.2-.8,13.8,6.6,1,4.8,1,19.2,1,25v25.4c0,13.6,1,18.6-14.5,19.6v4.1c8.1-.2,15.9-.6,24-.8,7.4.2,15.1.6,22.5.8v-4.1c-16.3-1-14.5-7.2-14.5-20.9v-32c0-15.1,10.3-27.7,26.4-27.7,19.6,0,19,20.2,19,34.5v26.4c0,13.6,1.1,18.6-14.4,19.6v4.1c8-.2,15.9-.6,24-.8,7.4.2,15.1.6,22.5.8v-4.1c-16.1-.9-14.4-7-14.4-20.7"/>
  <path d="M254.6,127.5c-2.2,2.9-4.3,6.6-8.6,6.4-8,0-7.2-15.2-7.2-20.4v-34.1c0-23.7-10.6-29.7-33.5-29.7-10.5,0-38,2.9-38,18.2,0,4.5,3.3,7.4,7.8,7.4,5.2,0,7.9-4.5,8.3-9.1.6-10.9,9.1-11.7,19.4-11.7,17,0,18.2,9.9,18.2,24,0,2.3.4,5-1.6,6l-20.5,9.9c-13.2,6-32.8,13.5-32.8,30.8,0,11.6,10.6,18.2,21.5,18.2,12.8,0,24.8-6.9,34.5-14.7,2.1,8.3,9.3,14.7,17.8,14.7,7.7,0,15.3-7,18.6-13.8l-3.9-2.1ZM221.4,123.4c-5.8,5.6-14.6,11.8-22.7,11.8-8.5,0-13.2-7.3-13.2-14.9,0-16.6,23.5-24.6,35.9-30.6v33.7Z"/>
  <path d="M546.7,51.7v4.1c4.3.2,11.4,1.4,11.4,7.2v.5c-.1.8-.6,2.2-1.5,4.3-3.7,8.9-11.6,27.9-20.7,49.4l-12.3-29.4c-2.3-5.6-8.5-19.4-8.5-24.8,0-6.6,9.7-6.2,12.6-7.2v-4.1c-7.8.2-15.5.6-23.4.8-7-.2-14.1-.6-21-.8v4.1c2.5,0,7.4,2.3,9.3,4.3,2.5,2.9,4.6,8,6,11.6l28.4,66.4c-9.2,21.7-18.7,43.7-25.6,59.3-2.4,5.3-4.4,7.7-6.3,9.1-1.3.9-2.8,1.6-4.3,2.3-.3.2-.7.3-1,.5-3.6,1.9-6.7,4.1-6.7,9,0,2.9,2.5,5.8,6.2,4.9,8.7,0,14.7-15.9,17.3-22.3l22.3-51,32.4-75,2.7-6c3.3-7,3.5-13,12.2-13.2v-4.1c-4.5.2-9.1.6-13.6.8-5.3-.1-10.5-.5-15.9-.7"/>
  <path d="M472.6,125.8c-2.1-5.4-2.1-15.7-2.1-21.5V0l-33,6.6v4.1c14.9.4,15.5,7,15.5,19.4v32.6c-7.5-8.7-18.2-12.8-29.6-12.8-26.3,0-44,22.7-44,47.9s18,45.6,44,45.6c14,0,23.3-4.9,32.2-15.7.6,5.6,1.8,10.9,4.1,15.7l27.7-6.8h.1v-4c-6.6,0-12.2.4-14.9-6.8ZM452.9,106.8c0,16.3-6,31-24.6,31-22.3,0-28.3-21.5-28.3-40.1s6-41.3,28.3-41.3c12,0,24.6,8.1,24.6,21.1v29.3Z"/>
  <path d="M590.68,70.4c-2.91,0-5.25-.97-7.04-2.9-1.79-1.93-2.68-4.2-2.68-6.81s.89-4.89,2.68-6.82c1.79-1.93,4.13-2.9,7.04-2.9s5.24.97,7.02,2.9c1.79,1.93,2.68,4.21,2.68,6.82s-.89,4.87-2.68,6.81c-1.79,1.93-4.13,2.9-7.02,2.9ZM590.69,52.5c-2.2,0-4.12.75-5.76,2.26s-2.45,3.49-2.45,5.94.82,4.42,2.45,5.92,3.56,2.26,5.76,2.26,4.1-.75,5.73-2.26,2.44-3.48,2.44-5.92-.81-4.43-2.44-5.94-3.53-2.26-5.73-2.26ZM595.39,66.77h-2.24l-1.34-2.97c-.33-.75-.69-1.3-1.05-1.68s-.75-.56-1.15-.56h-.84v5.2h-1.9v-12.36h3.48c1.44,0,2.55.3,3.33.91.78.61,1.17,1.43,1.17,2.46,0,.84-.28,1.56-.83,2.16s-1.32,1-2.3,1.21v.05c.33.08.68.31,1.02.69.35.38.69.92,1.02,1.6l1.62,3.29ZM588.76,56.01v3.97h1.52c.85,0,1.49-.17,1.92-.5.43-.33.64-.83.64-1.49,0-.77-.23-1.29-.69-1.56s-1.19-.41-2.18-.41h-1.22Z"/>
</svg>