<svg id="lochinvar" xmlns="http://www.w3.org/2000/svg" width="2279.41" height="428.11" viewBox="0 0 2279.41 428.11">
  <path d="M851.67,272.31c-24.1,62.79-45.94,90.76-112.95,90.76-16.56,0-35.39-12.85-35.39-32.53V111.95c0-24.2,12.8-39.34,35.39-39.34v-9.83h-139.31v9.83c22.59,0,35.39,15.14,35.39,39.34v216.32c0,24.2-12.8,39.34-35.39,39.34v9.83h246.24l16.56-105.13h-10.54ZM958.61,159.61c-62.5,0-96.39,49.92-96.39,106.65,0,77.16,48.2,118.75,96.39,118.75,39.16,0,96.39-30.26,96.39-118.75-.01-46.13-26.37-106.65-96.39-106.65ZM958.61,170.95c33.89,0,36.15,44.63,36.15,94.55,0,75.64-8.29,103.63-36.15,103.63-26.35,0-35.39-24.2-35.39-103.63,0-40.84-.77-94.55,35.39-94.55h0Z" fill="#cc2131" fill-rule="evenodd"/>
  <path d="M1175.49,205.75c.74,14.37,5.27,24.95,11.27,28.74,10.56,6.81,27.13,4.54,35.41-6.81,10.53-14.37-.77-43.11-12.81-52.19-21.84-18.91-75.3-25.72-112.94,9.08-65.51,60.52-37.65,180.79,33.89,198.18,57.22,13.62,85.09-24.2,100.17-45.38l-7.55-8.33c-10.53,10.58-17.3,24.97-45.16,24.2-68.53-2.27-69.28-135.39-41.43-170.94,12.8-16.64,38.4-6.81,38.4,6.81l.75,16.64h0Z" fill="#cc2131" fill-rule="evenodd"/>
  <path d="M1411.93,216.34c0-34.8-22.59-50.67-41.41-54.46-42.94-9.83-60.24,17.39-76.07,34.8V68.09h-76.81v10.58c7.52,0,18.82,1.5,18.82,23.45v242.04c0,21.93-11.3,23.46-18.82,23.46v9.83h95.65v-9.83c-7.55,0-18.85-1.52-18.85-23.46v-124.04c5.27-10.58,12.81-22.7,27.86-26.48,10.53-3.02,30.88-1.5,30.88,22.7v127.82c0,21.93-10.53,23.46-18.82,23.46v9.83h95.63v-9.83c-7.52,0-18.07-1.52-18.07-23.46v-127.82h0Z" fill="#cc2131" fill-rule="evenodd"/>
  <path d="M1506.8,164.91h-76.81v9.83c7.55,0,18.82,1.5,18.82,22.7v146.73c0,21.93-11.27,23.46-18.82,23.46v9.83h95.65v-9.83c-8.29,0-18.85-1.52-18.85-23.46v-179.26ZM1445.82,93.04c0,18.91,14.29,34.05,31.62,34.05s32.37-15.14,32.37-34.05-14.32-34.05-32.37-34.05c-17.33.01-31.62,15.14-31.62,34.05Z" fill="#cc2131" fill-rule="evenodd"/>
  <path d="M1600.92,216.34c4.54-10.58,13.55-21.18,24.11-24.97,10.53-3.79,34.63-5.29,34.63,27.99v124.81c0,21.93-10.53,23.46-18.09,23.46v9.83h94.89v-9.83c-7.52,0-18.07-1.52-18.07-23.46v-121.77c0-73.37-77.56-71.87-100.17-49.17-6.78,6.81-13.55,13.61-16.56,25.71h-.77v-34.03h-76.81v9.83c7.52,0,18.82,1.5,18.82,22.7v146.73c0,21.93-11.3,23.46-18.82,23.46v9.83h95.63v-9.83c-8.29,0-18.82-1.52-18.82-23.46v-127.82h.03Z" fill="#cc2131" fill-rule="evenodd"/>
  <path d="M1699.57,164.91v9.83c5.29,0,14.32,0,20.34,17.39l73.06,191.37h9.78l73.06-191.37c6.76-17.39,15.04-17.39,21.08-17.39v-9.83h-63.25v9.83c13.55,0,32.37.75,20.31,32.52l-33.14,92.28-36.89-92.28c-12.06-31.76,6.76-32.52,21.08-32.52v-9.83h-105.42,0Z" fill="#cc2131" fill-rule="evenodd"/>
  <path d="M2037.69,220.12c0-13.62-6.03-30.26-21.84-43.11-20.34-16.64-90.39-31.01-128.02,6.04-18.07,18.14-15.04,41.61-8.29,52.19,11.3,15.89,38.4,13.62,47.44-4.54,6.76-14.37-.77-21.18-6.78-31.78-6-10.58-3.75-15.89,5.27-20.41,9.04-4.54,27.13-6.81,39.17,0,12.06,6.04,14.32,18.14,14.32,33.28v39.34c-30.88,9.07-62.49,21.18-75.32,28.74-15.81,9.84-39.14,30.26-39.14,59.75,0,17.41,10.53,45.38,50.44,45.38,27.86,0,46.69-14.36,63.25-28.74,7.55,11.35,17.33,28.74,31.63,28.74,15.81,0,34.63-6.8,51.96-24.2l-3.01-9.83c-12.04,9.83-21.08,3.77-21.08-3.02v-127.83h0ZM1978.95,333.57c-9.04,14.37-23.33,20.43-30.88,20.43-24.08,0-26.34-35.55-18.07-52.19,13.55-29.49,41.41-34.03,48.93-36.32v68.08h.01Z" fill="#cc2131" fill-rule="evenodd"/>
  <path d="M2132.57,245.08c0-15.14,5.27-37.05,18.09-43.88,15.81-8.31,15.81,1.52,24.08,12.11,14.32,18.91,42.18,12.85,45.93-7.56,7.55-34.8-15.04-46.15-36.15-46.15-29.36,0-45.93,33.28-51.19,45.38h-.77v-40.09h-76.81v9.83c7.52,0,18.09,1.5,18.09,22.7v146.73c0,21.93-10.56,23.46-18.09,23.46v9.83h94.89v-9.83c-7.55,0-18.09-1.52-18.09-23.46v-99.08h.01Z" fill="#cc2131" fill-rule="evenodd"/>
  <path d="M262.05,405.96l-1.74-2.09c-24.49-29.49-46.85-61.15-66.47-94.09l3.9-2.32c19.03,31.95,40.66,62.7,64.32,91.41,24.79-29.76,44.6-57.45,60.53-84.59l3.92,2.3c-16.43,27.99-36.95,56.55-62.72,87.3l-1.75,2.08ZM138.67,188.34C111.51,110.04,104.76,47.71,103.15,17.53l-.1-1.95,1.91-.4C155.7,4.69,220.42,0,262.04,0s107.16,4.69,157.1,15.18l1.89.4-.09,1.93c-1.02,22.85-3.56,45.86-7.57,68.38l-4.47-.79c3.86-21.69,6.35-43.83,7.41-65.85-49.36-10.15-112.83-14.69-154.28-14.69s-104.11,4.55-154.25,14.7c1.78,30.63,8.76,91.49,35.16,167.61l-4.29,1.49Z"/>
  <path d="M193.52,16.65c11.3,5.29,9.79,8.33,15.81,14.37s15.06,15.14,39.16-1.52c6.77-4.54,18.83-10.58,24.85,2.27,3.01-2.27,6.02-1.5,8.29-1.5-3.76-11.35-8.29-12.87-12.05-13.62h-76.05,0ZM317.77,122.55c0-12.87-9.04-27.24-18.83-31.78-3.76-2.27-6.02-5.29-2.26-8.31,4.53-2.27,10.54-9.83,12.8-14.37,0-.77-.75-3.02-.75-3.02l-11.3-19.68c-5.27-6.04-18.82-12.85-29.36-1.5-9.79,10.58-6.03,23.45-.75,29.49,4.51,6.81,3.01,18.91-8.29,18.91-3.77,0-4.51-1.52-8.29,2.27-4.51,4.54-29.36,34.03-32.39,37.05-3.01,3.79-6.77,10.6-2.26,15.89,5.28,4.54,9.79,9.08,11.3,11.35s1.5,6.81-.75,6.81h-60.24c-2.27,0-4.53,1.5-4.53,3.77s2.26,4.54,4.53,4.54h69.27c2.26.77,9.04,6.06,12.8,12.85,2.26.77,6.03,0,7.54,2.27,1.5-3.79,3.76-7.56,8.29-10.58v-55.96h53.47ZM342.62,163.38c32.39-67.31,51.96-68.83,67.78-70.33l15.81-15.14,1.5,21.93,18.83,15.89s3.01,1.52,3.01,3.79c0,3.02-.75,6.04.77,8.33,0,0,30.12,28.74,33.14,30.25,3.01,2.27,4.51,4.55,5.27,9.08,0,0,111.45,3.02,113.71,3.02s3.01,2.27.75,2.27l-112.95,1.52s-5.28,3.02-9.79,4.54c-14.31,7.56-18.83-.77-25.6-4.54h-42.16c3.01,9.08,5.27,35.55,1.5,52.96,5.27,11.35,9.79,43.86,7.54,63.53,2.26.77,25.6,4.55,37.65,5.29,12.8,0,11.3-1.5,15.81,9.84,4.51,10.58,21.09,36.3,21.09,36.3,0,0,2.26,4.54,3.01,9.84,1.5,17.39,8.29,27.22,11.3,31.76,3.01,5.29,4.53,12.85,4.53,12.85,0,0,0,3.79-2.26,1.52-5.28-4.55-19.58-15.14-24.1-16.64-3.77-1.52-4.53-4.55-4.53-4.55,0,0,.75-4.54,1.5-7.56.75-2.27,1.5-11.35,2.26-15.89,0-4.54-3.01-9.83-9.03-14.37-5.27-4.54-12.8-10.58-20.34-18.14-3.76,2.27-18.07,3.79-26.35,3.79,0,8.33-3.77,21.18-3.77,21.18,0,0,0,3.02-1.5,4.54-6.03,3.02-28.62,17.41-42.16,25.72-3.01-1.52-15.82,0-24.85,1.5,2.26-2.27,2.26-13.62,2.26-20.41,9.03-1.52,12.8-3.79,18.82-8.33-1.5,3.02.75,8.33.75,12.85,18.83-6.81,27.86-21.18,31.62-32.53-33.14.77-54.97-9.08-73.8-17.41-19.57-7.56-26.35,1.52-38.4,6.81-10.54-11.35-7.54-20.43-7.54-20.43,4.51-12.1,23.35-40.09,27.11-46.89,4.51-6.81-3.77-4.54-6.03-3.79l-10.53,11.35-36.15-52.19,74.55-83.95v40.84h0ZM131.02,284.41c12.05,15.12,17.31,18.9,12.05,65.8,11.3,11.35,21.08,26.47,23.35,31.02,3.01,4.54,3.01,5.29,4.51,6.04,1.5,1.52,1.5,2.27,1.5,6.06v4.55c0,.75-1.5,18.14-4.51,24.95l-12.06-13.62c-2.26-.75-5.27-1.5-2.26-6.8,3.01-5.29,6.77-14.37-3.76-15.14-6.03-10.58-21.09-32.53-31.63-40.09,11.31-10.6,17.34-43.12,12.81-62.79h0Z" fill="#cc2131" fill-rule="evenodd"/>
  <path d="M289.91,265.49c-8.29,5.29-16.56,15.9-18.82,30.26-20.34-8.33-36.9-7.56-50.45-8.33,6.02-10.58,5.27-24.2-3.01-30.26-3.01,16.64-.75,18.92-27.11,48.42-8.29,9.07-14.31,25.71-12.8,33.27,9.04,9.84,36.15,39.34,39.16,43.11,3.77,4.55,6.78,6.81,8.29,8.33,1.5.77,3.01,3.79,2.26,9.84-.72,6.79-1.22,13.6-1.5,20.41-.55,2.58-1.31,5.1-2.26,7.56l-14.32-17.39c-1.5,0-3.76-1.52-2.26-4.55,1.5-2.27,9.04-17.39-3.76-15.89,0,0-35.39-36.3-48.2-43.11,6.02-21.18,2.26-49.92-15.06-67.31-12.8-12.1-22.59-42.36-24.1-55.96-6.78-3.02-5.28-6.81-21.84,1.52-17.31,7.56-53.46,23.45-76.05-6.81-5.28-6.06-15.81-9.83-18.08-10.58h123.5c12.8-11.34,25.6-26.47,60.23-21.17,9.79,1.52,41.41,3.79,47.44,3.79,6.77,0,8.29,1.52,11.3,5.29s47.44,69.57,47.44,69.57h0Z" fill="#cc2131" fill-rule="evenodd"/>
  <path d="M2252.3,189.86c15.04,0,27.11-12.1,27.11-27.99s-12.06-27.24-27.11-27.24c-15.81,0-27.86,12.1-27.86,27.24,0,15.89,12.05,27.99,27.86,27.99ZM2252.3,186.84c-13.55,0-24.08-11.35-24.08-24.95s10.53-24.2,24.08-24.2,24.08,10.58,24.08,24.2-10.53,24.95-24.08,24.95ZM2256.82,163.38c5.27,0,9.81-2.27,9.81-8.31,0-3.02-1.52-6.06-3.77-6.81-2.26-1.52-5.27-1.52-7.52-1.52h-13.55v31.01h3.75v-14.37h6.78l9.04,14.37h4.51l-9.04-14.37ZM2245.52,160.36v-11.35h9.04c3.77,0,8.29.77,8.29,5.3,0,6.8-6.78,6.04-11.3,6.04h-6.03Z" fill="#cc2131" fill-rule="evenodd"/>
</svg>