<svg id="orenda" xmlns="http://www.w3.org/2000/svg" width="1838.57" height="517.4" xmlns:xlink="http://www.w3.org/1999/xlink" viewBox="0 0 1838.57 517.4">
  <defs>
    <linearGradient id="uuid-1243e015-dadb-4b53-b38a-27b9f32f177b" x1="641.86" y1="0" x2="641.86" y2="472.23" gradientUnits="userSpaceOnUse">
      <stop offset="0" stop-color="#bcdcdf"/>
      <stop offset="1" stop-color="#029ead"/>
    </linearGradient>
    <linearGradient id="uuid-6d1d9af6-1200-4ba1-91b7-bada0ad25178" x1="0" y1="316.12" x2="734.71" y2="316.12" gradientUnits="userSpaceOnUse">
      <stop offset="0" stop-color="#d3e4c1"/>
      <stop offset=".6" stop-color="#a7d074"/>
    </linearGradient>
  </defs>
  <path d="M1426.33,499.54c-2.2.75-4.47.39-6.94.2l.03-23.93c0-3.14-.28-7.12-2.52-9.35-3.18-3.16-7.78-3.33-11.81-1.58-2.91,1.26-6.36,4.89-6.42,9.24l-.36,25.54c-2.13.38-6.42.89-7.73-.89l.16-39.72c.14-1.8,5.3-1.28,6.39-1.03.76,1.99-.22,3.55.76,4.98,7.97-8.21,19.94-7.98,26.68,1.32,6.9-8.81,19.52-9.83,27.01-1.61,5.69,6.25,3.52,26.99,3.59,36.11-1.34,1.75-5.44,1.2-7.72.88l-.15-27.76c-.01-2.2-.93-4.97-2.66-6.28-3.26-2.47-7.62-2.48-11.45-.7-10.44,4.85-5.68,23.06-6.85,34.6Z"/>
  <path d="M1191.69,494.94c-10.74,9.55-33.3,7.41-40.17-6.82l6.31-4.56c4.81,9.35,15.42,12.08,25.06,8.66,3.49-1.24,5.98-4.26,5.67-7.72-.79-8.8-17.73-6.7-28.08-12.46-7.38-4.11-8.98-12.53-4.1-19.8,4.14-6.16,12.67-8.91,20.31-8.14,7.58.76,15.01,4.25,19.03,12.04-2.41,1.27-3.82,3.05-6.59,5.34-2.91-9.7-13.39-12.81-21.92-8.97-2.3,1.04-4.36,2.01-4.98,3.71-5.76,15.76,20.9,9.12,30.98,20.03,4.65,5.03,3.45,14.3-1.5,18.7Z"/>
  <path d="M1476.22,516.3c-1.91,1.34-5.09.7-7.77-.06l.13-57.21c.49-1.73,5.23-1.29,6.56-1.01l.64,6.02c3.41-4.45,8.55-7.3,14.05-7.03,5.14.25,10.95,2.4,14.29,7.26,5.8,8.45,6.08,20.8-.03,29.12-6.88,9.36-20.24,9.76-27.46,1.39l-.41,21.51ZM1500.89,481.73c.3-2.38.06-4.12-.14-6.07-.83-7.85-6.53-12.55-13.89-11.86s-10.74,7.57-10.74,15.08c0,7.51,3.25,14.39,10.73,15.08s13-3.93,14.04-12.24Z"/>
  <path d="M1086.6,499.43c-2.57,1.02-5.06.64-7.79-.15l-.28-23.4h-27.93s-.02,23.87-.02,23.87c-2.51.27-4.49.33-7.01-.04v-54.68c2.52-.32,4.49-.26,7.01-.03l.02,23.9h27.93s.28-23.43.28-23.43c2.74-.87,5.06-.83,7.75-.39l.04,54.36Z"/>
  <path d="M1238.53,484.98h-23.71c-2.83,4.64-2.85,10.02-6.17,14.11-1.36,1.67-4.98.71-7.33.51l21.11-54.56c3.02-.34,5.27-.21,8.4-.22l21.06,54.33c-1.73.95-6.28,1.64-7.55-.1-2.91-4-3.1-9.07-5.82-14.08ZM1235.74,477.83l-8.93-24.33-9.59,24.3,18.52.03Z"/>
  <path d="M995.48,484.97l-24.19.17c-2.39,4.81-2.82,9.76-5.66,13.99-1.11,1.64-5.63,1.01-7.46.02l21.06-53.65c2-1.38,5.75-.55,8.53-.43l21.1,54.57c-2.77.56-4.72.1-7.63.39l-5.74-15.06ZM992.43,477.52l-9.31-24.62-8.81,24.96c6.66-.17,12.61.48,18.13-.34Z"/>
  <path d="M1302.15,492.46c9.32,3.56,18.44-.58,21.61-9.55,2.28-.09,5.31,1.13,6.92,3.12-3.63,10.36-14.96,16.02-25.61,14.47-11.14-1.63-19.18-9.06-21.07-20.25-2.5-14.87,1.18-30.75,17.63-35.34,10.98-3.07,23.47,1.02,28.36,11.89l-7.19,4.09c-1.32-4.38-4.76-7.49-8.2-8.91-5.04-2.07-9.38-1.04-13.89,1.19-7.11,3.52-9.39,10.99-9.47,18.76-.09,8.25,2.38,17.27,10.91,20.53Z"/>
  <path d="M1544.58,495.5c-6.74,5.72-15.38,7.15-22.36,2.61-3.29-2.14-4.95-5.35-5.04-8.71-.1-3.71,2.26-6.72,5.57-9.35,10.2-8.1,27.88-.47,19.74-12.93-1.58-2.42-4.81-3.45-8.16-3.51-4.88-.09-8,3.31-10.57,6.93-.98,1.36-6.02-1.79-5.39-3.43,3.61-9.29,14.84-12.03,23.51-8.86,4.58,1.68,9.14,4.75,9.24,9.81l.51,24.6c.03,1.69,3.56.92,4.89,1.33s1.45,4.53.34,5.36c-4.18,2.92-10.4,1.28-12.27-3.85ZM1542.2,490.35c2.51-2.56,2.18-6.41,2.04-9.55-5,.64-19.33,1.79-19.04,7.61.1,2.03.08,4.18,2.81,4.94,4.47,1.24,10.53.75,14.2-3Z"/>
  <path d="M1374.51,493.75c-7.21,9.22-22.08,9.46-30.1.96-7.84-8.3-7.83-23.34,0-31.64,8.06-8.54,22.78-8.12,29.92.7,6.82,8.42,7.17,21.04.18,29.99ZM1369.01,489.18c3.81-6.22,3.6-15.2-.14-20.86s-14.37-6.38-18.95-.95c-5.18,6.14-5.17,16.89,0,23.04,4.53,5.38,15.22,5.09,19.09-1.22Z"/>
  <path d="M1592.03,465.42c-5.95-4-17.08-.78-17.31,6.54l-.84,26.8c-.82,1.88-5.35,1.19-7.53.9l-.05-41.65c2.54-.3,4.51-.23,6.84-.07l.6,4.98c4.67-5.64,12.2-7.31,19.16-4.7,5.67,2.12,9.9,6.45,10.16,12.97.36,9.01.6,18.34-.13,27.49-.15,1.92-6.99,1.92-7.22,0-1.41-11.52,2-29.45-3.68-33.26Z"/>
  <path d="M1466.7,338.06c-18.1-17.99-26.89-40.86-25.43-66.28,2.52-43.82,40.36-78.17,69.08-78.71l19.92-.38c20,4.61,29.39,10.58,45.75,24.9l.35-62.7,23.86.23c-.08,16.49-.22,32.01-.43,48.23l-.94,75.99c-.26,20.9-8.36,39.53-21.98,55.16-15.74,18.07-38.55,26.47-62.53,25.5-18.7-.75-34.35-8.72-47.66-21.94ZM1543.34,329.54c21.71-10.09,32.89-30.52,32.42-53.61-.45-21.73-10.46-40.62-30.1-50.59-21.56-10.95-49.99-9.26-65.87,9.88-16.85,20.31-20.68,48.12-8.12,71.19,14.04,25.79,43.76,36.11,71.66,23.13Z"/>
  <path d="M1792.63,359.93c-5.26-8.76-8.73-17.45-11.62-27.62-2-.04-3.97,1.95-5.21,4.12-1.79,3.12-4.7,4.46-7.2,6.76-28.01,25.72-70.16,26.19-99.04,1.18-20.21-17.5-30.6-43.33-29.21-70.61,2.2-43.29,40.84-83.08,85.43-78.52,29.12,2.98,54.92,23.3,64.8,50.23,3.09,8.42,6.09,16.68,6.29,25.72l.65,29.41c.49,22.45,14.34,41.05,20.83,59.28l-25.71.05ZM1764.9,312.56c7.85-11.1,9.75-24.09,9.47-37.72-.52-25.95-18.71-47.93-44.17-52.9-22.71-4.44-45.7,4.46-57.53,24.2-13.95,23.29-12.72,57.43,9.55,76.77,27.42,23.81,63.05,17.41,82.67-10.35Z"/>
  <path d="M1374.83,223.52c-15.28-13.17-41.89-8-48.12,7.47-3.96,9.82-2,20.6-1.47,30.78.44,8.44-.14,16.35-.32,24.61l-1.06,46.82-.66,25.21c-9.84,1.78-12.53-.99-22.88-.7l.58-117.2c.06-12.82,5.33-24.53,13.41-33.73,20.12-22.92,64.36-22.02,82.86,5.35,7.99,11.82,9.02,26.04,8.78,40.07l-1.03,61.22-.6,45.58c-5.16-.63-9.98,1.28-14.81.67l-8.56-1.09c-1.64-5.88.21-11.03.27-16.69l.68-64.51c.17-16.41,4.24-44.11-7.07-53.87Z"/>
  <path d="M1149.9,305.51c17.28,22.45,48.69,25.27,74.57,18.06l-.02,23.3c-9.52,4.48-18.92,4.07-28.94,4.21-36.82.51-68.85-23.5-78.02-59.18-12.91-50.24,17.64-101.78,69.88-107.4,22.93-2.47,46.33,8.02,61.15,25.28,9.34,11.49,16.84,23.95,18.35,40l-126,.13c-7.54,17.37-2.13,41.11,9.01,55.59ZM1183.45,230.38l56.4.62c-2.8-7.37-8.24-12.07-14.3-16.17-21.04-14.23-49.44-12.51-69.24,3.87-3.97,3.28-8.55,6.27-8.9,12.17,11.47-2.13,24.18-.63,36.04-.5Z"/>
  <path d="M896.61,352.47c-16.49-.97-31.27-6.38-43.19-16.12-18.99-15.5-29.91-40.04-30.89-64.37-.85-21.16,6.84-45.55,21.3-60.97,13.78-14.69,31.44-24.21,51.91-25.38,6.56-.37,12.25-1.14,19.01.14,19.43,3.68,34.23,14.62,46.78,29.18,4.26,4.94,6.56,10.2,9.21,15.78,7.27,15.32,10.01,30.03,8.64,46.8-3.46,42.61-38.96,77.53-82.76,74.95ZM897.55,327.54c36.78,3.21,61.24-31.33,58.73-64.4-1.74-22.96-16.84-43.06-38.86-49.9-12.75-3.96-27.47-3.67-39.64,1.91-12.95,5.93-22.56,17.68-27.97,30.85-11.03,26.82-.44,58.34,23.33,74.09,7.53,4.99,15.31,6.65,24.41,7.44Z"/>
  <path d="M1036.67,354.6c-8.14.52-15.16.39-22.47.08-1.85-4.25.14-7.95.22-11.86.22-10.93.63-21.52-.34-32.34-.99-11.13-.56-22.06-.06-33.22.8-17.77,3.21-34.7,11.33-50.54,11.6-22.63,27.73-30.77,50.28-40.94,1.09.16,1.94,2.92,1.94,4.12l-.08,21.93c-13.51,8-26.04,13.98-32.63,29.43-4.2,9.85-6.69,20.16-6.8,31.2l-.66,67.44c-.05,4.75-1.49,8.84-.73,14.71Z"/>
  <path d="M1133.76,484.98l-23.95-.07-5.61,14.84c-2.57.34-4.84.32-7.8-.06l21.22-54.52c3.16-.49,5.77-.59,8.57-.02l20.71,54.07c-1.68.89-6.25,1.57-7.36-.07-2.86-4.23-3.2-9.17-5.77-14.16ZM1130.94,477.58l-9.12-24.08-9.22,24.36,18.34-.29Z"/>
  <path d="M1630.24,510.4c-3.48,8.54-14.74,8.68-20.73,3.54.73-2.51,1.02-4.49,2.73-6.55,2.6,2.67,6.11,5.1,9.6,2.65,2.71-1.91,6.75-8.1,5.21-11.88l-16.1-39.64c2.36-1.23,5.36-.75,8.12-.39l12.6,32.23,12-32.31c2.53-.4,4.75-.39,7.89.07l-21.33,52.26Z"/>
  <path d="M762.39,359.35c-.4-11.43-3.26-21.47-5.84-31.64-4.23-16.71-38.8-104.6-125.75-194.54-32.22-33.33-57.57-66.39-80.06-104.28l-17.14-28.88c-1.04,13.12-1.63,26.35-2.46,32.77,39.82,65.78,144.21,149.89,204.62,276.26-66.8-105.15-161.75-193.48-183.99-216.15-22.25-22.67-20.27-36.55-23.72-39.25-1.94,7.01-2.57,13.38-3.3,20.3l-1.24,11.83-.91,11.09c-.31,3.83-.25,6.88-.38,10.11-.21,5.03-.27,10.12-.81,15.53-.82,8.18-.19,16.59.07,24.79l.62,19.51c.31,9.71,2.22,20.83,3.04,28.95,1.41,13.81,3.8,27.52,6.78,41.1,3.09,14.06,7.44,27.83,12.34,41.24,3.87,10.57,6.68,21.57,12.54,31.74l8.21,14.24c11.23,19.47,24.88,38.3,38.95,55.76l8.9,11.05c5.34,6.62,11.04,12.59,18.16,17.83,31.76,30.1,74.64,55.51,118.93,63.52,12.43-45.12,12.43-74.79,12.43-91.41.61-6.98.26-14.22,0-21.47Z" fill="url(#uuid-1243e015-dadb-4b53-b38a-27b9f32f177b)"/>
  <path d="M617.58,414.98c-33.72-34.17-143.93-159.76-300.89-203.95,81.24,4.71,155.5,40.34,221.33,86.83-14.35-34.06-20.29-74.21-24.63-110.09-51.45-29.93-108.45-50.78-167.49-58.81,14.92,1.04-50.34-6.69-39.02-4.9-88.89-3.05-174.7,16.92-258.16,48.12,8.37,4.95,12.66,7.31,51.32,27.7,126.8,65.67,252.28,253.82,427.95,299.56-109.44-18.45-219.69-119.86-307.33-184.55-56.66-53.74-158.7-113.89-200.82-131.45-9.33,3.78-13.98,7.35-19.86,12.89,41.19,23.38,77.57,31.65,130.86,74.37s382.15,333.81,603.85,205.25c-41.44-16.52-83.41-26.8-117.13-60.97Z" fill="url(#uuid-6d1d9af6-1200-4ba1-91b7-bada0ad25178)"/>
  <path d="M283.89,144.96c18.05-.09,37.14,2.59,55,4.93,18.67,2.45,37.21,6.2,55.02,10.14,24.98,5.54,48.6,13.74,72.13,21.79,14.05,4.81,27.05,12.29,39.52,19.61l-34.49-10.61c-20.67-6.36-40.76-11.96-61.07-16.94-15.16-3.72-29.63-5.89-44.18-8.62-15.63-2.93-30.27-3.79-45.02-5.47-21.7-2.47-42.71-2.52-64.01-1.44-31.53,1.59-61.77,6.5-90.88,15.58-22.97,7.16-44.99,15.55-65.85,25.96l-9.59,4.78-28.48-15.46,9.09-5.32c34.15-12.57,68.53-24.01,103.98-29.83,36.62-6.02,72.74-8.9,108.84-9.09Z" fill="#8dc547"/>
  <path d="M537.3,53.63c-2.87,25.77-38.22,286.14,158.22,391.09-140-109.83-154.29-255.5-142.7-364.67-6.63-10.06-15.52-26.42-15.52-26.42Z" fill="#029ead"/>
  <path d="M1817.7,203.76c-3.81,0-7.31-.94-10.48-2.81-3.18-1.87-5.7-4.4-7.58-7.58s-2.81-6.67-2.81-10.48.94-7.31,2.81-10.48c1.88-3.18,4.4-5.7,7.58-7.58,3.18-1.87,6.67-2.81,10.48-2.81s7.31.94,10.48,2.81c3.18,1.88,5.7,4.4,7.58,7.58,1.87,3.18,2.81,6.67,2.81,10.48s-.94,7.31-2.81,10.48c-1.88,3.18-4.4,5.7-7.58,7.58-3.18,1.88-6.67,2.81-10.48,2.81ZM1817.7,199.58c3.09,0,5.9-.76,8.44-2.27,2.54-1.51,4.57-3.54,6.08-6.08,1.51-2.54,2.27-5.32,2.27-8.35s-.76-5.88-2.27-8.39c-1.51-2.51-3.54-4.52-6.08-6.04-2.54-1.51-5.36-2.27-8.44-2.27s-5.81.76-8.35,2.27c-2.54,1.51-4.57,3.53-6.08,6.04-1.51,2.51-2.27,5.31-2.27,8.39s.76,5.81,2.27,8.35c1.51,2.54,3.54,4.57,6.08,6.08,2.54,1.51,5.32,2.27,8.35,2.27ZM1810.8,193.14v-20.51h8.62c1.75,0,3.3.62,4.63,1.86,1.33,1.24,2,2.8,2,4.67,0,1.39-.44,2.63-1.32,3.72-.88,1.09-1.95,1.82-3.22,2.18l-.18.18,5.45,7.71v.18h-4.54l-5.08-7.71h-2.36v7.71h-3.99ZM1814.79,181.79h4.27c.79,0,1.48-.24,2.09-.73.6-.48.91-1.12.91-1.91,0-.67-.27-1.29-.82-1.86-.54-.57-1.24-.86-2.09-.86h-4.36v5.36Z"/>
</svg>