<svg id="pentair" xmlns="http://www.w3.org/2000/svg" width="2426.49" height="802.75" viewBox="0 0 2426.49 802.75">
  <path d="M781.22,645.36h29.82v-192.21h-29.82v-51.35h169c61.31,0,106.04,28.16,106.04,94.45s-44.73,94.43-106.04,94.43h-54.68v54.69h40.6v51.35h-154.91v-51.36ZM895.54,539.31h29.83c29.82,0,44.73-14.89,44.73-43.9,0-30.65-12.43-42.26-42.26-42.26h-32.31v86.16h0ZM1144.89,609.72c0,21.56,4.97,46.41,32.31,46.41,16.56,0,26.51-5.8,29.82-22.37h79.53c-.83,3.29-.83,6.61-2.48,9.09-15.76,48.9-59.66,59.66-106.87,59.66-72.07,0-115.15-42.26-115.15-114.32s43.07-112.68,112.67-112.68c65.43,0,92.8,27.33,104.39,57.17,10.76,30.65,10.76,63.79,10.76,77.03h-144.99ZM1207.86,564.99c0-22.37-4.97-43.06-33.14-43.06-26.51,0-29.82,21.53-29.82,43.06h62.96ZM1320.53,647.85h25.67v-117.64h-25.67v-48.9h101.88v42.26h.83c12.41-35.62,47.22-48.05,82.02-48.05,43.9,0,71.23,24.05,71.23,66.29v106.04h23.2v48.87h-128.4v-48.87h20.7v-84.51c0-19.05-9.93-32.32-28.97-32.32-20.73,0-32.32,14.09-32.32,33.16v83.67h19.05v48.87h-129.22v-48.87h0ZM1609.64,481.32h28.17v-39.77l84.51-28.99v68.75h53.85v48.9h-53.85v104.37c0,8.29,2.48,16.56,13.24,16.56,13.24,0,13.24-16.56,13.24-26.5v-8.29h44.73v19.88c-4.12,50.53-31.46,66.26-75.38,66.26-62.14,0-80.35-26.52-80.35-83.67v-88.64h-28.17v-48.88h0ZM1823.39,550.9c1.65-28.97,15.73-48.05,36.46-59.63,19.86-11.61,46.38-15.76,71.23-15.76,57.17,0,111.84,13.27,111.84,77.05v95.28h24.05v48.87h-96.11v-33.14h-.83c-17.41,29-43.06,38.94-76.22,38.94-40.58,0-81.19-20.73-81.19-67.11s42.26-69.58,82.86-72.07c11.61-.83,23.2-1.67,34.78-1.67s24.05.83,35.64.83c0-12.41,0-23.2-4.99-31.49-4.12-8.29-13.24-14.09-25.67-14.09-22.37,0-32.32,14.92-32.32,33.97h-79.53v.03h0ZM1920.32,656.14c29.82,0,48.05-27.35,48.05-54.69-12.44,0-31.49-1.65-48.05,2.48-16.56,3.32-29.82,11.61-29.82,30.65,0,16.58,15.73,21.57,29.82,21.57ZM2087.65,647.85h24.85v-117.64h-24.85v-48.9h109.36v166.53h23.2v48.87h-132.56v-48.87h0ZM2112.5,391.86h84.51v67.09h-84.51v-67.09ZM2238.43,647.85h24.85v-117.64h-24.85v-48.9h102.72v52.2h1.67c.8-4.15,1.65-7.47,3.32-11.61,8.29-24.85,29.82-46.41,57.14-46.41,9.96,0,17.41.83,23.2,2.48v76.22c-7.47-1.65-17.41-2.48-26.52-2.48-33.14,0-52.18,19.05-52.18,52.18v43.93h31.49v48.87h-140.84v-48.86h-.01ZM308.19,401.8l102.72-102.73v205.45l-102.72-102.72v205.44l-102.73-102.72v298.23l400.96-400.95L205.45,0v299.07l102.73-102.72v205.45h0Z" fill="#2d509f" fill-rule="evenodd"/>
  <path d="M308.19,401.8L102.73,196.35v205.45l102.72-102.73v205.45l102.73-102.72h0ZM0,299.07l205.45,205.45-102.72,102.72v-205.44L0,504.52v-205.45h0Z" fill="#48aa6a" fill-rule="evenodd"/>
</svg>