<svg id="raypak" xmlns="http://www.w3.org/2000/svg" width="631.91" height="169.17" viewBox="0 0 631.91 169.17">
  <path d="M153.32,28.8c-.87,7.99-4.81,17.5-14.7,17.46l-39.66-.14,7.09-27.68,38.21-.04c5.84.22,9.71,4.48,9.06,10.39Z" fill="#fefcfc"/>
  <path d="M386.76,71.63c2.59,6.11,1.48,12.35-2.1,17.57-6.86,10.01-19.87,8.08-30.93,7.67l7.49-31.97,15.18-.16c4.48-.05,8.45,2.35,10.37,6.88Z" fill="#fefcfc"/>
  <path d="M462.72,97.08c-6.41-.65-13.81,1.76-19.89-.83s-7.56-12.1-5.75-18.15c4.82-16.15,19.62-13.19,33.32-13.05l-7.68,32.02Z" fill="#fefcfc"/>
  <path d="M206.63,96.85c-6.27-.47-13.95,1.89-19.91-.72-6.64-2.9-7.59-12.51-5.7-18.41,5.11-15.94,19.61-12.94,33.31-12.76l-7.7,31.89Z" fill="#fefcfc"/>
  <g>
    <path d="M158.66,0c1.68,1.94,4.69,2.14,6.79,4.17,11.82,11.37,12.79,28.79,4.08,42.42-6.12,9.57-14.96,17.85-26.78,18l-31.09.4,33.11,32.14c6.13.15,11.69.43,17.69-.08-1.6-6.44-3.74-11.43-3.55-18.57,2.29-14.22,13.13-29.39,28.86-31.38,18.22-2.31,36.24.19,54.98-.89l-12.15,50.83,15.06-.07,12.59-50.59,22.63.17-12.17,50.32c7.56.71,14.78.37,22.75.31l12.87-50.63,23.22-.04-12.25,50.41c5.21.68,10.22.38,15.82.09l13.12-50.6,44.06-.07c10.32-.02,18.2,6.66,20.87,16.59,3.39,11.75-.58,23.69-8.56,33.83,6.17.8,11.68.54,18,.15-5.01-8.16-6.24-16.78-2.82-25.66,3.8-13.92,15.46-24.8,30.41-24.82l51.1-.06-12.4,50.53c5.03.55,9.21.35,14.47.15l22.87-94.68c8.24-.59,15.69-.64,24.14.07l-16.45,66.14,30.95-22.11c9.81,0,20.43.07,31.38.07l-43.53,33,16.56,17.59,66.63.23-6.29,22.74-71.05-.07-29.82-32.3-8.14,32.32-168.96.08-11.82,48.57c-7.64.29-14.85.5-22.32-.13l11.73-48.23c-5.66-.26-10.89-.64-16.24.21-2.95,10.88-5.1,21-10.48,30.6-5.22,9.3-13.76,17.61-25.09,17.65l-86.1.34,4.87-20.82,73.19-.34c11.43-.05,20.11-17.69,20.41-27.86l-150.93-.04-43.62-41.94-10.86,41.95-80.41-.14,6.07-22.67,53.87-.25,19.29-78.83-33.6-.24L49.83,0h108.83ZM153.32,28.8c.65-5.91-3.22-10.17-9.06-10.39l-38.21.04-7.09,27.68,39.66.14c9.89.03,13.83-9.47,14.7-17.46ZM206.63,96.85l7.7-31.89c-13.7-.19-28.2-3.18-33.31,12.76-1.89,5.9-.94,15.5,5.7,18.41,5.96,2.61,13.64.25,19.91.72ZM386.76,71.63c-1.92-4.53-5.89-6.93-10.37-6.88l-15.18.16-7.49,31.97c11.06.41,24.06,2.34,30.93-7.67,3.58-5.22,4.69-11.46,2.1-17.57ZM462.72,97.08l7.68-32.02c-13.7-.15-28.5-3.11-33.32,13.05-1.81,6.05-.6,15.44,5.75,18.15s13.48.17,19.89.83Z" fill="#e41f30"/>
    <path d="M582.48,30.52c-2.47,0-4.74-.61-6.8-1.82-2.06-1.22-3.7-2.85-4.91-4.91-1.22-2.06-1.82-4.32-1.82-6.8s.61-4.74,1.82-6.8c1.22-2.06,2.85-3.7,4.91-4.91,2.06-1.22,4.32-1.82,6.8-1.82s4.74.61,6.8,1.82c2.06,1.22,3.7,2.85,4.91,4.91,1.22,2.06,1.82,4.32,1.82,6.8s-.61,4.74-1.82,6.8c-1.22,2.06-2.85,3.7-4.91,4.91-2.06,1.22-4.33,1.82-6.8,1.82ZM582.48,27.82c2,0,3.82-.49,5.47-1.47,1.65-.98,2.96-2.29,3.94-3.94.98-1.65,1.47-3.45,1.47-5.41s-.49-3.81-1.47-5.44c-.98-1.63-2.29-2.93-3.94-3.91-1.65-.98-3.47-1.47-5.47-1.47s-3.77.49-5.41,1.47c-1.65.98-2.96,2.29-3.94,3.91-.98,1.63-1.47,3.44-1.47,5.44s.49,3.77,1.47,5.41c.98,1.65,2.3,2.96,3.94,3.94,1.65.98,3.45,1.47,5.41,1.47ZM578.01,23.64v-13.3h5.59c1.14,0,2.14.4,3,1.21.86.8,1.29,1.82,1.29,3.03,0,.9-.28,1.71-.85,2.41-.57.71-1.26,1.18-2.09,1.41l-.12.12,3.53,5v.12h-2.94l-3.29-5h-1.53v5h-2.59ZM580.6,16.29h2.77c.51,0,.96-.16,1.35-.47.39-.31.59-.73.59-1.24,0-.43-.18-.83-.53-1.21-.35-.37-.8-.56-1.35-.56h-2.82v3.47Z" fill="#e41f30"/>
  </g>
</svg>