<svg id="waterway" xmlns="http://www.w3.org/2000/svg" width="795.2" height="166" viewBox="0 0 795.2 166">
  <path d="M0,0h20.36L0,20.16V0ZM99.03,0h39.47L63.38,100.39,99.03,0ZM133.84,53.76l-75.71,101.08h41.92s-.13-4.9,1.37-9.78c1.32-4.39,4.43-13.05,4.43-13.05,0,0,27.99-78.25,27.99-78.25ZM246.49,0h-39.44l-35.97,101.04L246.49,0ZM282.04,0l-115.91,154.86h115.91V0ZM36.34,24.11L0,60.12v2.83s.01,63.18.01,63.18L36.34,24.11ZM306.72,127.69c.86,0,1.37.27,1.5.8l5.33,20.45c.1.23.32.35.65.35h.29c.43,0,.7-.12.79-.35l13.41-18.86c.65-.9,1.34-1.52,2.06-1.87.72-.35,1.73-.52,3.02-.52h8.59c1.3,0,2.24.18,2.82.52.58.35,1.02.97,1.33,1.87l6,18.86c0,.23.22.35.65.35h.29c.33,0,.6-.12.79-.35l13.35-20.45c.25-.53.85-.8,1.81-.8h8.15c.62,0,1,.11,1.13.32.13.22.08.51-.13.87l-15.45,23.04c-.82,1.26-1.67,2.09-2.54,2.49-.87.4-2.08.6-3.61.6h-9.09c-1.25,0-2.17-.23-2.76-.67-.59-.45-1.08-1.25-1.48-2.41l-5.99-18.16c-.06-.2-.26-.3-.59-.3h-.43c-.39,0-.62.1-.71.3l-12.98,18.16c-.85,1.16-1.66,1.96-2.42,2.41-.76.45-1.77.67-3.02.67h-9.09c-1.54,0-2.67-.2-3.38-.6-.72-.4-1.24-1.23-1.57-2.49l-6.34-23.04c-.07-.37-.02-.65.17-.87.19-.22.61-.32,1.29-.32h8.15,0ZM416.42,149.53c.77,0,1.33-.13,1.7-.38.36-.25.6-.69.73-1.32l.85-4.38h-26.4c-1.49,0-2.58.21-3.26.62-.68.42-1.1,1.02-1.26,1.82l-.2,1.04c-.17.9,0,1.55.52,1.96.52.42,1.53.62,3.02.62h24.31ZM415.9,127.69c3.22,0,5.9.19,8.04.57,2.14.38,3.79.98,4.95,1.79,1.16.81,1.91,1.86,2.24,3.13.33,1.28.32,2.81-.03,4.6l-2.57,13.24c-.15.8-.37,1.45-.63,1.96-.25.5-.63.92-1.1,1.22-.47.3-1.05.51-1.74.62-.7.12-1.57.18-2.63.18h-34.34c-2.12,0-3.86-.14-5.22-.42-1.37-.28-2.42-.7-3.18-1.27-.76-.56-1.23-1.29-1.41-2.19-.19-.9-.16-1.96.08-3.18l.46-2.39c.2-1.03.56-1.95,1.08-2.76.52-.81,1.27-1.5,2.24-2.07.98-.56,2.2-.99,3.67-1.27,1.47-.28,3.27-.42,5.39-.42h29.36l.18-.95c.15-.79.17-1.48.04-2.04-.13-.56-.45-1.02-.96-1.37-.51-.35-1.25-.6-2.23-.77-.98-.17-2.26-.25-3.85-.25h-30.16c-.86,0-1.24-.3-1.12-.9l.81-4.18c.12-.6.61-.89,1.47-.89h31.17ZM445.61,127.72l1.27-6.57c.14-.73.74-1.1,1.8-1.1h7.14c1.06,0,1.52.37,1.37,1.1l-1.28,6.57h12.62c.87,0,1.24.3,1.12.89l-.79,4.08c-.12.6-.61.9-1.47.9h-12.63l-2.24,11.54c-.27,1.39-.06,2.41.63,3.06.69.65,2.24.97,4.64.97h7c.87,0,1.24.3,1.12.9l-.79,4.08c-.12.6-.61.9-1.47.9h-8.73c-2.89,0-5.23-.18-7.04-.55-1.8-.37-3.2-.95-4.17-1.74-.98-.79-1.56-1.82-1.74-3.09-.19-1.26-.11-2.77.23-4.53l2.24-11.54h-6.85c-.87,0-1.24-.3-1.12-.9l.79-4.08c.12-.6.61-.89,1.47-.89h6.85ZM482.66,138.98h29.22c.82,0,1.28-.28,1.39-.85l.41-2.09c.2-1.03.03-1.76-.52-2.19-.54-.43-1.65-.65-3.34-.65h-18.11c-3.13,0-5.3.34-6.51,1.02-1.22.68-1.98,1.82-2.29,3.41l-.26,1.34ZM512.92,127.69c2.45,0,4.46.14,6.01.42,1.56.28,2.74.75,3.55,1.39.81.65,1.31,1.49,1.49,2.54.18,1.04.13,2.31-.16,3.81l-.92,4.73c-.21,1.06-.69,1.8-1.44,2.21-.76.42-1.83.62-3.22.62h-36.43l-.23,1.19c-.3,1.56.02,2.69.97,3.38.95.7,2.98,1.05,6.11,1.05h30.08c.87,0,1.24.3,1.12.9l-.81,4.18c-.12.6-.61.9-1.47.9h-31.1c-3.27,0-5.96-.18-8.08-.55-2.12-.37-3.76-.95-4.92-1.77-1.17-.81-1.91-1.86-2.24-3.13-.33-1.28-.32-2.81.03-4.6l1.39-7.17c.35-1.79.93-3.32,1.76-4.6.83-1.28,1.98-2.32,3.46-3.13,1.48-.81,3.35-1.41,5.61-1.79,2.26-.38,5.03-.57,8.3-.57h21.14,0ZM570.25,127.69c.87,0,1.24.3,1.12.89l-.81,4.18c-.12.6-.61.9-1.47.9h-19.19c-1.54,0-2.83.09-3.88.27-1.05.18-1.91.48-2.59.9-.67.41-1.22.99-1.59,1.69-.38.71-.67,1.59-.87,2.61l-2.87,14.78c-.14.73-.74,1.1-1.8,1.1h-7.07c-1.11,0-1.59-.37-1.45-1.1l3.13-16.12c.35-1.79.93-3.32,1.76-4.6.83-1.28,1.98-2.32,3.46-3.13,1.48-.81,3.35-1.41,5.61-1.79,2.26-.38,5.03-.57,8.3-.57h20.2ZM583.47,127.69c.87,0,1.37.27,1.51.8l5.33,20.45c.1.23.32.35.65.35h.29c.43,0,.69-.12.79-.35l13.41-18.86c.66-.9,1.34-1.52,2.06-1.87.72-.35,1.72-.52,3.02-.52h8.59c1.3,0,2.24.18,2.82.52.58.35,1.03.97,1.33,1.87l6,18.86c0,.23.22.35.65.35h.29c.34,0,.6-.12.79-.35l13.35-20.45c.25-.53.85-.8,1.81-.8h8.15c.62,0,1,.11,1.13.32.12.22.08.51-.13.87l-15.44,23.04c-.82,1.26-1.67,2.09-2.54,2.49-.87.4-2.08.6-3.62.6h-9.09c-1.25,0-2.17-.23-2.76-.67-.59-.45-1.08-1.25-1.48-2.41l-5.99-18.16c-.06-.2-.26-.3-.59-.3h-.43c-.39,0-.62.1-.71.3l-12.98,18.16c-.85,1.16-1.66,1.96-2.42,2.41-.76.45-1.77.67-3.02.67h-9.09c-1.54,0-2.67-.2-3.38-.6-.72-.4-1.24-1.23-1.57-2.49l-6.34-23.04c-.07-.37-.02-.65.17-.87.18-.22.61-.32,1.29-.32h8.15ZM693.18,149.53c.77,0,1.33-.13,1.7-.38.36-.25.6-.69.73-1.32l.85-4.38h-26.4c-1.49,0-2.58.21-3.26.62-.68.42-1.1,1.02-1.26,1.82l-.2,1.04c-.17.9,0,1.55.52,1.96.52.42,1.53.62,3.02.62h24.31,0ZM692.66,127.69c3.22,0,5.9.19,8.04.57,2.14.38,3.79.98,4.96,1.79,1.16.81,1.91,1.86,2.24,3.13.33,1.28.32,2.81-.03,4.6l-2.57,13.24c-.16.8-.37,1.45-.63,1.96-.25.5-.63.92-1.1,1.22-.47.3-1.05.51-1.74.62-.7.12-1.58.18-2.63.18h-34.34c-2.12,0-3.86-.14-5.22-.42-1.36-.28-2.42-.7-3.18-1.27-.76-.56-1.23-1.29-1.41-2.19-.19-.9-.16-1.96.08-3.18l.46-2.39c.18-.98.55-1.92,1.08-2.76.52-.81,1.26-1.5,2.24-2.07.97-.56,2.2-.99,3.67-1.27,1.47-.28,3.27-.42,5.39-.42h29.36l.18-.95c.16-.79.17-1.48.04-2.04-.13-.56-.45-1.02-.96-1.37-.51-.35-1.25-.6-2.23-.77-.98-.17-2.26-.25-3.85-.25h-30.16c-.86,0-1.24-.3-1.12-.9l.81-4.18c.12-.6.61-.89,1.47-.89h31.17,0ZM767.81,127.69c.53,0,.85.13.97.37.12.25.03.54-.28.87l-34.25,33.69c-1.19,1.16-2.71,2.01-4.58,2.56-1.86.55-4.36.82-7.48.82h-5.05c-.87,0-1.24-.3-1.12-.89l.79-4.08c.12-.6.61-.89,1.47-.89h4.26c1.83,0,3.13-.38,3.9-1.15l4.82-4.73c-1.19-.07-2.08-.27-2.66-.6-.59-.33-1.1-.85-1.54-1.54l-14.97-23.19c-.18-.33-.16-.62.06-.87.22-.25.59-.37,1.12-.37h8.3c.82,0,1.35.23,1.59.7l12.29,19.16c.3.46.53.77.72.92.19.15.45.23.78.23l20.9-20.3c.43-.46,1.05-.7,1.87-.7h8.08,0ZM786.82,152.35l4.76-6.34h3.62l-1.74,8.94h-2.36l1.36-6.99h-.06l-5.23,6.99h-1.76l-2.51-6.99h-.06l-1.36,6.99h-2.36l1.74-8.94h3.65l2.33,6.34h0ZM777.93,147.42h-3.97l-1.46,7.53h-2.52l1.46-7.53h-3.97l.27-1.41h10.45l-.27,1.41Z" fill="#00457a"/>
</svg>