<svg fill="currentColor" width="800px" height="800px" viewBox="0 0 740.8 740.8" xmlns="http://www.w3.org/2000/svg">
    <path d="M370.4,0C166.4,0,0,166.4,0,370.4s166.4,370.4,370.4,370.4,370.4-166.4,370.4-370.4S574.4,0,370.4,0ZM708.8,370.4c0,14.4-.8,28.8-3.2,43.2-68,56-140.8,60.8-191.2,53.6-6.4,21.6-25.6,38.4-48.8,41.6v185.6c-30.4,8.8-62.4,13.6-96,13.6-76,0-147.2-25.6-203.2-68,124.8-12,209.6-93.6,252-146.4-12-11.2-20-26.4-20-44,0-15.2,5.6-28.8,15.2-39.2-56-53.6-177.6-143.2-364-151.2,25.6-73.6,76-136,140.8-176.8,188,20,240,212,254.4,310.4,4-.8,8.8-1.6,13.6-1.6,22.4,0,42.4,12.8,52,31.2,49.6-34.4,112.8-109.6,120-268,49.6,58.4,78.4,133.6,78.4,216Z"/>
</svg>