<svg width="594.59" height="598.87" viewBox="0 0 594.59 598.87" xmlns="http://www.w3.org/2000/svg">
  <path d="M57.37,146.83L1.37,53.5,38.71,16.17l93.33,56v37.33l96,96v8l-34.67,32-98.67-98.67h-37.33ZM457.37,373.5h-21.33c-18.67,0-34.67-2.67-50.67-5.33l-56,64,125.33,141.33c29.33,32,80,34.67,109.33,2.67,32-32,29.33-80-2.67-109.33l-104-93.33ZM548.04,272.17c42.67-42.67,56-106.67,40-162.67-2.67-10.67-16-13.33-21.33-5.33l-93.33,93.33-74.67-74.67,93.33-93.33c8-8,5.33-18.67-5.33-21.33-56-18.67-120-5.33-162.67,40-48,48-58.67,122.67-32,181.33L25.37,466.83c-32,29.33-34.67,80-2.67,109.33h0c32,32,80,29.33,109.33-2.67l237.33-266.67c58.67,26.67,130.67,16,178.67-34.67Z"/>
</svg>